<svg width="24" height="25" viewBox="0 0 24 25" fill="none" xmlns="http://www.w3.org/2000/svg">
<path d="M11.9991 14.05C11.8691 14.05 11.7391 14.02 11.6191 13.95L2.78911 8.84001C2.43911 8.63001 2.30911 8.17001 2.51911 7.81001C2.72911 7.45001 3.18911 7.33001 3.54911 7.54001L11.9991 12.43L20.3991 7.57001C20.7591 7.36001 21.2191 7.49001 21.4291 7.84001C21.6391 8.20001 21.5091 8.66001 21.1591 8.87001L12.3891 13.95C12.2591 14.01 12.1291 14.05 11.9991 14.05Z" fill="white"/>
<path d="M12 23.11C11.59 23.11 11.25 22.77 11.25 22.36V13.29C11.25 12.88 11.59 12.54 12 12.54C12.41 12.54 12.75 12.88 12.75 13.29V22.36C12.75 22.77 12.41 23.11 12 23.11Z" fill="white"/>
<path d="M12.0006 23.5C11.1206 23.5 10.2506 23.31 9.56063 22.93L4.22062 19.96C2.77062 19.16 1.64062 17.23 1.64062 15.57V9.92C1.64062 8.26 2.77062 6.34 4.22062 5.53L9.56063 2.57C10.9306 1.81 13.0706 1.81 14.4406 2.57L19.7806 5.54C21.2306 6.34 22.3606 8.27 22.3606 9.93V15.58C22.3606 17.24 21.2306 19.16 19.7806 19.97L14.4406 22.93C13.7506 23.31 12.8806 23.5 12.0006 23.5ZM12.0006 3.5C11.3706 3.5 10.7506 3.63 10.2906 3.88L4.95062 6.85C3.99062 7.38 3.14063 8.82 3.14063 9.92V15.57C3.14063 16.67 3.99062 18.11 4.95062 18.65L10.2906 21.62C11.2006 22.13 12.8006 22.13 13.7106 21.62L19.0506 18.65C20.0106 18.11 20.8606 16.68 20.8606 15.57V9.92C20.8606 8.82 20.0106 7.38 19.0506 6.84L13.7106 3.87C13.2506 3.63 12.6306 3.5 12.0006 3.5Z" fill="white"/>
</svg>
