<svg width="33" height="38" viewBox="0 0 33 38" fill="none" xmlns="http://www.w3.org/2000/svg">
<path d="M17.3984 37.9005C15.853 37.4874 14.3068 37.0789 12.7629 36.6596C11.5909 36.3419 10.4181 36.0264 9.25539 35.6795C8.51 35.4571 7.81851 35.5018 7.15398 35.9103C6.99895 36.0061 6.83766 36.0915 6.67118 36.1657C6.32852 36.3196 6.06209 36.4811 6.10444 36.9573C6.13832 37.342 5.83338 37.5728 5.4322 37.5659C3.84799 37.5325 2.26456 37.4915 0.681896 37.4428C0.213719 37.4281 -0.0111273 37.1666 0.000423167 36.6781C0.0517584 34.5609 0.109253 32.444 0.172909 30.3273C0.20987 28.9887 0.24991 27.6509 0.286871 26.3122C0.302272 25.7206 0.532514 25.4998 1.11774 25.5168C2.59157 25.5588 4.0654 25.5975 5.53923 25.6329C6.21917 25.6491 6.42862 25.8637 6.41245 26.5461C6.40706 26.7715 6.41245 26.9969 6.41245 27.2331C6.91066 27.0546 7.37961 26.8577 7.86472 26.7177C9.92301 26.1238 11.9089 26.3415 13.8063 27.3224C14.4931 27.6778 15.1923 27.9878 15.9716 28.0317C16.8101 28.0786 17.6518 28.0855 18.4919 28.1086C19.3443 28.1348 20.2037 28.1086 21.0476 28.204C22.349 28.3579 23.3284 29.0549 24.0107 30.2081C24.13 30.1581 24.2502 30.1127 24.3664 30.0542C25.8834 29.3395 27.3942 28.611 28.9181 27.9101C29.5807 27.6019 30.3312 27.5385 31.0362 27.7312C31.7412 27.9239 32.3549 28.3602 32.7682 28.9625C33.1309 29.488 33.0762 29.8042 32.5457 30.145C29.0836 32.3919 25.6206 34.6345 22.1565 36.8727C21.321 37.4112 20.3915 37.6666 19.4259 37.8259C19.3338 37.8467 19.2428 37.8723 19.1533 37.9028L17.3984 37.9005ZM6.19915 35.0033C6.40244 34.8986 6.55414 34.8263 6.70121 34.7448C7.57596 34.2601 8.48921 34.1693 9.45021 34.4447C10.7454 34.8148 12.0406 35.1848 13.3419 35.5325C14.7596 35.9118 16.1695 36.3519 17.6102 36.605C18.9099 36.8457 20.2526 36.5878 21.3703 35.8826C24.6475 33.8054 27.8955 31.679 31.155 29.5742C31.2513 29.5118 31.3406 29.4388 31.4576 29.3534C30.7777 28.8233 30.0808 28.7494 29.3447 29.0941C27.7707 29.8296 26.2022 30.5758 24.6321 31.3197C24.5616 31.3557 24.493 31.3953 24.4265 31.4382C24.4465 31.5813 24.4712 31.7006 24.4796 31.8229C24.5351 32.5922 24.3256 32.8099 23.5556 32.7915C22.4349 32.7663 21.3146 32.7407 20.1944 32.7145C19.0124 32.6853 17.8312 32.6614 16.6523 32.6191C16.1903 32.603 15.9223 32.3306 15.9446 31.9544C15.967 31.5782 16.2596 31.3559 16.7224 31.369C17.6602 31.3959 18.5974 31.4375 19.5353 31.4459C20.7396 31.4598 21.9447 31.4459 23.139 31.4459C22.9927 30.405 21.8869 29.4565 20.6942 29.4234C19.5738 29.3926 18.4526 29.3711 17.3322 29.3349C16.7362 29.3149 16.1395 29.2934 15.5458 29.2349C14.6071 29.1426 13.7986 28.6825 12.9569 28.3002C10.7931 27.3154 8.66247 27.4201 6.60342 28.6217C6.53512 28.6701 6.4779 28.7325 6.43555 28.8046C6.3932 28.8768 6.36669 28.9571 6.35777 29.0403C6.29309 30.7789 6.24997 32.5191 6.20377 34.2585C6.19376 34.4878 6.19915 34.7178 6.19915 35.0033ZM1.522 26.8446C1.43653 29.9427 1.35028 33.0599 1.2625 36.238H4.88702C4.97249 33.1315 5.05719 30.015 5.14421 26.8446H1.522Z" fill="#2C2753"/>
<path d="M16.8676 26.4669C15.6906 26.4638 14.5258 26.2281 13.4403 25.7733C12.3549 25.3184 11.3702 24.6536 10.5431 23.8169C9.71596 22.9802 9.06271 21.9883 8.62095 20.8983C8.1792 19.8083 7.95769 18.6418 7.96917 17.4658C7.99767 12.6114 12.0503 8.6279 16.9231 8.6679C18.097 8.67161 19.2585 8.90706 20.3411 9.36071C21.4236 9.81437 22.4057 10.4773 23.2309 11.3114C24.0562 12.1454 24.7083 13.1342 25.1499 14.2209C25.5914 15.3076 25.8137 16.4708 25.8038 17.6436C25.7745 22.5095 21.7404 26.4923 16.8676 26.4669ZM16.893 25.2098C21.1282 25.2098 24.5617 21.784 24.5633 17.5643C24.5608 15.5347 23.7524 13.589 22.3155 12.1543C20.8786 10.7196 18.9307 9.91311 16.8992 9.91189C12.6517 9.90805 9.19891 13.3492 9.20815 17.5774C9.21739 21.8056 12.6586 25.2137 16.893 25.2067V25.2098Z" fill="#2C2753"/>
<path d="M17.5125 4.00427C17.5125 4.96515 17.5218 5.92757 17.5079 6.88691C17.5018 7.29542 17.2338 7.56391 16.8919 7.56699C16.55 7.57006 16.2921 7.30234 16.2589 6.89614C16.252 6.81152 16.2589 6.72612 16.2589 6.64073V1.42243C16.2589 1.36165 16.2589 1.30088 16.2589 1.2401C16.2751 0.76543 16.4977 0.502323 16.8842 0.500015C17.2708 0.497707 17.511 0.756968 17.5164 1.23087C17.5256 2.15405 17.5164 3.07724 17.5164 4.00042L17.5125 4.00427Z" fill="#2C2753"/>
<path d="M22.116 5.58909C22.116 6.00222 22.1245 6.41611 22.116 6.82924C22.1044 7.28468 21.8449 7.57471 21.4776 7.56548C21.1103 7.55625 20.8662 7.27698 20.8616 6.84232C20.8508 5.98017 20.8508 5.11725 20.8616 4.25356C20.8685 3.81581 21.1242 3.56117 21.5 3.56655C21.8634 3.57194 22.0975 3.81273 22.116 4.23971C22.1306 4.69053 22.116 5.14058 22.116 5.58909Z" fill="#2C2753"/>
<path d="M12.9086 5.57522C12.9086 6.00065 12.9186 6.42685 12.9086 6.85152C12.8986 7.27618 12.6406 7.56391 12.2848 7.56698C11.9291 7.57006 11.6619 7.2908 11.6557 6.85921C11.6434 5.99604 11.6434 5.13286 11.6557 4.26968C11.6619 3.82271 11.9029 3.5696 12.2779 3.56806C12.6529 3.56652 12.8939 3.81886 12.9086 4.26045C12.9232 4.70204 12.9086 5.13747 12.9086 5.57522Z" fill="#2C2753"/>
<path d="M14.2569 19.7246C14.2569 19.1991 14.4764 18.9299 14.8337 18.9091C15.2187 18.8868 15.4574 19.1214 15.4967 19.5638C15.5606 20.287 16.0788 20.8439 16.7287 20.8855C17.518 20.9363 18.1078 20.4916 18.2588 19.7315C18.3796 19.1214 17.99 18.446 17.3648 18.2336C17.1316 18.1674 16.8915 18.1282 16.6494 18.1167C15.4173 17.9959 14.471 17.1012 14.2746 15.8587C14.1006 14.7586 14.7366 13.5816 15.8008 13.1323C16.1242 12.9961 16.1858 12.8246 16.1858 12.5168C16.1797 11.9298 16.6425 11.5767 17.0714 11.846C17.2446 11.9552 17.4156 12.2306 17.4133 12.4245C17.4079 12.8238 17.5673 12.963 17.9199 13.1077C18.8648 13.4923 19.3714 14.2516 19.507 15.2541C19.5301 15.4101 19.5172 15.5693 19.4692 15.7195C19.4316 15.8504 19.3479 15.9633 19.2336 16.0375C19.1193 16.1117 18.9821 16.1422 18.8471 16.1234C18.5337 16.0934 18.3419 15.9049 18.2842 15.5918C18.2557 15.4379 18.2526 15.2764 18.2072 15.1264C18.0123 14.434 17.3709 14.0432 16.6248 14.1555C15.9772 14.2524 15.4697 14.8917 15.4959 15.5656C15.5102 15.9031 15.6485 16.2234 15.8843 16.4653C16.1201 16.7073 16.4369 16.854 16.7741 16.8773C18.2464 16.9935 19.1851 17.7236 19.45 18.9706C19.5915 19.5936 19.4966 20.2468 19.1836 20.8038C18.8707 21.3608 18.3619 21.7819 17.7559 21.9856C17.4987 22.0749 17.3986 22.1895 17.431 22.4472C17.4385 22.5319 17.4349 22.6173 17.4202 22.7011C17.374 23.0473 17.1414 23.2735 16.8265 23.285C16.5116 23.2965 16.1789 23.0696 16.2105 22.7465C16.2675 22.1695 15.9417 21.9848 15.5175 21.7464C14.7051 21.2909 14.3247 20.5324 14.2569 19.7246Z" fill="#2C2753"/>
</svg>
