<svg width="33" height="36" viewBox="0 0 33 36" fill="none" xmlns="http://www.w3.org/2000/svg">
<path d="M7.43503 31.3201C8.18496 27.4463 10.7898 25.0568 13.7386 24.0688C12.1791 22.8788 11.4355 21.3286 11.6518 19.394C11.7944 18.1163 12.4009 17.05 13.4016 16.2412C15.4555 14.5807 18.3048 14.7811 20.0899 16.6906C20.7322 17.3679 21.1602 18.2196 21.3202 19.1388C21.4925 20.0684 21.3885 21.0282 21.0209 21.8994C20.6565 22.7762 20.0609 23.4652 19.2742 24.061C22.7503 25.3246 24.8309 27.7407 25.5895 31.4266C26.1701 30.8183 26.7336 30.2883 27.228 29.7042C29.5131 26.9859 30.5914 23.8324 30.5452 20.2928C30.5373 19.6602 30.437 19.0284 30.3594 18.399C30.3069 17.977 30.4911 17.6427 30.8476 17.5816C31.2222 17.5166 31.5443 17.7272 31.5788 18.1711C31.6673 19.3212 31.8091 20.4815 31.7449 21.6269C31.5922 24.6425 30.5124 27.5378 28.6527 29.9179C26.2532 33.0284 23.0936 34.9137 19.2389 35.6473C18.9294 35.706 18.6245 35.7138 18.4223 35.3999C18.1661 35.0037 18.4004 34.5387 18.9192 34.4447C20.5726 34.1527 22.1383 33.6109 23.5787 32.7482C24.5848 32.1453 24.5096 32.453 24.2463 31.2144C23.541 27.8706 21.0679 25.5101 17.6889 24.9997C15.635 24.6748 13.536 25.1772 11.8524 26.3966C10.1688 27.616 9.03815 29.4529 8.70843 31.5041C8.55954 32.4311 8.51879 32.1892 9.26402 32.648C10.7271 33.5483 12.3241 34.1136 14.0105 34.433C14.5434 34.534 14.7589 34.8064 14.6703 35.2159C14.5919 35.5706 14.2785 35.7358 13.784 35.6457C11.2764 35.1862 9.00386 34.1958 7.00951 32.6041C3.91651 30.1348 2.06479 26.9272 1.41202 23.0338C1.15565 21.4497 1.15432 19.8348 1.4081 18.2502C1.48647 17.7546 1.76231 17.515 2.15804 17.5777C2.53967 17.6387 2.70188 17.9746 2.63763 18.4624C1.97389 23.5153 3.49962 27.779 7.27987 31.2152C7.32919 31.2536 7.38102 31.2887 7.43503 31.3201ZM20.1714 20.0164C20.1714 18.0208 18.4976 16.3485 16.5009 16.3532C14.5042 16.3579 12.8609 18.0051 12.8437 19.9922C12.8264 21.9792 14.494 23.6648 16.4954 23.6719C18.4968 23.6789 20.1683 22.0137 20.1706 20.0164H20.1714Z" fill="#2C2753"/>
<path d="M12.7812 8.78559C12.7155 8.68418 12.6419 8.58811 12.561 8.49827C11.7429 7.69656 10.9222 6.89852 10.0988 6.10412C9.87235 5.88804 9.707 5.65551 9.81122 5.3353C9.91545 5.01509 10.1811 4.93367 10.4961 4.89061C11.641 4.73403 12.7804 4.54378 13.9253 4.39267C14.1557 4.36292 14.2529 4.26193 14.3422 4.07951C14.8422 3.05389 15.3546 2.03376 15.8507 1.00658C15.9878 0.721599 16.1641 0.503167 16.4972 0.500035C16.8302 0.496903 17.0136 0.703593 17.1531 0.992487C17.6483 2.02045 18.1632 3.0398 18.6608 4.06698C18.6957 4.1589 18.7567 4.23863 18.8363 4.29635C18.916 4.35408 19.0107 4.38729 19.109 4.39189C20.279 4.54848 21.4474 4.71445 22.6103 4.91957C22.847 4.97714 23.0521 5.12421 23.1824 5.32982C23.3289 5.57644 23.1894 5.83636 22.9778 6.03992C22.1354 6.85258 21.304 7.67543 20.4569 8.48261C20.2782 8.6525 20.2335 8.8083 20.2782 9.05022C20.4851 10.1847 20.6638 11.3246 20.8667 12.4606C20.9208 12.7636 20.8926 13.0243 20.6316 13.2051C20.3707 13.386 20.1066 13.3108 19.8433 13.1715C18.8449 12.6414 17.838 12.1286 16.8451 11.5892C16.6045 11.4585 16.422 11.4522 16.1798 11.5837C15.1862 12.1216 14.1792 12.6336 13.1824 13.1644C12.905 13.3124 12.6339 13.3922 12.3627 13.1918C12.1026 13.0008 12.0947 12.7354 12.148 12.4379C12.3478 11.3144 12.532 10.1886 12.7232 9.06353C12.735 8.98602 12.7538 8.91478 12.7812 8.78559ZM16.5129 2.50821C16.4094 2.70237 16.342 2.82137 16.2817 2.94351C15.9322 3.64813 15.5764 4.35275 15.2387 5.05737C15.107 5.32982 14.9252 5.49971 14.6118 5.53729C14.1416 5.59366 13.6816 5.67195 13.2177 5.74163L11.9082 5.94049C12.5242 6.60127 13.137 7.28005 13.7748 7.93379C14.0248 8.18902 14.1126 8.45677 14.0397 8.79499C14.0029 8.96801 13.9708 9.1426 13.9418 9.31797C13.8195 10.0398 13.6988 10.7617 13.5648 11.5618C14.4119 11.1187 15.1964 10.7335 15.9549 10.3029C16.342 10.0844 16.6664 10.0774 17.052 10.2958C17.8129 10.7241 18.5965 11.1124 19.4029 11.5336C19.4114 11.4213 19.4114 11.3085 19.4029 11.1962C19.2681 10.4094 19.138 9.62096 18.9852 8.83727C18.9131 8.46695 18.9758 8.17179 19.2689 7.91421C19.5823 7.63785 19.8786 7.33799 20.174 7.03892C20.518 6.69131 20.8526 6.3343 21.2186 5.95224C20.384 5.82932 19.5729 5.67978 18.7548 5.60071C18.2165 5.54825 17.8732 5.3447 17.6523 4.83345C17.3169 4.06855 16.9156 3.33105 16.5129 2.50821Z" fill="#2C2753"/>
<path d="M5.51722 5.23663C5.7672 5.47777 6.00307 5.61948 6.11513 5.82852C6.53359 6.61143 6.916 7.41156 7.30077 8.2117C7.33455 8.29744 7.39283 8.37137 7.46835 8.42426C7.54387 8.47716 7.63329 8.5067 7.72549 8.50921C8.60708 8.61568 9.48788 8.7339 10.3601 8.90066C10.6087 8.96418 10.8245 9.11835 10.965 9.33283C11.1163 9.5771 10.965 9.83937 10.7558 10.0421C10.1242 10.6505 9.50199 11.2705 8.86725 11.8742C8.6831 12.0488 8.62197 12.2061 8.67369 12.4707C8.84688 13.3406 8.99812 14.2159 9.11331 15.0943C9.13917 15.2978 9.03494 15.564 8.90251 15.7308C8.72698 15.9508 8.45114 15.9226 8.20352 15.7926C7.40656 15.373 6.60646 14.9588 5.81421 14.529C5.60576 14.4155 5.44042 14.3998 5.22179 14.5204C4.46715 14.9377 3.69683 15.3276 2.93514 15.7331C2.66322 15.878 2.39679 15.9719 2.12017 15.7543C1.84355 15.5366 1.85138 15.2759 1.91015 14.9643C2.06688 14.118 2.21655 13.2685 2.3388 12.4159C2.3467 12.3281 2.3369 12.2395 2.30999 12.1554C2.28307 12.0714 2.23957 11.9936 2.18207 11.9266C1.57084 11.3003 0.938446 10.6904 0.301352 10.0836C0.0725313 9.86521 -0.075572 9.62564 0.0404057 9.30856C0.149331 9.00949 0.408711 8.9171 0.704141 8.87874C1.5967 8.75661 2.48926 8.63291 3.3779 8.48729C3.445 8.46687 3.50732 8.4332 3.56116 8.38828C3.615 8.34337 3.65927 8.28811 3.69135 8.22579C4.10276 7.42566 4.47968 6.60751 4.90441 5.81521C5.02039 5.60773 5.26332 5.47151 5.51722 5.23663ZM8.99811 9.94663C8.40255 9.86286 7.82266 9.76735 7.24669 9.70471C6.80081 9.65696 6.50538 9.46984 6.3228 9.03924C6.09397 8.49825 5.80559 7.98153 5.50703 7.38416C5.22022 7.96508 4.94203 8.46145 4.7234 8.98287C4.52279 9.46827 4.18817 9.67183 3.67959 9.71568C3.124 9.76343 2.57311 9.87226 1.99165 9.95603C2.34351 10.3146 2.62248 10.6724 2.97198 10.9378C3.61299 11.424 3.79244 11.9963 3.54873 12.762C3.41943 13.1691 3.40611 13.613 3.32853 14.118C3.96484 13.7853 4.51965 13.5089 5.06035 13.2075C5.19413 13.1218 5.3497 13.0763 5.5086 13.0763C5.6675 13.0763 5.82306 13.1218 5.95684 13.2075C6.21935 13.3601 6.49519 13.4909 6.76476 13.6318L7.69807 14.1203C7.57582 13.4157 7.48178 12.816 7.36659 12.221C7.29841 11.8679 7.36659 11.5892 7.64008 11.3308C8.10242 10.8979 8.53185 10.4297 9.00203 9.94663H8.99811Z" fill="#2C2753"/>
<path d="M32.9995 9.66091C32.9155 9.81004 32.8159 9.94991 32.7025 10.0782C32.0835 10.6991 31.4432 11.2995 30.8289 11.9251C30.7725 11.9855 30.7288 12.0567 30.7004 12.1342C30.672 12.2118 30.6595 12.2943 30.6635 12.3768C30.7967 13.2795 30.9832 14.1775 31.1024 15.0779C31.1306 15.29 31.0193 15.5695 30.8798 15.7426C30.7027 15.9618 30.4237 15.9117 30.1745 15.7825C29.3784 15.3613 28.5767 14.9495 27.786 14.5181C27.7034 14.4635 27.6068 14.4341 27.5077 14.4332C27.4087 14.4324 27.3116 14.4602 27.2281 14.5134C26.4711 14.9276 25.7016 15.319 24.9406 15.7238C24.6711 15.8671 24.4046 15.9767 24.1241 15.7637C23.8561 15.5602 23.8373 15.294 23.8984 14.9808C24.0635 14.1227 24.2093 13.2615 24.3357 12.3972C24.3428 12.3148 24.3333 12.2318 24.3077 12.1531C24.2822 12.0744 24.241 12.0017 24.1868 11.9392C23.574 11.3129 22.9424 10.703 22.3061 10.097C22.0788 9.88013 21.9182 9.64447 22.0271 9.32582C22.136 9.00718 22.4087 8.91949 22.7183 8.878C23.6108 8.759 24.5034 8.63373 25.392 8.48654C25.5072 8.46775 25.6357 8.32996 25.6961 8.20939C26.078 7.46562 26.4489 6.71612 26.8088 5.96087C26.953 5.66023 27.1113 5.38934 27.4882 5.38465C27.8652 5.37995 28.0368 5.64066 28.1786 5.94443C28.5336 6.68819 28.9066 7.42256 29.2639 8.16555C29.3635 8.37224 29.4732 8.48576 29.7341 8.51551C30.6165 8.61494 31.4934 8.75821 32.3718 8.89053C32.7817 8.94846 33.005 9.18568 32.9995 9.66091ZM30.9864 9.9545C30.4849 9.87621 29.9896 9.74468 29.4912 9.73372C28.8079 9.71885 28.4255 9.4049 28.1896 8.78718C28.0141 8.32448 27.7562 7.89231 27.5031 7.38264C27.1756 8.04263 26.8848 8.61807 26.6035 9.19821C26.4781 9.45735 26.2971 9.61394 25.9993 9.65465C25.3395 9.7439 24.6828 9.85272 24.0403 9.95059C24.4658 10.3976 24.867 10.8549 25.3074 11.2706C25.6208 11.565 25.7172 11.8695 25.6248 12.2884C25.4978 12.8654 25.4257 13.4533 25.316 14.1212C25.921 13.8041 26.4554 13.5465 26.9671 13.2482C27.3386 13.0321 27.6669 13.0321 28.0376 13.2482C28.5493 13.5434 29.0829 13.8033 29.6902 14.1219C29.5735 13.4369 29.4857 12.838 29.3674 12.243C29.2937 11.8734 29.3674 11.5869 29.6479 11.3191C30.1079 10.8885 30.5334 10.4211 30.9864 9.9545Z" fill="#2C2753"/>
<path d="M17.1147 35.2918C17.1146 35.3741 17.0975 35.4554 17.0646 35.5307C17.0316 35.606 16.9834 35.6737 16.923 35.7296C16.8626 35.7854 16.7913 35.8282 16.7136 35.8553C16.6359 35.8824 16.5534 35.8931 16.4713 35.8868C16.3921 35.8844 16.3141 35.8661 16.242 35.8331C16.1699 35.8001 16.1052 35.753 16.0515 35.6947C15.9979 35.6364 15.9564 35.5679 15.9296 35.4933C15.9028 35.4188 15.8912 35.3396 15.8954 35.2605C15.8952 35.1783 15.9121 35.0969 15.9451 35.0215C15.978 34.9461 16.0262 34.8783 16.0866 34.8225C16.1471 34.7666 16.2185 34.7239 16.2963 34.697C16.3741 34.6702 16.4567 34.6597 16.5387 34.6663C16.618 34.6687 16.6959 34.6869 16.768 34.7198C16.8401 34.7527 16.9049 34.7997 16.9585 34.8579C17.0122 34.9162 17.0536 34.9846 17.0804 35.0591C17.1073 35.1336 17.1189 35.2128 17.1147 35.2918Z" fill="#2C2753"/>
</svg>
