<svg width="33" height="33" viewBox="0 0 33 33" fill="none" xmlns="http://www.w3.org/2000/svg">
<path d="M0 28.4381V27.2151C0.0247302 27.1454 0.0457125 27.0745 0.0628495 27.0026C0.416681 25.1104 1.50314 23.8202 3.28262 23.1012C3.466 23.0263 3.65884 22.973 3.86373 22.9042C2.10319 21.5065 1.31632 19.7373 1.85783 17.556C2.40795 15.3378 3.95327 14.1276 6.20281 13.7285V13.3845C6.20281 12.0427 6.19334 10.7018 6.20969 9.36088C6.20969 9.07791 6.13307 8.95147 5.86017 8.8603C4.3576 8.35628 2.86021 7.8382 1.36798 7.30608C1.12586 7.22595 0.90911 7.08356 0.739518 6.89322C0.295292 6.33587 0.567338 5.56951 1.27328 5.3218C3.55754 4.52534 5.84324 3.73289 8.13037 2.94446C8.51433 2.81114 8.89657 2.67008 9.28656 2.55741C9.56119 2.47828 9.77039 2.59267 9.87542 2.86533C9.9684 3.10616 9.85906 3.34097 9.59476 3.4674C9.49712 3.5111 9.3971 3.54929 9.29517 3.5818L3.28865 5.65466C2.70754 5.85507 2.12816 6.06064 1.54791 6.26363V6.33673L6.17268 7.93654C6.20109 7.78688 6.22002 7.67851 6.24241 7.57873C6.35088 7.06267 6.67286 6.70572 7.17907 6.63261C8.91896 6.38834 10.6614 6.13719 12.4108 5.98495C14.4761 5.79458 16.5545 5.79084 18.6205 5.97377C20.4645 6.14579 22.3034 6.38834 24.1414 6.62229C24.6976 6.69282 25.0678 7.13062 25.1375 7.69227C25.1461 7.76194 25.1642 7.82989 25.1849 7.9374L29.8949 6.30749C29.7408 6.2404 29.6676 6.2017 29.5901 6.17503C25.1811 4.65034 20.7719 3.12479 16.3623 1.59838C15.9166 1.43802 15.4283 1.44138 14.9849 1.60784C13.938 1.98285 12.8817 2.3355 11.8314 2.70104C11.6093 2.77845 11.3863 2.78706 11.2468 2.59353C11.1607 2.47053 11.0919 2.24949 11.1444 2.13337C11.2301 1.96854 11.374 1.84135 11.5482 1.77643C12.5812 1.39884 13.6324 1.05565 14.6698 0.683225C15.3176 0.441616 16.0304 0.438872 16.68 0.675484C21.0763 2.20132 25.4744 3.72286 29.8742 5.24009C30.6611 5.51189 30.835 5.75616 30.8358 6.58186C30.8358 7.54777 30.8358 8.51282 30.8358 9.47872C30.8358 9.64644 30.8728 9.73675 31.0459 9.8133C32.2511 10.3294 32.6523 11.6419 31.9619 12.754C31.9318 12.8097 31.9132 12.8707 31.9072 12.9337C31.9011 12.9966 31.9077 13.0601 31.9266 13.1204C32.2357 13.9186 32.5714 14.7065 32.8839 15.5029C33.273 16.4972 32.6454 17.4227 31.5753 17.4356C30.8565 17.4442 30.1368 17.4279 29.4171 17.4408C28.9238 17.4494 28.4485 17.4236 28.0646 17.0176C27.6737 18.2329 27.6849 19.4001 28.1007 20.5578C28.1334 20.6438 28.2729 20.7143 28.3745 20.7642C28.6216 20.8838 28.9108 20.9414 29.1209 21.1083C29.6607 21.528 29.7545 22.1146 29.603 22.77L29.8725 22.7838C30.6921 22.8225 31.336 23.4306 31.3816 24.2167C31.429 24.9908 30.8737 25.6505 30.0756 25.8071C30.0167 25.8267 29.9627 25.8589 29.9174 25.9013C29.8721 25.9438 29.8365 25.9956 29.8131 26.0531C29.4183 27.1862 29.421 28.4198 29.8208 29.5511C29.8485 29.6132 29.8889 29.6688 29.9393 29.7144C29.9897 29.76 30.049 29.7946 30.1135 29.816C30.9469 30.0362 31.472 30.7097 31.3773 31.4718C31.2757 32.288 30.643 32.8187 29.7692 32.8187H4.98377C3.941 32.8168 2.92498 32.4889 2.07826 31.8808C1.23155 31.2727 0.596619 30.415 0.262574 29.4281C0.155822 29.1022 0.0869512 28.7676 0 28.4381ZM20.2433 25.8019H5.23601C5.14992 25.8019 5.06383 25.8019 4.97774 25.8019C3.64334 25.8767 2.75575 27.0697 3.09322 28.3341C3.32653 29.2105 4.1177 29.7911 5.09138 29.7911H23.779C23.897 29.7862 24.0151 29.7882 24.1328 29.7971C24.257 29.809 24.3725 29.8659 24.4577 29.957C24.5428 30.0481 24.5917 30.1671 24.5951 30.2917C24.5951 30.5446 24.4006 30.7398 24.1208 30.7665C24.0037 30.7776 23.8849 30.7733 23.7669 30.7733H5.30488C5.12237 30.7733 4.93986 30.7676 4.75735 30.7561C3.02005 30.6486 1.71578 28.9043 2.09974 27.203C2.42172 25.7744 3.59169 24.8317 5.06039 24.8308C13.2235 24.8308 21.386 24.8308 29.5479 24.8308C29.6555 24.8308 29.7631 24.8377 29.8699 24.8308C30.0057 24.8269 30.1348 24.7713 30.2308 24.6754C30.3269 24.5794 30.3825 24.4504 30.3864 24.3148C30.3942 24.0266 30.2065 23.8176 29.8966 23.7832C29.7683 23.7726 29.6396 23.7689 29.5109 23.772H5.31091C5.10688 23.772 4.90284 23.7798 4.69967 23.7927C2.29517 23.9406 0.522569 26.3137 1.06666 28.6532C1.51519 30.5807 3.12078 31.8519 5.11979 31.8519C13.2921 31.8519 21.4652 31.8519 29.6392 31.8519C29.7037 31.8519 29.7683 31.8519 29.832 31.8519C30.1574 31.8278 30.3727 31.6249 30.3839 31.3359C30.395 31.0469 30.1996 30.8293 29.8673 30.7914C29.7602 30.7822 29.6527 30.7791 29.5453 30.7819C28.5036 30.7819 27.4619 30.7819 26.4203 30.7819C26.0759 30.7819 25.8572 30.5729 25.8632 30.29C25.8693 30.007 26.0974 29.8066 26.4349 29.804C27.1116 29.798 27.7882 29.804 28.4649 29.804H28.7593C28.6836 29.1082 28.557 28.4519 28.557 27.7956C28.557 27.1394 28.6818 26.4857 28.7516 25.832H24.1991V26.2027C24.1991 26.9218 24.2034 27.6408 24.1991 28.359C24.194 28.9233 23.9081 29.1176 23.3907 28.9198C23.0808 28.802 22.7769 28.6618 22.4601 28.5697C22.3023 28.5242 22.1349 28.5242 21.9771 28.5697C21.6405 28.6738 21.3194 28.8278 20.9871 28.9456C20.5696 29.097 20.2588 28.8845 20.2476 28.4381C20.2364 27.9917 20.2476 27.5582 20.2476 27.1179L20.2433 25.8019ZM8.47989 16.7707C7.81011 16.7707 7.19801 16.7475 6.58591 16.7707C6.28526 16.7871 5.99238 16.8721 5.7298 17.0193C5.46721 17.1665 5.24193 17.3719 5.07129 17.6197C4.90065 17.8675 4.7892 18.1512 4.74552 18.4488C4.70184 18.7464 4.72709 19.0501 4.81934 19.3365C5.09397 20.206 5.81799 20.7255 6.79942 20.7307C8.06666 20.7384 9.33391 20.7307 10.6012 20.7359C10.9662 20.7359 11.1969 20.9466 11.1943 21.2347C11.1917 21.5229 10.9619 21.7258 10.627 21.7267C9.29517 21.7267 7.95819 21.7628 6.63154 21.7172C6.17397 21.704 5.72564 21.5854 5.32151 21.3706C4.91739 21.1558 4.56838 20.8507 4.30172 20.479C4.03507 20.1072 3.85797 19.679 3.78424 19.2276C3.7105 18.7763 3.74213 18.314 3.87665 17.8768C4.26319 16.5867 5.43316 15.7618 6.88981 15.7618C13.6886 15.7618 20.4872 15.7618 27.2855 15.7618C27.3818 15.7687 27.4786 15.767 27.5747 15.7567C27.6087 15.7521 27.6414 15.7409 27.6709 15.7236C27.7005 15.7064 27.7263 15.6834 27.7469 15.656C27.8735 15.355 27.9837 15.0479 28.1102 14.7151H27.7822C20.7802 14.7151 13.7782 14.7151 6.77617 14.7151C6.50851 14.7163 6.24136 14.7387 5.97725 14.7822C3.85168 15.1262 2.32874 17.3436 2.75661 19.456C3.1621 21.4583 4.75649 22.7726 6.79425 22.7735C13.8617 22.7735 20.9286 22.7735 27.9948 22.7735C28.081 22.7793 28.1675 22.7764 28.2531 22.7649C28.5295 22.7089 28.6879 22.5369 28.6879 22.2488C28.6977 22.1237 28.6582 21.9996 28.5778 21.9032C28.4974 21.8068 28.3824 21.7456 28.2574 21.7327C28.1291 21.7181 27.9998 21.7146 27.8709 21.7224H13.2312C13.1133 21.7302 12.995 21.725 12.8783 21.7069C12.62 21.6493 12.4564 21.4755 12.4667 21.2081C12.4646 21.093 12.5064 20.9815 12.5837 20.8962C12.6609 20.8109 12.7678 20.7581 12.8826 20.7488C13.0208 20.732 13.16 20.7251 13.2992 20.7281C17.7461 20.7281 22.1941 20.7281 26.6432 20.7281H27.0212C26.9463 20.0486 26.8197 19.4044 26.8197 18.7593C26.8197 18.1142 26.9437 17.4468 27.0151 16.7811H12.4306V17.0262C12.4306 17.7771 12.4306 18.5279 12.4306 19.2797C12.4306 19.8112 12.125 20.0202 11.636 19.8345C11.3157 19.7132 11.0023 19.5713 10.6761 19.4698C10.5286 19.4259 10.3715 19.4259 10.2241 19.4698C9.85734 19.5859 9.50523 19.7476 9.14107 19.8723C8.8122 19.9841 8.53844 19.8044 8.49453 19.4612C8.47989 19.2795 8.47558 19.0971 8.48162 18.915C8.47904 18.2183 8.47989 17.5104 8.47989 16.7699V16.7707ZM7.22212 13.7027H24.1569V12.0814H23.8272C23.0007 12.0814 22.174 12.0814 21.347 12.0814C20.9535 12.0814 20.7159 11.8974 20.7116 11.5972C20.7073 11.297 20.9363 11.1078 21.3358 11.106C22.1631 11.1017 22.9896 11.106 23.8169 11.106H24.1733C24.1733 9.99393 24.1733 8.93255 24.1733 7.87031C24.1733 7.64324 24.0252 7.6011 23.8384 7.56669C21.7276 7.18207 19.5914 6.9521 17.4471 6.8786C14.132 6.75286 10.8131 6.98152 7.54668 7.56067C7.28841 7.60712 7.20232 7.70947 7.20232 7.95804C7.21093 8.71924 7.20232 9.4813 7.20232 10.2434V11.1035H18.6076C18.7367 11.1035 18.8658 11.1035 18.9941 11.1138C19.0539 11.1149 19.1128 11.1279 19.1674 11.1522C19.222 11.1765 19.2712 11.2115 19.312 11.2552C19.3528 11.2988 19.3844 11.3502 19.4049 11.4063C19.4254 11.4624 19.4345 11.522 19.4314 11.5817C19.4375 11.8457 19.2782 12.0229 19.0113 12.072C18.9045 12.0845 18.7967 12.087 18.6893 12.0797H7.22212V13.7027ZM25.1539 13.7277C26.2033 13.7277 27.2002 13.7328 28.1963 13.7216C28.3246 13.7216 28.5407 13.664 28.5622 13.5849C28.6483 13.3122 28.9625 13.0688 28.7283 12.7334C28.4713 12.3708 28.3547 11.9273 28.4003 11.4854C28.4864 10.5883 29.003 10.0292 29.8329 9.72643V7.39639C29.7878 7.40095 29.7432 7.409 29.6994 7.42047C28.254 7.91934 26.8111 8.42422 25.3631 8.91621C25.1788 8.97814 25.1461 9.07619 25.147 9.24563C25.153 10.264 25.147 11.2832 25.147 12.3016L25.1539 13.7277ZM31.039 13.5556H29.6529C29.3499 14.3014 29.0167 15.097 28.7059 15.8994C28.594 16.1841 28.7585 16.4499 29.0503 16.4542C29.917 16.468 30.7842 16.468 31.652 16.4542C31.7117 16.4557 31.7709 16.4425 31.8245 16.416C31.878 16.3894 31.9243 16.3502 31.9592 16.3017C31.9942 16.2532 32.0167 16.197 32.025 16.1378C32.0333 16.0787 32.027 16.0184 32.0067 15.9622C31.6812 15.1425 31.3438 14.3263 31.0347 13.5599L31.039 13.5556ZM21.2591 27.8266C21.9151 27.3621 22.5436 27.3966 23.1858 27.8111V25.8191H21.2591V27.8266ZM9.49232 16.7811V18.7542C10.1397 18.2759 10.7665 18.3189 11.4173 18.7335V16.7811H9.49232ZM30.3322 10.6622C30.2037 10.6627 30.0766 10.689 29.9585 10.7396C29.8404 10.7901 29.7337 10.8639 29.6447 10.9565C29.5557 11.0491 29.4862 11.1587 29.4405 11.2786C29.3947 11.3986 29.3736 11.5265 29.3783 11.6548C29.3776 11.7804 29.4018 11.9049 29.4495 12.0212C29.4972 12.1374 29.5675 12.243 29.6562 12.332C29.745 12.421 29.8505 12.4916 29.9666 12.5396C30.0828 12.5877 30.2073 12.6123 30.3331 12.6121C30.4619 12.613 30.5896 12.5885 30.7089 12.5399C30.8282 12.4913 30.9367 12.4196 31.0281 12.3289C31.1196 12.2383 31.1922 12.1304 31.2418 12.0117C31.2914 11.8929 31.317 11.7654 31.3171 11.6367C31.3148 11.3773 31.21 11.1294 31.0255 10.9468C30.841 10.7643 30.5918 10.662 30.3322 10.6622Z" fill="#2C2753"/>
</svg>
