<svg width="32" height="34" viewBox="0 0 32 34" fill="none" xmlns="http://www.w3.org/2000/svg">
<path d="M9.98217 24.1109C9.19655 23.3122 8.51663 22.4805 8.21131 21.4092C7.90598 20.3379 8.07156 19.2831 8.52249 18.2376H6.28191C5.46694 18.2376 4.65315 18.2447 3.83935 18.2376C3.75161 18.2243 3.66193 18.2409 3.58479 18.2848C3.50765 18.3287 3.44757 18.3973 3.41424 18.4796C3.23932 18.8448 2.94169 19.1368 2.57334 19.3047C2.205 19.4726 1.78938 19.5057 1.39913 19.3982C1.02574 19.2985 0.69512 19.0795 0.457514 18.7746C0.219908 18.4697 0.0883088 18.0956 0.0827218 17.709C0.0714235 17.3054 0.19905 16.9102 0.44424 16.5894C0.689429 16.2687 1.03731 16.0419 1.42966 15.947C1.81604 15.8488 2.22436 15.8852 2.58727 16.0503C2.95018 16.2154 3.24602 16.4992 3.42599 16.8551C3.52463 17.0618 3.64441 17.1017 3.84756 17.1017C5.54444 17.0947 7.24133 17.1017 8.9382 17.1017C9.3727 17.1017 9.39031 17.0841 9.39031 16.6601C9.39031 15.4674 9.39031 14.2751 9.39031 13.0832C9.39031 12.2974 9.56176 11.9626 10.2065 11.5033C10.1407 11.4281 10.0808 11.3506 10.0127 11.2813C9.12961 10.3968 8.24301 9.51931 7.36462 8.62656C7.20609 8.46681 7.08514 8.40103 6.84089 8.49265C6.11986 8.76283 5.27436 8.45742 4.84456 7.8184C4.63244 7.48903 4.5296 7.10112 4.55069 6.70989C4.57177 6.31866 4.7157 5.94406 4.96199 5.63941C5.20349 5.35967 5.52892 5.16552 5.88975 5.08592C6.25058 5.00633 6.62747 5.04555 6.96419 5.19774C7.68287 5.51724 8.20191 6.30896 7.97057 7.02903C7.78738 7.60344 8.04455 7.85716 8.3757 8.18137C9.38091 9.17161 10.372 10.1783 11.3773 11.1638C11.53 11.2871 11.7152 11.3634 11.9104 11.3835C12.2345 11.4328 12.568 11.4328 12.9555 11.4575C13.3243 10.7938 13.9901 10.6517 14.7428 10.6963C15.33 10.7304 15.923 10.7433 16.543 10.768V10.5048C16.543 8.45272 16.543 6.39941 16.543 4.34728C16.543 4.10178 16.4832 3.96787 16.2483 3.84805C15.9118 3.66774 15.6438 3.38198 15.4854 3.03463C15.3269 2.68728 15.2868 2.29751 15.3711 1.92514C15.461 1.5423 15.6717 1.19856 15.972 0.944718C16.2723 0.690879 16.6462 0.540409 17.0386 0.515545C17.762 0.462685 18.5159 0.963089 18.7836 1.67258C19.0514 2.38208 18.8588 3.34412 18.1965 3.69065C17.6551 3.97374 17.6809 4.34023 17.6833 4.796C17.6903 6.83756 17.6833 8.87794 17.6833 10.9195V11.34C18.1436 11.34 18.5863 11.3565 19.0279 11.34C19.6045 11.3142 20.0848 11.4798 20.4558 11.9391C20.5039 11.998 20.5729 12.036 20.6484 12.0448C21.05 12.0507 21.4517 12.0448 21.8521 12.0319C21.9512 12.0195 22.0433 11.9744 22.114 11.9039C23.4957 10.5295 24.8728 9.15007 26.2452 7.76554C26.2802 7.71674 26.3038 7.66066 26.3142 7.60148C26.3246 7.54229 26.3215 7.48153 26.3051 7.42372C26.2153 7.17503 26.1807 6.90976 26.2038 6.64637C26.2269 6.38297 26.307 6.12776 26.4387 5.89848C26.5703 5.6692 26.7503 5.47135 26.9661 5.31869C27.182 5.16603 27.4284 5.06223 27.6884 5.01449C28.5926 4.84416 29.518 5.48435 29.7106 6.40529C29.8961 7.2992 29.3066 8.26712 28.4059 8.45037C28.0877 8.51497 27.7366 8.41395 27.4007 8.39986C27.2833 8.39986 27.1154 8.38224 27.0484 8.45037C25.8295 9.64734 24.6235 10.8561 23.3963 12.0801C24.0011 12.4325 24.1678 12.9599 24.1549 13.6071C24.1338 14.7524 24.1549 15.8965 24.1549 17.0724C24.2876 17.0794 24.398 17.0923 24.5072 17.0923C26.5035 17.0923 28.4999 17.0923 30.4962 17.0923C30.6958 17.0923 30.8191 17.0641 30.9178 16.8574C31.2701 16.0986 31.9993 15.7544 32.8213 15.9177C33.1891 15.9906 33.5237 16.1801 33.7754 16.4582C34.0271 16.7362 34.1825 17.0879 34.2188 17.4612C34.281 18.3116 33.8183 19.0434 33.0445 19.3171C32.6793 19.4445 32.2828 19.4503 31.9141 19.3336C31.5454 19.2169 31.2243 18.9841 30.9988 18.6699C30.8966 18.5207 30.8203 18.3539 30.7311 18.1942H24.1549C24.1549 18.7545 24.1491 19.2995 24.1549 19.8457C24.1566 20.2567 24.0527 20.6612 23.8531 21.0204C23.5642 21.5737 23.3834 22.1868 23.1814 22.7824C23.1591 22.8458 23.2272 22.968 23.2871 23.0314C24.553 24.3588 25.8248 25.6814 27.0719 26.9818C27.6297 26.7316 28.0536 26.6517 28.5057 26.7833C28.9552 26.9121 29.336 27.2125 29.5658 27.6198C29.7956 28.0271 29.8561 28.5084 29.7341 28.9599C29.67 29.1864 29.5611 29.3978 29.414 29.5815C29.2668 29.7653 29.0844 29.9177 28.8774 30.0297C28.6704 30.1417 28.443 30.2111 28.2088 30.2337C27.9745 30.2564 27.7381 30.2319 27.5135 30.1616C27.2908 30.0943 27.0839 29.9829 26.9051 29.8341C26.7263 29.6854 26.5791 29.5022 26.4723 29.2955C26.3656 29.0888 26.3014 28.8628 26.2835 28.6308C26.2657 28.3988 26.2946 28.1656 26.3685 27.945C26.4061 27.8275 26.4108 27.6267 26.3391 27.5538C25.186 26.3792 24.0175 25.2045 22.808 23.9946C22.4557 25.1951 21.8591 26.2582 21.8873 27.5186C21.9261 29.2806 21.8979 31.0508 21.8967 32.8163C21.8967 33.3496 21.7347 33.5117 21.2004 33.5117C18.6662 33.5117 16.132 33.5117 13.5979 33.5117C13.033 33.5117 12.8792 33.359 12.878 32.8069C12.878 31.489 12.8416 30.1686 12.8886 28.8518C12.932 27.5973 12.4846 26.5754 11.6274 25.6991C11.3573 25.4218 11.0895 25.1423 10.783 24.8263L8.0469 27.7136C8.05395 28.086 8.13967 28.5241 8.05277 28.9258C7.85901 29.8209 7.01468 30.3495 6.11046 30.2239C5.6931 30.1634 5.31128 29.9552 5.03438 29.637C4.75748 29.3189 4.60387 28.9119 4.60148 28.4901C4.59868 28.0554 4.75661 27.635 5.04492 27.3097C5.33322 26.9845 5.73154 26.7773 6.16331 26.7281C6.42518 26.7022 6.69762 26.8162 6.96771 26.8455C7.08893 26.8628 7.21226 26.8348 7.31413 26.7668C8.19956 25.8941 9.07325 25.0166 9.98217 24.1109ZM17.7491 16.6577C15.9124 16.6577 14.1087 16.6577 12.292 16.6577C12.1666 16.6667 12.0423 16.688 11.9209 16.7211C11.0946 16.8726 10.3563 17.3319 9.85509 18.0064C9.35386 18.6808 9.12692 19.5203 9.22003 20.3555C9.3222 21.4127 9.82598 22.2961 10.5118 23.0655C11.153 23.782 11.8552 24.4445 12.5163 25.1434C13.464 26.1454 13.9443 27.326 13.9044 28.7238C13.8727 29.8233 13.9044 30.9251 13.9044 32.0258V32.3923H20.7706V31.9976C20.7706 30.4846 20.7764 28.9717 20.7706 27.4575C20.7602 26.7123 20.8876 25.9716 21.1463 25.2727C21.4657 24.4163 21.7687 23.5541 22.0776 22.6943C22.222 22.2914 22.3618 21.8873 22.5179 21.4444H21.0911C20.5287 21.4444 20.1012 21.2271 19.8217 20.7185C19.7825 20.665 19.7322 20.6206 19.6742 20.5884C19.6162 20.5562 19.552 20.5368 19.4859 20.5317C18.9363 20.5094 18.3855 20.5247 17.836 20.5129C17.3533 20.5024 17.0222 20.2475 16.8026 19.8305C16.7626 19.7541 16.7251 19.6766 16.6851 19.5955L15.6893 19.915C15.7692 19.9738 15.8067 20.0031 15.842 20.0325C16.9893 20.7902 18.0121 21.6829 18.7778 22.8364C19.3811 23.705 19.7426 24.7186 19.8252 25.7731C19.8353 25.8477 19.8291 25.9236 19.8069 25.9955C19.7846 26.0675 19.747 26.1337 19.6966 26.1896C19.6462 26.2455 19.5842 26.2897 19.5149 26.3192C19.4457 26.3487 19.3709 26.3628 19.2956 26.3604C19.2267 26.3694 19.1567 26.3636 19.0902 26.3435C19.0237 26.3234 18.9622 26.2894 18.9098 26.2438C18.8575 26.1982 18.8153 26.1419 18.7863 26.0788C18.7572 26.0157 18.7419 25.9471 18.7413 25.8776C18.6451 24.6102 18.0837 23.5577 17.2511 22.6344C16.1943 21.4597 14.9025 20.5975 13.4699 19.9468C13.1869 19.8187 12.9649 19.6378 13.0377 19.2936C13.1105 18.9495 13.363 18.8578 13.6859 18.8637C14.1792 18.8731 14.672 18.8731 15.1644 18.8637C15.7799 18.8385 16.3692 18.6074 16.8378 18.2075C17.3064 17.8075 17.6273 17.2618 17.7491 16.6577ZM20.7248 16.6906C20.7248 17.7783 20.7248 18.8661 20.7248 19.9538C20.7248 20.2486 20.8293 20.3732 21.1264 20.3673C21.6525 20.3567 22.1833 20.3555 22.7058 20.3673C22.9994 20.3743 23.1297 20.2404 23.1297 19.962C23.1297 17.7975 23.1297 15.633 23.1297 13.4685C23.1297 13.2218 23.0299 13.1161 22.7775 13.1161C22.2161 13.1232 21.6548 13.1279 21.0935 13.1161C20.8152 13.1091 20.713 13.2019 20.7177 13.4932C20.7389 14.5598 20.7248 15.6252 20.7248 16.6906ZM19.6385 19.424V17.0688C19.6385 15.6827 19.6385 14.2966 19.6385 12.9094C19.6385 12.6263 19.5704 12.4477 19.2357 12.4595C18.766 12.4759 18.2963 12.4595 17.8266 12.4653C17.4285 12.4653 17.3216 12.5758 17.3181 12.981C17.3181 13.6001 17.3181 14.2191 17.3181 14.8382V15.5571H18.234C18.7684 15.5571 18.9656 15.7673 18.9187 16.2947C18.8636 17.1252 18.533 17.9136 17.9792 18.5348C17.7279 18.812 17.7138 19.0857 17.7843 19.4229L19.6385 19.424ZM13.9079 15.4725H16.2318C16.2318 14.3448 16.2318 13.2406 16.2318 12.1317C16.2321 12.0826 16.222 12.0339 16.2023 11.9888C16.1825 11.9438 16.1536 11.9034 16.1173 11.8702C16.081 11.837 16.0382 11.8118 15.9916 11.7961C15.945 11.7805 15.8956 11.7748 15.8467 11.7794C15.3323 11.7794 14.8168 11.7711 14.3025 11.7794C14.0676 11.7794 13.9138 11.9074 13.9126 12.1623C13.9067 13.2547 13.9079 14.3507 13.9079 15.4725ZM12.8158 15.3891C12.8158 14.6173 12.8158 13.7739 12.8158 12.9293C12.8158 12.5476 12.7136 12.4313 12.3355 12.4195C11.8775 12.4054 11.4195 12.4113 10.9615 12.4195C10.5364 12.4195 10.4308 12.5276 10.4284 12.9493C10.4284 13.9114 10.4284 14.8734 10.4284 15.8354C10.4297 15.88 10.4344 15.9244 10.4425 15.9682L12.8158 15.3891ZM1.11142 17.6209C1.10828 17.7128 1.12412 17.8043 1.15793 17.8897C1.19174 17.9752 1.24281 18.0528 1.30794 18.1176C1.37308 18.1824 1.45087 18.2331 1.53647 18.2665C1.62207 18.2999 1.71363 18.3152 1.80544 18.3116C1.89417 18.3144 1.98256 18.2996 2.06546 18.2678C2.14837 18.2361 2.22412 18.1881 2.2883 18.1268C2.35247 18.0654 2.40378 17.9919 2.43923 17.9105C2.47468 17.8291 2.49356 17.7414 2.49476 17.6526C2.50155 17.5581 2.48842 17.4632 2.45621 17.3741C2.424 17.285 2.37343 17.2036 2.30778 17.1353C2.24213 17.067 2.16286 17.0132 2.07511 16.9775C1.98736 16.9417 1.89309 16.9248 1.7984 16.9279C1.70675 16.924 1.6153 16.9393 1.52989 16.9728C1.44448 17.0062 1.36699 17.0571 1.30235 17.1222C1.2377 17.1873 1.18734 17.2652 1.15447 17.3509C1.12159 17.4365 1.10693 17.5281 1.11142 17.6198V17.6209ZM17.8606 2.3069C17.8651 2.21515 17.8509 2.12345 17.8189 2.03734C17.787 1.95122 17.7379 1.87247 17.6747 1.80584C17.6115 1.73921 17.5354 1.68608 17.4511 1.64965C17.3668 1.61322 17.276 1.59425 17.1842 1.59388C16.9991 1.59197 16.8208 1.66298 16.6876 1.79157C16.5544 1.92015 16.4772 2.09598 16.4726 2.28106C16.4685 2.37329 16.4835 2.46538 16.5164 2.55162C16.5493 2.63787 16.5996 2.71644 16.6641 2.78249C16.7286 2.84854 16.8059 2.90066 16.8913 2.93564C16.9768 2.97062 17.0685 2.98771 17.1607 2.98585C17.5682 2.99173 17.8477 2.72625 17.8606 2.30572V2.3069ZM5.64778 6.77061C5.64175 6.86174 5.65404 6.95316 5.68391 7.03946C5.71379 7.12577 5.76066 7.20521 5.82174 7.2731C5.88282 7.34099 5.95688 7.39595 6.03955 7.43473C6.12221 7.47351 6.21181 7.49533 6.30305 7.49889C6.48115 7.49839 6.65213 7.42883 6.78002 7.30484C6.90792 7.18085 6.98277 7.01209 6.98884 6.83404C6.99714 6.65575 6.93444 6.48144 6.81447 6.34932C6.6945 6.21721 6.52706 6.13806 6.34885 6.12924C6.26058 6.12433 6.1722 6.13693 6.08882 6.16632C6.00543 6.19571 5.92868 6.2413 5.86298 6.30047C5.79727 6.35964 5.74391 6.43123 5.70598 6.51111C5.66804 6.59098 5.64627 6.67758 5.64191 6.76591L5.64778 6.77061ZM27.3185 6.77061C27.3123 6.86177 27.3245 6.95326 27.3543 7.03964C27.3841 7.12601 27.431 7.20552 27.4921 7.27344C27.5532 7.34137 27.6273 7.39632 27.7101 7.43505C27.7928 7.47378 27.8825 7.49549 27.9738 7.49889C28.1458 7.49779 28.3112 7.43251 28.4376 7.31584C28.564 7.19917 28.6423 7.0395 28.6572 6.8681C28.6659 6.77742 28.6561 6.68593 28.6284 6.59915C28.6007 6.51237 28.5557 6.43213 28.4961 6.36327C28.4365 6.29441 28.3635 6.23837 28.2816 6.19854C28.1997 6.15872 28.1105 6.13594 28.0196 6.13159C27.8421 6.12231 27.6681 6.18391 27.536 6.30286C27.4039 6.4218 27.3244 6.58835 27.315 6.76591L27.3185 6.77061ZM27.3185 28.4536C27.3163 28.5394 27.3312 28.6247 27.3623 28.7046C27.3935 28.7845 27.4401 28.8574 27.4997 28.919C27.5593 28.9807 27.6305 29.0299 27.7093 29.0637C27.7881 29.0976 27.8728 29.1154 27.9585 29.1161C28.0501 29.1193 28.1414 29.1039 28.2269 29.071C28.3124 29.038 28.3904 28.9881 28.4562 28.9243C28.522 28.8605 28.5742 28.784 28.6098 28.6995C28.6453 28.615 28.6635 28.5242 28.6631 28.4325C28.6653 28.2537 28.5973 28.0811 28.4737 27.952C28.35 27.8228 28.1807 27.7473 28.002 27.7418C27.9102 27.7424 27.8195 27.7612 27.7351 27.7972C27.6508 27.8332 27.5744 27.8857 27.5105 27.9515C27.4465 28.0173 27.3963 28.0952 27.3628 28.1806C27.3292 28.266 27.313 28.3572 27.315 28.4489L27.3185 28.4536ZM32.462 18.3163C32.5504 18.3221 32.6391 18.3097 32.7225 18.2799C32.8059 18.25 32.8824 18.2034 32.9471 18.1428C33.0118 18.0823 33.0634 18.0091 33.0987 17.9278C33.1341 17.8466 33.1524 17.7589 33.1525 17.6703C33.1547 17.579 33.1387 17.4882 33.1054 17.4032C33.0722 17.3181 33.0224 17.2405 32.9589 17.175C32.8954 17.1094 32.8195 17.0571 32.7356 17.0211C32.6517 16.9851 32.5615 16.9662 32.4702 16.9655C32.2918 16.9692 32.1219 17.0425 31.9969 17.1698C31.8718 17.2971 31.8014 17.4683 31.8009 17.6468C31.7973 17.734 31.8117 17.8211 31.8431 17.9026C31.8745 17.9841 31.9222 18.0583 31.9834 18.1206C32.0446 18.1829 32.1179 18.232 32.1988 18.2649C32.2797 18.2977 32.3665 18.3136 32.4538 18.3116L32.462 18.3163ZM6.9912 28.4184C6.99032 28.2397 6.91976 28.0684 6.79453 27.9409C6.6693 27.8134 6.49928 27.7399 6.32066 27.7359C6.22917 27.7375 6.13894 27.7575 6.05531 27.7947C5.97168 27.8319 5.89636 27.8854 5.83383 27.9523C5.77129 28.0191 5.72281 28.0978 5.69125 28.1837C5.6597 28.2696 5.64572 28.361 5.65013 28.4525C5.65596 28.6311 5.73174 28.8003 5.86113 28.9236C5.99051 29.0468 6.16315 29.1143 6.3418 29.1114C6.42977 29.1092 6.51639 29.0894 6.59656 29.0531C6.67674 29.0168 6.74883 28.9649 6.80859 28.9003C6.86835 28.8357 6.91458 28.7597 6.94453 28.677C6.97448 28.5942 6.98755 28.5063 6.98297 28.4184H6.9912Z" fill="#2C2753"/>
</svg>
