<svg width="24" height="34" viewBox="0 0 24 34" fill="none" xmlns="http://www.w3.org/2000/svg">
<path d="M19.2748 19.9704C19.9699 22.3121 20.6633 24.6503 21.3552 26.985C21.7137 28.1876 22.0726 29.3901 22.4318 30.5927C22.5222 30.898 22.642 31.2198 22.3144 31.45C21.9869 31.6802 21.7274 31.4805 21.4668 31.2832C20.324 30.422 19.179 29.5655 18.0315 28.7137C17.9306 28.6373 17.8214 28.5716 17.6723 28.4729C17.2801 29.5393 16.8986 30.5763 16.5158 31.6133C16.348 32.0689 16.1742 32.5211 16.0145 32.9791C15.9147 33.2691 15.7797 33.5146 15.4275 33.4993C15.0753 33.4841 14.9696 33.2151 14.8851 32.9286C13.9459 29.7569 13.0027 26.5861 12.0557 23.416C12.0134 23.2727 11.9641 23.1295 11.8831 22.877C11.7997 23.1189 11.7457 23.2563 11.7046 23.3972C10.7599 26.5681 9.81677 29.7389 8.87519 32.9098C8.78478 33.2116 8.68382 33.497 8.30343 33.497C7.95122 33.497 7.8338 33.2363 7.73401 32.9532C7.23621 31.5862 6.7302 30.2228 6.22654 28.857C6.1831 28.7395 6.13497 28.6221 6.07157 28.4624L3.64482 30.2686C3.19751 30.6009 2.74668 30.9298 2.30406 31.2692C2.04695 31.4676 1.78514 31.672 1.45758 31.4582C1.09715 31.2234 1.23334 30.8828 1.32727 30.5669C2.3659 27.0672 3.40571 23.5675 4.44669 20.0678C4.45491 20.0408 4.46079 20.0126 4.4737 19.9598C4.12149 19.86 3.76928 19.7766 3.41707 19.658C2.38391 19.3057 1.93542 18.7185 1.89903 17.6251C1.88116 17.1816 1.90395 16.7374 1.96711 16.298C2.08452 15.5406 1.93307 14.8888 1.39418 14.3215C1.10837 14.0205 0.838742 13.7046 0.58644 13.375C-0.198993 12.3474 -0.195461 11.4302 0.597017 10.4038C0.840434 10.0853 1.10147 9.78061 1.37892 9.49127C1.93424 8.91817 2.0763 8.25112 1.96594 7.47602C1.90427 6.96487 1.88778 6.44927 1.91664 5.93522C1.94482 5.166 2.33342 4.5882 3.04137 4.30282C3.61322 4.08312 4.20224 3.91107 4.80243 3.78844C5.48924 3.63577 5.9976 3.29285 6.34042 2.67277C6.5796 2.23358 6.8487 1.81137 7.14581 1.40913C7.78801 0.551821 8.54528 0.312245 9.56317 0.642249C10.0774 0.809012 10.5775 1.02627 11.0753 1.23766C11.3306 1.35005 11.6065 1.40808 11.8854 1.40808C12.1644 1.40808 12.4402 1.35005 12.6955 1.23766C13.2497 1.01101 13.8038 0.779652 14.3756 0.604668C15.2526 0.335732 15.9899 0.604667 16.5393 1.32692C16.8565 1.7501 17.144 2.19469 17.3999 2.6575C17.5563 2.95541 17.7794 3.21308 18.052 3.4103C18.3245 3.60753 18.639 3.73896 18.9708 3.79431C19.461 3.88768 19.9442 4.01441 20.4172 4.17364C21.34 4.48837 21.8495 5.13781 21.853 6.13135C21.8631 6.58929 21.8396 7.04736 21.7826 7.50186C21.6722 8.25934 21.8213 8.91113 22.3602 9.47836C22.6173 9.74612 22.8568 10.0327 23.0893 10.3227C23.9698 11.4196 23.9734 12.3685 23.101 13.4642C22.8726 13.758 22.6293 14.0398 22.372 14.3086C21.8166 14.8805 21.6675 15.5499 21.7849 16.3239C21.8441 16.8065 21.8633 17.2932 21.8425 17.7789C21.8237 18.6621 21.3599 19.2575 20.551 19.5746C20.1495 19.7331 19.7186 19.8365 19.2748 19.9704ZM20.8093 6.54708C20.8175 5.5465 20.6449 5.31632 19.7527 5.06265C19.5216 4.99145 19.2863 4.93458 19.0482 4.89236C17.8143 4.70564 16.9138 4.07029 16.3479 2.94992C16.1659 2.60951 15.955 2.28537 15.7175 1.98105C15.4345 1.5982 15.0553 1.44671 14.5869 1.62874C14.1184 1.81077 13.6242 1.98105 13.1546 2.19009C12.7583 2.37457 12.3268 2.47075 11.8897 2.47197C11.4527 2.47318 11.0206 2.37941 10.6233 2.19714C10.2065 2.01159 9.78271 1.83895 9.35184 1.68863C8.63685 1.43731 8.32339 1.53831 7.89251 2.16543C7.6084 2.57647 7.35479 3.00864 7.09298 3.43377C6.90198 3.76246 6.64468 4.04779 6.33745 4.27161C6.03022 4.49542 5.67979 4.65283 5.30845 4.73382C4.82122 4.84539 4.33517 4.96165 3.85733 5.10375C3.12708 5.32219 2.93453 5.59113 2.94157 6.34391C2.94112 6.61564 2.95837 6.8871 2.99323 7.15659C3.17168 8.37208 2.96036 9.46309 2.02817 10.3404C1.89894 10.4745 1.77668 10.6153 1.66187 10.762C0.84943 11.712 0.848256 12.0785 1.64778 13.0227C1.91546 13.3398 2.18785 13.6521 2.44848 13.9751C2.85342 14.4479 3.0633 15.0572 3.0355 15.6791C3.00498 16.3074 2.95919 16.9357 2.94745 17.5652C2.93571 18.1759 3.13529 18.4507 3.71879 18.648C4.04165 18.7618 4.3735 18.8482 4.71085 18.9064C5.94359 19.1013 6.84291 19.7284 7.41114 20.8547C7.59907 21.2076 7.81959 21.5422 8.06979 21.8541C8.3363 22.2064 8.69204 22.3497 9.12643 22.1829C9.68528 21.9692 10.25 21.7683 10.803 21.5405C11.137 21.3944 11.4975 21.3182 11.8621 21.3165C12.2268 21.3149 12.5879 21.3879 12.9233 21.5311C13.4117 21.7308 13.8989 21.9339 14.3955 22.1113C15.1093 22.3649 15.4287 22.2639 15.8572 21.6415C16.1566 21.2058 16.4219 20.7478 16.7037 20.3004C16.8903 19.9941 17.1361 19.7282 17.4269 19.5182C17.7176 19.3083 18.0473 19.1585 18.3967 19.0778C18.8804 18.9604 19.3688 18.8523 19.8489 18.7149C20.6215 18.4918 20.8187 18.2205 20.8081 17.4231C20.8064 17.1517 20.7876 16.8806 20.7518 16.6116C20.5815 15.4102 20.8058 14.3392 21.718 13.4666C21.9701 13.2134 22.1992 12.9383 22.4025 12.6445C22.8087 12.0902 22.8087 11.7191 22.3954 11.1636C22.1477 10.8313 21.8777 10.5142 21.5983 10.2077C20.9807 9.53355 20.6238 8.77137 20.7189 7.83304C20.7694 7.36915 20.7894 6.91114 20.814 6.54708H20.8093ZM12.9432 22.6891C13.8038 25.5792 14.6409 28.3919 15.5085 31.3114C15.9875 30.0114 16.4196 28.8335 16.854 27.6567C17.097 26.9991 17.3811 26.9157 17.94 27.3326C18.8455 28.0083 19.7507 28.6839 20.6555 29.3596C20.7483 29.4277 20.8504 29.4829 21.0441 29.605L18.2264 20.1418C17.9364 20.4824 17.7016 20.7184 17.5138 20.9885C17.1803 21.4689 16.9021 21.9903 16.5511 22.4577C15.9957 23.1952 15.2444 23.4571 14.3497 23.1929C13.9036 23.0602 13.468 22.8793 12.9421 22.6891H12.9432ZM8.25529 31.3138L10.8253 22.6644L10.1854 22.9298C8.51592 23.6145 7.68236 23.3409 6.74547 21.8036C6.51066 21.4254 6.2876 21.0449 6.02931 20.6867C5.91191 20.5153 5.71818 20.392 5.51155 20.2029C4.57232 23.3737 3.66009 26.4389 2.75021 29.5076C3.84324 28.8135 4.8353 28.0701 5.83089 27.3279C6.38738 26.9133 6.66563 27.0003 6.911 27.6626C7.34422 28.8382 7.77628 30.0149 8.25411 31.3138H8.25529Z" fill="#2C2753"/>
<path d="M5.01172 11.8801C5.01576 10.0576 5.74172 8.31101 7.03058 7.02287C8.31944 5.73473 10.0661 5.01005 11.8881 5.00757C12.7937 5.01095 13.6897 5.19296 14.5249 5.54318C15.3601 5.89339 16.118 6.40494 16.7553 7.04853C17.3926 7.69213 17.8968 8.45514 18.2389 9.29387C18.581 10.1326 18.7544 11.0306 18.7492 11.9365C18.7399 13.7516 18.0145 15.4897 16.7307 16.7725C15.4469 18.0554 13.7086 18.7793 11.894 18.7867C8.09945 18.8019 5.00937 15.6992 5.01172 11.8801ZM11.8716 17.7145C12.6376 17.7172 13.3966 17.5689 14.1051 17.2778C14.8137 16.9868 15.4579 16.5588 16.0009 16.0184C16.5439 15.478 16.975 14.8358 17.2695 14.1285C17.564 13.4212 17.7161 12.6627 17.7172 11.8965C17.7135 10.3567 17.1006 8.88098 16.0126 7.79173C14.9245 6.70248 13.4497 6.08827 11.9104 6.08331C11.1443 6.07758 10.3846 6.22303 9.67482 6.51132C8.96501 6.79961 8.319 7.22508 7.77376 7.7634C7.22851 8.30171 6.79474 8.94229 6.49727 9.64848C6.19981 10.3547 6.04448 11.1126 6.04018 11.8789C6.03941 12.6453 6.1897 13.4043 6.48245 14.1125C6.77521 14.8207 7.20469 15.4642 7.74631 16.0062C8.28794 16.5482 8.93108 16.978 9.63895 17.2712C10.3468 17.5643 11.1055 17.7149 11.8716 17.7145Z" fill="#2C2753"/>
<path d="M9.13805 14.9662C9.25546 14.4107 9.39399 13.7836 9.54074 13.16C9.60179 12.9005 9.56775 12.7067 9.34351 12.5235C8.88581 12.1583 8.45025 11.7661 8.03915 11.3491C7.88653 11.1906 7.75856 10.8794 7.80434 10.6938C7.84778 10.5317 8.14951 10.3685 8.35731 10.3344C8.96195 10.2358 9.57949 10.217 10.1865 10.1324C10.2677 10.1153 10.3445 10.0816 10.412 10.0332C10.4795 9.98494 10.5362 9.92314 10.5786 9.85177C10.8439 9.31507 11.0705 8.75959 11.3112 8.20762C11.4286 7.95161 11.5625 7.65683 11.8841 7.74491C12.1126 7.82445 12.3032 7.98655 12.4183 8.1994C12.7013 8.74197 12.9126 9.32212 13.1803 9.87173C13.2204 9.93746 13.2738 9.99408 13.3371 10.038C13.4004 10.0818 13.4721 10.112 13.5477 10.1266C14.17 10.2088 14.8016 10.2311 15.4192 10.3333C15.6223 10.3662 15.9017 10.5447 15.9557 10.7161C16.0097 10.8876 15.8771 11.1859 15.7303 11.3362C15.3178 11.7527 14.8815 12.1448 14.4236 12.5106C14.1888 12.7044 14.1512 12.9028 14.2216 13.1823C14.3578 13.7202 14.4647 14.2663 14.5856 14.8089C14.6478 15.086 14.6901 15.4055 14.3907 15.5229C14.1563 15.5912 13.9047 15.5686 13.6863 15.4595C13.1655 15.1934 12.6588 14.9005 12.1682 14.5822C12.0866 14.5176 11.9858 14.4819 11.8816 14.4808C11.7775 14.4798 11.6759 14.5134 11.593 14.5763C11.0482 14.9157 10.4929 15.2399 9.92818 15.544C9.49731 15.7824 9.11457 15.5264 9.13805 14.9662ZM14.2498 11.2728C13.7955 11.2282 13.4433 11.1835 13.0899 11.1624C12.7365 11.1412 12.5029 11.0027 12.369 10.6609C12.2352 10.3192 12.0638 9.97978 11.8747 9.56522C11.701 9.95864 11.5507 10.2511 11.4415 10.5576C11.2912 10.9768 11.0142 11.1647 10.5704 11.1694C10.2487 11.1694 9.92818 11.2328 9.52548 11.2763C9.8096 11.5311 10.0233 11.7578 10.271 11.9387C10.6737 12.2311 10.7852 12.5857 10.6373 13.059C10.5446 13.3561 10.5046 13.6709 10.4271 14.0502C10.8169 13.8259 11.1316 13.6615 11.4298 13.463C11.5617 13.3639 11.7225 13.3107 11.8875 13.3118C12.0525 13.3128 12.2126 13.368 12.3432 13.4689C12.6437 13.6638 12.9654 13.8271 13.3376 14.0373C13.2413 13.5793 13.1697 13.2023 13.0805 12.83C13.0403 12.6921 13.0441 12.5451 13.0915 12.4095C13.1388 12.2739 13.2273 12.1565 13.3446 12.0737C13.6311 11.8424 13.8988 11.5863 14.2498 11.2728Z" fill="#2C2753"/>
</svg>
