<svg width="32" height="32" viewBox="0 0 32 32" fill="none" xmlns="http://www.w3.org/2000/svg">
<path d="M10.6666 28.6666C9.38332 28.6666 8.28472 28.2097 7.37083 27.2958C6.45694 26.3819 6 25.2833 6 24V10.6667C6 9.38336 6.45694 8.28476 7.37083 7.37087C8.28472 6.45699 9.38332 6.00004 10.6666 6.00004H12.3333V3.33337H14.3333V6.00004H17.6667V3.33337H19.6666V6.00004H21.3333C22.6166 6.00004 23.7152 6.45699 24.6291 7.37087C25.543 8.28476 25.9999 9.38336 25.9999 10.6667V24C25.9999 25.2833 25.543 26.3819 24.6291 27.2958C23.7152 28.2097 22.6166 28.6666 21.3333 28.6666H10.6666ZM10.6666 26.6667H21.3333C22.0666 26.6667 22.6944 26.4056 23.2166 25.8833C23.7389 25.3611 24 24.7333 24 24V10.6667C24 9.93334 23.7389 9.30556 23.2166 8.78334C22.6944 8.26112 22.0666 8.00001 21.3333 8.00001H10.6666C9.9333 8.00001 9.30552 8.26112 8.7833 8.78334C8.26108 9.30556 7.99997 9.93334 7.99997 10.6667V24C7.99997 24.7333 8.26108 25.3611 8.7833 25.8833C9.30552 26.4056 9.9333 26.6667 10.6666 26.6667ZM11 13H20.9999V11H11V13ZM15.9978 23.5512C16.83 23.5512 17.5341 23.2666 18.1102 22.6974C18.6863 22.1282 18.9743 21.4401 18.9743 20.6332C18.9743 19.9837 18.7859 19.4257 18.4092 18.9592C18.0324 18.4927 17.2294 17.5448 16 16.1154C14.7538 17.5445 13.9466 18.496 13.5782 18.97C13.2098 19.444 13.0256 19.997 13.0256 20.629C13.0256 21.4387 13.3129 22.1282 13.8876 22.6974C14.4622 23.2666 15.1656 23.5512 15.9978 23.5512Z" fill="black"/>
</svg>
