<svg width="27" height="34" viewBox="0 0 27 34" fill="none" xmlns="http://www.w3.org/2000/svg">
<path d="M13.3866 0.5C13.4957 0.584862 13.5815 0.696143 13.6357 0.823345C13.69 0.950547 13.7109 1.08947 13.6966 1.22702C13.6836 1.6334 13.6966 2.04095 13.6966 2.4485C13.6966 2.85605 13.4993 3.07334 13.1987 3.07334C12.8981 3.07334 12.7067 2.83844 12.6997 2.4485C12.6926 2.05857 12.7079 1.6334 12.6997 1.22702C12.6854 1.08947 12.7063 0.950547 12.7606 0.823345C12.8148 0.696143 12.9005 0.584862 13.0097 0.5H13.3866Z" fill="#2C2753"/>
<path d="M16.2908 25.8024C16.2908 25.1881 16.2966 24.5985 16.2908 24.0089C16.2767 22.7639 16.7745 21.7774 17.8043 21.0868C18.7051 20.5 19.5019 19.7673 20.162 18.9186C21.0435 17.75 21.6183 16.3792 21.834 14.9312C21.8464 14.8577 21.8637 14.7851 21.8856 14.7139C21.9631 14.4214 22.1721 14.3263 22.4492 14.3615C22.5106 14.3723 22.5692 14.3951 22.6216 14.4287C22.6741 14.4623 22.7193 14.506 22.7547 14.5573C22.7901 14.6086 22.815 14.6664 22.8278 14.7273C22.8407 14.7883 22.8413 14.8512 22.8297 14.9124C22.5827 16.7628 21.8114 18.5038 20.607 19.9299C19.9471 20.6928 19.1821 21.358 18.335 21.9054C17.6176 22.3846 17.2782 23.0693 17.27 23.922C17.263 24.5022 17.2583 25.0824 17.2771 25.6614C17.2844 25.7243 17.3046 25.7849 17.3365 25.8395C17.3685 25.8941 17.4114 25.9414 17.4626 25.9786C17.85 26.2287 18.0943 26.5658 18.1072 27.0262C18.1201 27.4866 18.1941 27.994 17.9276 28.4427C17.9138 28.4809 17.9083 28.5215 17.9113 28.562C17.9144 28.6025 17.9259 28.6418 17.9452 28.6776C18.214 29.2202 18.1589 29.7922 18.0626 30.3489C18.0104 30.5942 17.8783 30.8152 17.6871 30.9773C17.4959 31.1395 17.2563 31.2336 17.0058 31.245C16.5784 31.2767 16.1475 31.2662 15.7143 31.2732C15.5969 31.2732 15.4794 31.2732 15.3315 31.2732C15.3315 31.6256 15.3315 31.9309 15.3315 32.2387C15.3174 33.069 14.8794 33.4989 14.047 33.5001C13.4352 33.5001 12.8223 33.5001 12.2106 33.5001C11.5589 33.4942 11.094 33.062 11.0564 32.409C11.0352 32.0472 11.0564 31.6843 11.0564 31.2732C10.5691 31.2732 10.1171 31.2732 9.67557 31.2732C9.10141 31.2732 8.61885 31.0818 8.39811 30.5309C8.18553 29.9734 8.18553 29.3572 8.39811 28.7997C8.46386 28.6141 8.49556 28.4885 8.39811 28.3006C8.08578 27.6734 8.20905 26.513 8.7069 26.1782C9.12724 25.894 9.13782 25.5616 9.12373 25.1529C9.10964 24.7442 9.12373 24.3307 9.12373 23.9291C9.12373 23.0482 8.77149 22.3564 8.01651 21.8772C6.87316 21.165 5.89582 20.2158 5.1504 19.0936C3.79426 17.0465 3.22479 14.802 3.59112 12.3625C4.12536 8.8085 6.08033 6.29858 9.30808 4.76703C10.1242 4.38634 10.9965 4.14043 11.8912 4.03884C12.2716 3.99303 12.5053 4.13632 12.5464 4.43465C12.5875 4.73297 12.3949 4.95143 12.0262 5.00428C10.8006 5.16484 9.62489 5.59135 8.58128 6.25395C6.30107 7.72913 4.88854 9.79978 4.56565 12.5058C4.13356 16.1198 5.48621 18.9656 8.49205 21.0104C9.57931 21.748 10.1288 22.7275 10.1018 24.0395C10.0889 24.6185 10.1018 25.1975 10.1018 25.8012L16.2908 25.8024ZM13.218 26.7972H9.70845C9.32685 26.7972 9.26229 26.8665 9.25877 27.2482C9.25877 27.3339 9.25877 27.4208 9.25877 27.5066C9.25877 28.0187 9.28929 28.0492 9.80827 28.0492H16.3436C17.1373 28.0492 17.1373 28.0492 17.1315 27.2611C17.1315 26.8583 17.0692 26.7972 16.6618 26.7913L13.218 26.7972ZM13.1898 29.0452H10.002C9.25523 29.0452 9.25525 29.0452 9.25877 29.8074C9.25877 30.2491 9.29398 30.2843 9.73898 30.2843C11.9393 30.2843 14.1397 30.2843 16.3401 30.2843C17.1972 30.2843 17.1362 30.3195 17.1315 29.4715C17.1315 29.0957 17.0798 29.044 16.6994 29.044C15.5299 29.0432 14.3601 29.0436 13.1898 29.0452ZM12.0321 31.2932C12.0321 31.6326 12.0321 31.9521 12.0321 32.2715C12.0321 32.4665 12.1413 32.5346 12.3174 32.5346C12.9045 32.5346 13.4916 32.5452 14.0787 32.5241C14.1387 32.5104 14.1942 32.4817 14.24 32.4406C14.2859 32.3995 14.3204 32.3474 14.3405 32.2892C14.3722 31.9627 14.3534 31.6326 14.3534 31.2897L12.0321 31.2932Z" fill="#2C2753"/>
<path d="M10.8115 9.13147L11.6475 8.77912C11.6475 8.33868 11.6475 7.89941 11.6475 7.46015C11.6475 6.93162 11.8964 6.65679 12.4213 6.638C12.9461 6.6192 13.4533 6.6192 13.9676 6.638C14.4819 6.65679 14.7355 6.93045 14.739 7.46015C14.739 7.88884 14.739 8.31871 14.739 8.77207L15.5891 9.13147C15.8885 8.8214 16.1868 8.49841 16.5003 8.19186C16.8971 7.80076 17.2529 7.79958 17.6521 8.18482C18.0149 8.53717 18.373 8.88952 18.7218 9.25596C19.0705 9.62241 19.074 9.98533 18.7218 10.36C18.4634 10.6325 18.1981 10.9003 17.9233 11.1563C17.7942 11.2738 17.7977 11.3712 17.8411 11.5404C17.9715 12.0536 18.2615 12.2451 18.7805 12.157C19.0473 12.1265 19.3168 12.1265 19.5836 12.157C19.9464 12.1817 20.1953 12.3978 20.2129 12.7619C20.2411 13.3609 20.2458 13.9634 20.2235 14.5635C20.2071 14.9969 19.9276 15.2354 19.485 15.2471C19.0987 15.2577 18.7112 15.26 18.3249 15.2471C18.1429 15.2412 18.0901 15.3305 17.9997 15.4703C17.7085 15.9189 17.8212 16.2384 18.2204 16.5379C18.4213 16.6999 18.6047 16.8826 18.7676 17.0829C19.0599 17.4176 19.0623 17.7699 18.757 18.0929C18.3813 18.4915 17.9938 18.8787 17.5946 19.2545C17.2517 19.5798 16.8901 19.5705 16.5378 19.2416C16.2631 18.9844 15.9989 18.7178 15.7406 18.4441C15.615 18.3102 15.514 18.3032 15.3285 18.3501C14.8001 18.4829 14.6463 18.7929 14.7249 19.3015C14.7514 19.5584 14.7514 19.8174 14.7249 20.0743C14.7252 20.1607 14.7085 20.2463 14.6755 20.3262C14.6426 20.4061 14.5941 20.4786 14.533 20.5397C14.4718 20.6007 14.3992 20.649 14.3193 20.6819C14.2394 20.7147 14.1538 20.7313 14.0674 20.7309C13.4803 20.745 12.8862 20.745 12.2956 20.7309C11.907 20.7215 11.6498 20.4419 11.6392 20.0403C11.6287 19.6386 11.6287 19.2451 11.6392 18.8481C11.6392 18.6743 11.5794 18.6062 11.4256 18.5146C10.9712 18.2444 10.6307 18.302 10.3266 18.7401C10.1795 18.925 10.013 19.0935 9.82989 19.2428C9.46472 19.5775 9.10896 19.5775 8.74967 19.2322C8.39038 18.8869 8.01347 18.5099 7.65652 18.1387C7.29958 17.7676 7.29605 17.4082 7.6483 17.0347C7.90504 16.7614 8.1708 16.4956 8.44555 16.2372C8.57001 16.1198 8.58058 16.0281 8.53596 15.8555C8.40446 15.3387 8.1074 15.1508 7.59664 15.2448C7.36244 15.2692 7.12634 15.2692 6.89215 15.2448C6.45066 15.2295 6.17356 14.9922 6.15477 14.5588C6.13012 13.9798 6.13129 13.3984 6.15477 12.8206C6.17356 12.3895 6.42953 12.1629 6.85927 12.1476C7.235 12.1347 7.61074 12.1323 7.98647 12.1476C8.19782 12.1558 8.27882 12.0771 8.38919 11.8916C8.65455 11.4429 8.54771 11.1399 8.15436 10.8498C7.96306 10.6933 7.78694 10.5191 7.62834 10.3295C7.30545 9.97711 7.30193 9.62476 7.62834 9.27241C7.98998 8.89069 8.36337 8.51838 8.74379 8.15545C9.12422 7.79253 9.46941 7.8031 9.84984 8.16485C10.0142 8.31871 10.1704 8.48197 10.3289 8.64287C10.4874 8.80378 10.6459 8.95999 10.8115 9.13147ZM8.49136 9.82795C8.84361 10.1733 9.17472 10.5092 9.51757 10.8345C9.74653 11.0518 9.76297 11.2843 9.63499 11.5615C9.47413 11.9139 9.32383 12.2662 9.19115 12.6256C9.04203 13.032 8.92344 13.1295 8.48666 13.1307H7.15516V14.2805C7.64008 14.2805 8.09448 14.2899 8.56414 14.2805C8.89408 14.2723 9.0749 14.425 9.18175 14.728C9.30504 15.0803 9.44477 15.4327 9.60093 15.7674C9.79467 16.1891 9.78644 16.3136 9.44828 16.6483C9.13713 16.956 8.81894 17.2567 8.54184 17.5245L9.34732 18.4147C9.67844 18.0624 10.0013 17.7382 10.3125 17.4C10.5344 17.1651 10.7716 17.1298 11.0651 17.2649C11.4326 17.434 11.8095 17.5867 12.1899 17.7277C12.4905 17.8392 12.6349 18.0225 12.6232 18.3548C12.6056 18.8246 12.6232 19.2944 12.6232 19.7502H13.7844C13.7844 19.2627 13.7973 18.8012 13.7844 18.3407C13.7715 18.0037 13.9359 17.8322 14.2318 17.7241C14.5923 17.5914 14.9492 17.4481 15.2991 17.2896C15.676 17.1193 15.8228 17.1334 16.121 17.4364C16.4193 17.7394 16.7515 18.0753 17.0451 18.376L17.9093 17.5538C17.5805 17.2426 17.2576 16.9466 16.9453 16.6389C16.6142 16.3159 16.6094 16.1844 16.8091 15.7568C16.957 15.4374 17.0873 15.1097 17.2071 14.7785C17.3515 14.3803 17.4595 14.2887 17.8858 14.2864C18.3343 14.2864 18.7816 14.2864 19.2407 14.2864V13.1365C18.7546 13.1365 18.2932 13.1365 17.8318 13.1365C17.5194 13.1365 17.3386 12.9956 17.2318 12.7055C17.092 12.3249 16.937 11.9491 16.7621 11.5815C16.6282 11.2926 16.6447 11.0541 16.8795 10.8263C17.2212 10.5021 17.55 10.165 17.8787 9.83852L17.0662 9.01636C16.7421 9.34288 16.4063 9.67291 16.0799 10.0123C15.9904 10.1204 15.8652 10.1929 15.7269 10.2166C15.5886 10.2403 15.4465 10.2137 15.3261 10.1415C14.9715 9.96813 14.6068 9.81596 14.2341 9.68583C13.8983 9.56838 13.7539 9.37341 13.7704 9.01754C13.7903 8.57005 13.7704 8.12022 13.7704 7.66216H12.6091C12.6091 8.13196 12.5938 8.58297 12.6091 9.03163C12.6267 9.39573 12.46 9.58013 12.1312 9.6917C11.7887 9.81056 11.4528 9.94778 11.125 10.1028C10.7023 10.2989 10.579 10.2907 10.2455 9.95362C9.93322 9.63768 9.62675 9.31352 9.32499 9.0011L8.49136 9.82795Z" fill="#2C2753"/>
<path d="M14.3717 4.01657C16.0202 4.20738 17.5898 4.8274 18.9239 5.81473C20.9082 7.28403 22.161 9.23958 22.7035 11.6485C22.7622 11.9092 22.7963 12.1758 22.8362 12.4413C22.8637 12.5744 22.8376 12.713 22.7635 12.8269C22.6894 12.9409 22.5733 13.0209 22.4405 13.0497C22.1916 13.1025 21.9556 12.9381 21.8804 12.6398C21.709 11.968 21.6198 11.2644 21.3708 10.6231C20.1755 7.55417 17.9458 5.69611 14.7075 5.06305C14.5502 5.03251 14.3893 5.01372 14.2378 4.97144C13.9443 4.88922 13.787 4.65432 13.8527 4.39593C13.8766 4.27947 13.943 4.17607 14.0389 4.10593C14.1349 4.03578 14.2535 4.00392 14.3717 4.01657Z" fill="#2C2753"/>
<path d="M1.26736 14.1806C0.999653 14.1806 0.73076 14.1923 0.463052 14.1806C0.400621 14.1834 0.338288 14.1732 0.280021 14.1506C0.221754 14.128 0.168843 14.0935 0.124651 14.0493C0.0804602 14.0051 0.0459733 13.9522 0.0233749 13.8939C0.000776455 13.8356 -0.00944809 13.7732 -0.00660963 13.7108C-0.0112005 13.648 -0.00261636 13.585 0.018559 13.5257C0.0397344 13.4664 0.0730402 13.4122 0.116367 13.3665C0.159694 13.3209 0.212077 13.2847 0.27016 13.2605C0.328242 13.2363 0.390756 13.2244 0.453679 13.2257C0.999661 13.2011 1.54917 13.1999 2.0975 13.2257C2.16019 13.2239 2.22257 13.2353 2.28061 13.2591C2.33866 13.2828 2.39109 13.3185 2.43455 13.3637C2.47801 13.4089 2.51151 13.4628 2.53293 13.5217C2.55435 13.5807 2.56321 13.6435 2.55893 13.7061C2.55893 13.9845 2.38749 14.1571 2.07046 14.1935C2.03852 14.1976 2.0064 14.1999 1.9742 14.2006H1.26971L1.26736 14.1806Z" fill="#2C2753"/>
<path d="M25.1031 14.1831C24.8354 14.1831 24.5665 14.1949 24.2988 14.1831C24.2364 14.1858 24.1741 14.1754 24.116 14.1528C24.0578 14.1301 24.0049 14.0956 23.9608 14.0514C23.9166 14.0073 23.8821 13.9544 23.8595 13.8962C23.8368 13.838 23.8265 13.7757 23.8291 13.7133C23.8249 13.6483 23.8342 13.5831 23.8565 13.5219C23.8788 13.4607 23.9136 13.4048 23.9586 13.3577C24.0037 13.3107 24.058 13.2735 24.1182 13.2486C24.1784 13.2237 24.2431 13.2115 24.3082 13.213C24.8436 13.1954 25.3814 13.1954 25.9168 13.213C25.9818 13.2134 26.0461 13.2269 26.1058 13.2529C26.1654 13.2788 26.2192 13.3166 26.2639 13.3639C26.3086 13.4112 26.3432 13.4671 26.3657 13.5282C26.3881 13.5892 26.398 13.6542 26.3947 13.7192C26.3935 13.7815 26.3799 13.8429 26.3547 13.9C26.3295 13.957 26.2932 14.0084 26.248 14.0512C26.2028 14.0941 26.1495 14.1275 26.0912 14.1495C26.0329 14.1716 25.9708 14.1818 25.9086 14.1796C25.6409 14.1913 25.372 14.1796 25.1043 14.1796L25.1031 14.1831Z" fill="#2C2753"/>
<path d="M5.88927 21.5318C5.81104 21.686 5.71868 21.8327 5.61336 21.9698C5.28929 22.3128 4.95231 22.6452 4.61415 22.974C4.35114 23.2289 4.09282 23.2489 3.87443 23.0457C3.65604 22.8425 3.66777 22.5489 3.92609 22.2823C4.27011 21.9299 4.6071 21.5635 4.98283 21.2452C5.06135 21.1908 5.15036 21.1532 5.24414 21.1351C5.33793 21.1169 5.43447 21.1184 5.52765 21.1395C5.6662 21.1759 5.76011 21.3814 5.88927 21.5318Z" fill="#2C2753"/>
<path d="M21.0311 21.0092C21.1712 21.0776 21.3041 21.1598 21.4279 21.2546C21.7864 21.5952 22.1363 21.9441 22.4776 22.3011C22.7207 22.5536 22.7277 22.8379 22.5176 23.0399C22.3074 23.2419 22.0397 23.2325 21.779 22.9788C21.4268 22.6347 21.0745 22.2835 20.7317 21.9311C20.5684 21.7632 20.4898 21.5506 20.6271 21.3439C20.7223 21.2112 20.8878 21.1254 21.0311 21.0092Z" fill="#2C2753"/>
<path d="M4.16844 4.17029C4.30429 4.22248 4.43323 4.29111 4.55239 4.37465C4.93282 4.7364 5.30738 5.10519 5.66902 5.48691C5.72058 5.53101 5.76198 5.58576 5.79036 5.6474C5.81874 5.70904 5.83344 5.77609 5.83344 5.84396C5.83344 5.91182 5.81874 5.97887 5.79036 6.04051C5.76198 6.10215 5.72058 6.1569 5.66902 6.201C5.57076 6.28654 5.44283 6.33004 5.31281 6.32213C5.1828 6.31422 5.0611 6.25554 4.97393 6.15872C4.60407 5.80637 4.22479 5.45402 3.89251 5.05821C3.83851 4.97905 3.80174 4.88943 3.78455 4.79515C3.76736 4.70087 3.77014 4.60403 3.79272 4.51089C3.82207 4.37583 4.02754 4.28774 4.16844 4.17029Z" fill="#2C2753"/>
<path d="M22.733 4.66367C22.6651 4.81443 22.5817 4.95771 22.4841 5.09119C22.146 5.44355 21.7949 5.7959 21.4415 6.1412C21.2066 6.36553 20.919 6.3761 20.7229 6.1964C20.5057 5.99321 20.5045 5.71016 20.7475 5.45764C21.0998 5.08767 21.4603 4.71183 21.8489 4.37827C21.9244 4.32597 22.0101 4.29034 22.1004 4.27373C22.1907 4.25712 22.2835 4.25993 22.3726 4.28196C22.5123 4.32189 22.6015 4.52273 22.733 4.66367Z" fill="#2C2753"/>
<path d="M15.7804 13.6838C15.7845 14.3676 15.5183 15.0252 15.0397 15.5134C14.5611 16.0016 13.9089 16.2808 13.2255 16.2901C12.8841 16.2944 12.5452 16.231 12.2285 16.1036C11.9117 15.9761 11.6234 15.7871 11.3801 15.5475C11.1368 15.3078 10.9435 15.0223 10.8112 14.7075C10.6789 14.3927 10.6104 14.0547 10.6095 13.7132C10.6067 13.3721 10.6714 13.0338 10.8 12.7179C10.9285 12.402 11.1184 12.1146 11.3585 11.8724C11.5987 11.6302 11.8844 11.438 12.1992 11.3068C12.5139 11.1757 12.8516 11.1081 13.1926 11.1082C13.8764 11.1091 14.5322 11.3803 15.0169 11.8628C15.5016 12.3453 15.7761 12.9998 15.7804 13.6838ZM13.209 12.0959C12.9971 12.093 12.7867 12.1319 12.5899 12.2105C12.3931 12.289 12.2137 12.4057 12.0621 12.5538C11.9105 12.7019 11.7896 12.8784 11.7063 13.0734C11.623 13.2683 11.5791 13.4777 11.577 13.6897C11.5802 14.1175 11.75 14.5272 12.0504 14.8318C12.3507 15.1364 12.7579 15.3119 13.1856 15.3211C13.6078 15.3144 14.0113 15.1453 14.3123 14.849C14.6134 14.5527 14.7888 14.1519 14.8024 13.7296C14.8053 13.5176 14.7664 13.3071 14.6878 13.1102C14.6093 12.9132 14.4927 12.7337 14.3447 12.582C14.1967 12.4302 14.0202 12.3091 13.8253 12.2257C13.6304 12.1423 13.421 12.0982 13.209 12.0959Z" fill="#2C2753"/>
</svg>
