<svg width="34" height="34" viewBox="0 0 34 34" fill="none" xmlns="http://www.w3.org/2000/svg">
<path d="M20.8803 17.5502L22.3439 16.9421C22.3439 16.4361 22.3439 15.9172 22.3439 15.3983C22.3439 14.938 22.5129 14.7643 22.9624 14.7631C23.9671 14.7584 24.9718 14.7584 25.9764 14.7631C26.4283 14.7631 26.5715 14.911 26.5773 15.3689C26.5832 15.8268 26.5856 16.2705 26.5773 16.7202C26.5661 16.7928 26.5835 16.8669 26.6261 16.9267C26.6686 16.9866 26.7328 17.0275 26.805 17.0407C27.1571 17.1687 27.5022 17.3413 27.8613 17.4704C27.9147 17.4848 27.9707 17.4871 28.0251 17.4772C28.0795 17.4672 28.131 17.4452 28.1759 17.4129C28.528 17.0912 28.8484 16.7472 29.1864 16.4161C29.4646 16.1449 29.7275 16.1344 29.9998 16.4032C30.7321 17.1241 31.459 17.8504 32.1805 18.5822C32.4762 18.8828 32.4668 19.107 32.1629 19.4181C31.8589 19.7292 31.5338 20.0626 31.2051 20.3702C31.0608 20.5052 31.0514 20.6144 31.1382 20.7894C31.2962 21.0964 31.4292 21.4155 31.5361 21.7438C31.603 21.9587 31.711 22.001 31.9093 21.9963C32.3483 21.9845 32.7873 21.988 33.225 21.9963C33.6628 22.0045 33.8389 22.1841 33.84 22.6103C33.84 23.6137 33.84 24.6182 33.84 25.624C33.84 26.0584 33.6687 26.2251 33.2297 26.2298C32.7908 26.2345 32.3518 26.2427 31.914 26.2298C31.6899 26.2216 31.596 26.3002 31.5279 26.5162C31.4263 26.8343 31.2967 27.1427 31.1406 27.4379C31.0408 27.6292 31.0749 27.7455 31.2227 27.884C31.542 28.1845 31.8507 28.4968 32.1617 28.8115C32.4727 29.1261 32.4821 29.3597 32.1711 29.6732C31.4567 30.3948 30.738 31.1133 30.015 31.8287C29.7146 32.1257 29.4881 32.1199 29.1805 31.8205C28.873 31.5211 28.535 31.1912 28.2263 30.8637C28.1808 30.7985 28.1115 30.7538 28.0333 30.7393C27.9551 30.7248 27.8744 30.7416 27.8085 30.7862C27.4896 30.9449 27.1602 31.0818 26.8226 31.1959C26.6278 31.2617 26.582 31.3614 26.5879 31.5481C26.5985 31.9978 26.5961 32.4486 26.5879 32.8994C26.582 33.3185 26.413 33.4864 26.0011 33.4923C24.9839 33.4923 23.9667 33.4923 22.9495 33.4923C22.5458 33.4923 22.3627 33.3045 22.3545 32.8971C22.3474 32.4462 22.3451 31.9954 22.3545 31.5458C22.3545 31.3591 22.3134 31.2605 22.1197 31.1936C21.7821 31.0782 21.4524 30.9409 21.1327 30.7826C21.0725 30.7399 20.998 30.7225 20.9251 30.7341C20.8523 30.7457 20.7869 30.7855 20.743 30.8449C20.4249 31.1795 20.0963 31.5035 19.7642 31.8252C19.459 32.121 19.236 32.1199 18.9297 31.817C18.2161 31.1126 17.5056 30.4027 16.7983 29.6873C16.4849 29.3715 16.4896 29.1214 16.8135 28.7997C17.1797 28.4334 17.5541 28.073 17.9098 27.7267C17.7208 27.2571 17.5576 26.8321 17.3699 26.4141C17.3402 26.3668 17.3004 26.3268 17.2533 26.2969C17.2062 26.267 17.153 26.2481 17.0976 26.2415C16.6363 26.2239 16.1739 26.2415 15.7126 26.2321C15.2784 26.2251 15.1258 26.0783 15.1258 25.6451C15.1195 24.6276 15.1195 23.6102 15.1258 22.5927C15.1258 22.1641 15.3077 21.9963 15.7467 21.9916C16.1856 21.9869 16.6481 21.9998 17.0976 21.9833C17.1527 21.98 17.2064 21.9643 17.2548 21.9375C17.3031 21.9107 17.3448 21.8734 17.3769 21.8284C17.5659 21.4116 17.729 20.9819 17.9121 20.5205C17.5811 20.1953 17.2337 19.8584 16.8898 19.5179C16.4567 19.087 16.4603 18.8957 16.9004 18.4613C17.5443 17.8156 18.1895 17.1706 18.8358 16.5265C19.2665 16.0956 19.459 16.0968 19.898 16.5382C20.2172 16.8681 20.5435 17.2074 20.8803 17.5502ZM16.1046 25.246C16.6035 25.246 17.0753 25.2589 17.5447 25.246C17.9203 25.233 18.0975 25.408 18.2184 25.752C18.4202 26.3142 18.6501 26.8659 18.9074 27.405C19.0564 27.722 19.047 27.9685 18.79 28.2092C18.4379 28.5367 18.0928 28.876 17.7853 29.1707L19.4285 30.8237C19.7325 30.5021 20.0623 30.1651 20.3792 29.8153C20.6268 29.5417 20.8733 29.5182 21.2078 29.6861C21.7106 29.9387 22.2283 30.1602 22.7582 30.3494C23.2781 30.5349 23.345 30.596 23.3521 31.1619C23.3521 31.5974 23.3521 32.0318 23.3521 32.4803H25.6067C25.6067 31.979 25.6161 31.4965 25.6067 31.0139C25.5985 30.6723 25.7569 30.495 26.0762 30.3788C26.6466 30.1686 27.2146 29.9467 27.7616 29.6838C28.082 29.53 28.3214 29.537 28.5644 29.7953C28.8953 30.1475 29.2357 30.4915 29.5526 30.8179L31.1875 29.1825C30.8636 28.8713 30.5197 28.532 30.1664 28.2045C29.9071 27.9638 29.8871 27.7255 30.0491 27.4038C30.3056 26.8768 30.5337 26.3364 30.7322 25.7848C30.893 25.3446 30.9763 25.2518 31.4446 25.2507H32.853V22.9871C32.3577 22.9871 31.887 22.9789 31.4164 22.9871C31.049 22.9954 30.8624 22.8286 30.7415 22.4788C30.5467 21.9271 30.3234 21.386 30.0725 20.8575C29.8801 20.443 29.8719 20.3327 30.2028 20.0051C30.5338 19.6776 30.8765 19.3477 31.1934 19.0401L29.5655 17.4176C29.2475 17.7451 28.9036 18.0868 28.5726 18.4401C28.3379 18.6902 28.1031 18.7031 27.7956 18.5575C27.244 18.3016 26.6841 18.0574 26.1114 17.8531C25.7593 17.7287 25.6067 17.5385 25.6196 17.1699C25.6349 16.7002 25.6196 16.2306 25.6196 15.761H23.365C23.365 16.2494 23.365 16.7108 23.365 17.1699C23.365 17.6136 23.2558 17.7158 22.8427 17.8672C22.3052 18.0633 21.7711 18.2793 21.2512 18.52C20.8346 18.7125 20.7043 18.7172 20.3686 18.3791C20.0329 18.041 19.7172 17.7064 19.4461 17.427L17.8217 19.0436C18.1316 19.35 18.4614 19.6881 18.8053 20.0122C19.0764 20.2681 19.0787 20.5205 18.9226 20.8481C18.6765 21.3427 18.462 21.8524 18.2806 22.3743C18.0975 22.9026 18.0365 22.9777 17.4767 22.9801H16.1351L16.1046 25.246Z" fill="#2C2753"/>
<path d="M13.8191 16.4384C13.359 16.6239 12.9494 16.7753 12.5527 16.9573C12.5006 16.9872 12.4559 17.0285 12.422 17.0781C12.388 17.1277 12.3657 17.1843 12.3567 17.2437C12.3356 17.704 12.3567 18.1665 12.3461 18.6291C12.3403 19.0435 12.1677 19.222 11.7593 19.2243C10.7327 19.229 9.70538 19.229 8.67724 19.2243C8.27349 19.2243 8.12326 19.0635 8.11739 18.6479C8.11035 18.1865 8.10683 17.7239 8.11739 17.2625C8.1267 17.1892 8.10755 17.1151 8.06388 17.0555C8.02021 16.9959 7.95535 16.9552 7.88266 16.942C7.53613 16.8181 7.19611 16.6766 6.8639 16.5182C6.80291 16.4783 6.72869 16.4641 6.65729 16.4786C6.58589 16.4931 6.52307 16.5352 6.48246 16.5957C6.16322 16.9291 5.83577 17.2543 5.50479 17.5772C5.22663 17.846 4.96372 17.8507 4.69143 17.5772C3.95984 16.8555 3.23295 16.1292 2.51074 15.3982C2.22554 15.1082 2.23024 14.8804 2.51074 14.5893C2.82412 14.2652 3.13632 13.94 3.46847 13.636C3.63748 13.4798 3.63748 13.353 3.54006 13.1593C3.38809 12.8621 3.25938 12.5536 3.15509 12.2365C3.09289 12.0475 3.00955 11.9818 2.81472 11.9865C2.3652 11.9994 1.91451 11.9959 1.46382 11.9865C1.03778 11.9794 0.854689 11.7963 0.853516 11.3689C0.853516 10.364 0.853516 9.35939 0.853516 8.35521C0.853516 7.92552 1.02604 7.7588 1.46852 7.75293C1.911 7.74706 2.34525 7.74354 2.78421 7.75293C2.98373 7.75293 3.08937 7.70832 3.15509 7.49582C3.26042 7.16715 3.39393 6.8482 3.55414 6.54252C3.65625 6.34646 3.60931 6.23375 3.46612 6.09756C3.13984 5.78762 2.82294 5.46711 2.51074 5.14308C2.22906 4.85075 2.22554 4.61947 2.51074 4.33418C3.23373 3.60315 3.96024 2.87643 4.69027 2.15402C4.98955 1.85816 5.21255 1.86403 5.52592 2.16693C5.8569 2.48861 6.17143 2.82791 6.51297 3.13785C6.56264 3.1724 6.61936 3.19549 6.67904 3.20544C6.73871 3.21538 6.79986 3.21195 6.85804 3.19538C7.1409 3.10145 7.40145 2.92535 7.68782 2.8596C8.06105 2.7739 8.14439 2.57197 8.11857 2.22446C8.08923 1.83351 8.10566 1.43904 8.11857 1.05044C8.12796 0.67827 8.30401 0.498645 8.67606 0.496297C9.70342 0.490818 10.7308 0.490818 11.7581 0.496297C12.1584 0.496297 12.345 0.688836 12.345 1.0974C12.345 1.54705 12.3544 1.99787 12.345 2.44752C12.3371 2.48608 12.337 2.52581 12.3445 2.56442C12.3521 2.60304 12.3672 2.63977 12.389 2.67251C12.4108 2.70525 12.4389 2.73335 12.4717 2.75518C12.5044 2.77702 12.5411 2.79216 12.5797 2.79973C12.9174 2.9143 13.2468 3.05199 13.5656 3.21181C13.6263 3.25389 13.701 3.27058 13.7738 3.25829C13.8466 3.24601 13.9117 3.20573 13.9553 3.14607C14.2651 2.81969 14.5867 2.50388 14.9083 2.18806C15.2299 1.87225 15.4517 1.86286 15.7674 2.17398C16.4826 2.87839 17.193 3.58867 17.8988 4.30483C18.211 4.62064 18.204 4.86953 17.8812 5.19474C17.5174 5.56221 17.1477 5.92615 16.7932 6.27836C16.9763 6.73271 17.1383 7.1624 17.3272 7.57918C17.3569 7.62641 17.397 7.66627 17.4444 7.69576C17.4917 7.72525 17.5452 7.7436 17.6007 7.74941C18.0619 7.76702 18.5244 7.74941 18.9856 7.75881C19.4175 7.76585 19.5725 7.91378 19.5725 8.34582C19.5787 9.3633 19.5787 10.3808 19.5725 11.3983C19.5725 11.8244 19.3882 11.9853 18.9481 11.9959C18.5079 12.0064 18.0479 12.0076 17.5972 11.9959C17.4117 11.9959 17.3401 12.0628 17.2814 12.2248C17.1638 12.5616 17.0266 12.8913 16.8707 13.2121C16.7768 13.3953 16.8202 13.4939 16.954 13.6207C17.2803 13.9306 17.5972 14.2512 17.9117 14.574C18.1969 14.8687 18.1993 15.1293 17.9117 15.4158C17.1965 16.1366 16.4783 16.8551 15.7568 17.5713C15.4681 17.8578 15.2052 17.8601 14.9177 17.5713C14.5503 17.198 14.1841 16.8117 13.8191 16.4384ZM3.5248 4.78735C3.86634 5.12312 4.20906 5.46476 4.55764 5.80053C4.80177 6.03534 4.81584 6.27014 4.66796 6.57539C4.4074 7.12366 4.17737 7.68954 3.9708 8.26011C3.85344 8.59001 3.67151 8.75438 3.31588 8.74381C2.83468 8.7309 2.35348 8.74381 1.85819 8.74381V11.0015C2.357 11.0015 2.8382 11.0085 3.31941 11.0015C3.67151 11.0015 3.85578 11.16 3.9708 11.4922C4.15834 12.0348 4.37459 12.567 4.61866 13.0865C4.84401 13.5561 4.8534 13.6454 4.48017 14.0257C4.15741 14.3486 3.83231 14.6691 3.56119 14.9368L5.16912 16.5569C5.45785 16.2611 5.77004 15.9359 6.08693 15.6177C6.43903 15.2655 6.5564 15.2655 6.99653 15.4745C7.50473 15.7093 8.02702 15.9265 8.55517 16.1167C8.99765 16.2763 9.09389 16.3773 9.09506 16.8681V18.2334H11.3497C11.3497 17.731 11.3497 17.2484 11.3497 16.7659C11.3497 16.436 11.4929 16.2529 11.8192 16.1402C12.3823 15.9428 12.9347 15.7159 13.474 15.4604C13.8743 15.2749 14.0116 15.2667 14.3297 15.5907C14.6477 15.9147 14.9799 16.274 15.285 16.5957L16.9352 14.945C16.5948 14.6198 16.2392 14.2758 15.8789 13.9377C15.6442 13.7146 15.636 13.4798 15.7686 13.1898C16.0209 12.6369 16.2662 12.078 16.4728 11.5051C16.5901 11.1529 16.7873 10.9979 17.1523 11.0062C17.6218 11.0179 18.0913 11.0062 18.5795 11.0062V8.74498H17.1805C16.7322 8.74498 16.6324 8.64637 16.4763 8.23781C16.2662 7.68014 16.0385 7.12601 15.785 6.58713C15.6348 6.26897 15.6489 6.02477 15.9106 5.7841C16.2627 5.45772 16.6078 5.1196 16.9176 4.82257C16.3554 4.26139 15.8378 3.7413 15.2956 3.20007C15.0045 3.49358 14.69 3.81174 14.3731 4.12872C13.9963 4.50441 13.9036 4.49619 13.4341 4.26843C12.949 4.03078 12.4506 3.82145 11.9412 3.6415C11.4295 3.46305 11.3544 3.39731 11.3544 2.86665C11.3544 2.41935 11.3544 1.97204 11.3544 1.51652H9.10093C9.10093 2.019 9.09037 2.49214 9.10093 2.96409C9.11032 3.3163 8.95071 3.50297 8.61973 3.62155C8.05871 3.8223 7.50709 4.05241 6.96485 4.30131C6.55524 4.48915 6.44726 4.49502 6.11394 4.16042C5.78061 3.82583 5.46019 3.48771 5.15151 3.16837L3.5248 4.78735Z" fill="#2C2753"/>
<path d="M6.96861 23.8899C8.61175 26.2896 10.776 27.9402 13.5083 28.8466L13.7043 28.9123C14.0893 29.0438 14.236 29.2645 14.148 29.5686C14.0647 29.8586 13.7888 29.9666 13.405 29.8492C11.826 29.3653 10.3498 28.594 9.0507 27.5739C8.03467 26.7906 7.14587 25.8548 6.41581 24.7997C6.20455 24.491 6.01441 24.3736 5.62475 24.4053C5.10782 24.4445 4.59486 24.2893 4.1863 23.9701C3.77774 23.6509 3.503 23.1906 3.41589 22.6794C3.23397 21.5477 3.86307 20.5415 4.94872 20.2281C5.37925 20.1086 5.83638 20.127 6.25592 20.2807C6.67546 20.4344 7.03632 20.7157 7.28784 21.0851C7.54375 21.4655 7.67182 21.9175 7.65346 22.3756C7.63509 22.8337 7.47126 23.2741 7.18573 23.6327C7.12235 23.7126 7.05311 23.7889 6.96861 23.8899ZM5.52147 23.4426C5.82379 23.4435 6.11432 23.3252 6.33006 23.1134C6.54581 22.9015 6.66938 22.6132 6.67401 22.3108C6.67542 22.1582 6.64643 22.0068 6.58872 21.8655C6.53102 21.7242 6.44576 21.5958 6.33793 21.4879C6.23009 21.3799 6.10184 21.2945 5.96065 21.2366C5.81946 21.1788 5.66817 21.1496 5.5156 21.1509C5.21332 21.154 4.92455 21.2766 4.71235 21.4919C4.50014 21.7073 4.38174 21.9978 4.383 22.3002C4.3833 22.602 4.50295 22.8913 4.71582 23.1051C4.92868 23.3189 5.21747 23.4398 5.51912 23.4414L5.52147 23.4426Z" fill="#2C2753"/>
<path d="M28.5844 9.60446C29.9552 9.46827 30.8625 9.96723 31.2087 11.045C31.3598 11.5159 31.3431 12.0247 31.1615 12.4847C30.9798 12.9447 30.6444 13.3275 30.2123 13.568C29.7793 13.8072 29.277 13.8896 28.7903 13.8013C28.3036 13.7129 27.8623 13.4592 27.541 13.0831C26.8204 12.2507 26.8779 11.1964 27.7123 10.0858C26.1605 7.75024 23.865 6.00799 21.1984 5.142C21.0999 5.10912 20.9978 5.08799 20.9003 5.05277C20.5846 4.93537 20.4473 4.69117 20.5365 4.40706C20.6175 4.14643 20.8698 4.00554 21.1832 4.11238C21.7964 4.31012 22.3992 4.53856 22.9895 4.79683C25.1976 5.80299 27.0848 7.40017 28.4424 9.41192C28.4881 9.47884 28.5386 9.54106 28.5844 9.60446ZM30.3062 11.6942C30.308 11.3917 30.19 11.1009 29.978 10.8852C29.7659 10.6696 29.4771 10.5468 29.1747 10.5437C28.8726 10.5408 28.5815 10.6571 28.3645 10.8674C28.1474 11.0777 28.0219 11.365 28.0152 11.6672C28.0127 11.8198 28.0406 11.9714 28.0973 12.1131C28.154 12.2548 28.2383 12.3838 28.3454 12.4925C28.4525 12.6013 28.5801 12.6876 28.7209 12.7465C28.8617 12.8053 29.0128 12.8355 29.1653 12.8354C29.4675 12.8341 29.757 12.7135 29.9707 12.4998C30.1843 12.286 30.3049 11.9965 30.3062 11.6942Z" fill="#2C2753"/>
<path d="M24.4756 28.3231C23.3607 28.3234 22.291 27.8818 21.5008 27.0949C20.7107 26.3081 20.2644 25.2401 20.2598 24.1248C20.2595 23.5696 20.3688 23.0198 20.5816 22.507C20.7944 21.9942 21.1065 21.5285 21.4997 21.1367C21.893 20.745 22.3599 20.4348 22.8734 20.2241C23.3869 20.0134 23.937 19.9062 24.492 19.9089C26.7748 19.9089 28.6868 21.8296 28.6762 24.1083C28.6759 25.2238 28.2336 26.2937 27.4463 27.0837C26.659 27.8737 25.5908 28.3194 24.4756 28.3231ZM27.6786 24.1095C27.6783 23.2575 27.3404 22.4402 26.739 21.8369C26.1375 21.2335 25.3215 20.8931 24.4697 20.8903C23.6188 20.8961 22.8042 21.2361 22.2013 21.8369C21.5985 22.4377 21.2557 23.2513 21.2468 24.1025C21.2459 24.9546 21.5825 25.7725 22.183 26.3769C22.7836 26.9814 23.5991 27.3232 24.451 27.3275C24.8751 27.3319 25.296 27.2517 25.6888 27.0917C26.0817 26.9316 26.4388 26.6949 26.7392 26.3954C27.0397 26.0958 27.2775 25.7394 27.4388 25.347C27.6 24.9545 27.6816 24.5338 27.6786 24.1095Z" fill="#2C2753"/>
<path d="M14.4309 9.87192C14.4278 10.9883 13.9822 12.0579 13.1919 12.8463C12.4017 13.6346 11.3311 14.0773 10.215 14.0773C9.10033 14.072 8.03286 13.6263 7.24519 12.8373C6.45752 12.0483 6.01347 10.9799 6.00977 9.86487C6.0113 9.3096 6.12249 8.7601 6.33698 8.24794C6.55147 7.73579 6.86503 7.27108 7.25962 6.88052C7.65421 6.48996 8.12207 6.18124 8.63631 5.9721C9.15054 5.76297 9.70102 5.65754 10.2561 5.66187C11.3651 5.67511 12.4244 6.12399 13.2055 6.91164C13.9865 7.69928 14.4267 8.76253 14.4309 9.87192ZM7.01207 9.86135C7.01207 11.6412 8.45218 13.1005 10.2057 13.0946C11.0637 13.0931 11.8863 12.7519 12.4937 12.1456C13.1011 11.5394 13.4439 10.7173 13.4473 9.859C13.443 9.00676 13.1008 8.19105 12.496 7.59084C11.8911 6.99063 11.0729 6.65494 10.2209 6.65744C9.79932 6.65496 9.38141 6.73609 8.99136 6.89615C8.60131 7.0562 8.24685 7.29201 7.94846 7.58994C7.65008 7.88787 7.41368 8.24201 7.25296 8.63189C7.09223 9.02176 7.01036 9.43963 7.01207 9.86135Z" fill="#2C2753"/>
</svg>
