<svg width="358" height="42" viewBox="0 0 358 42" fill="none" xmlns="http://www.w3.org/2000/svg">
<mask id="path-1-outside-1_25_1536" maskUnits="userSpaceOnUse" x="-1" y="-1" width="361" height="44" fill="black">
<rect fill="white" x="-1" y="-1" width="361" height="44"/>
<path d="M23.7188 11C23.4844 9.02083 22.5339 7.48438 20.8672 6.39062C19.2005 5.29687 17.1563 4.75 14.7344 4.75C12.9635 4.75 11.4141 5.03646 10.0859 5.60937C8.77083 6.18229 7.74219 6.97005 7 7.97265C6.27083 8.97526 5.90625 10.1146 5.90625 11.3906C5.90625 12.4583 6.16016 13.3763 6.66797 14.1445C7.1888 14.8997 7.85286 15.5312 8.66016 16.0391C9.46745 16.5339 10.3138 16.944 11.1992 17.2695C12.0846 17.582 12.8984 17.8359 13.6406 18.0312L17.7031 19.125C18.7448 19.3984 19.9036 19.776 21.1797 20.2578C22.4688 20.7396 23.6992 21.3971 24.8711 22.2305C26.056 23.0508 27.0326 24.1055 27.8008 25.3945C28.569 26.6836 28.9531 28.2656 28.9531 30.1406C28.9531 32.3021 28.3867 34.2552 27.2539 36C26.1341 37.7448 24.4935 39.1315 22.332 40.1602C20.1836 41.1888 17.5729 41.7031 14.5 41.7031C11.6354 41.7031 9.15495 41.2409 7.05859 40.3164C4.97526 39.3919 3.33464 38.1029 2.13672 36.4492C0.951823 34.7956 0.28125 32.875 0.125 30.6875H5.125C5.25521 32.1979 5.76302 33.4479 6.64844 34.4375C7.54688 35.4141 8.67969 36.1432 10.0469 36.625C11.4271 37.0937 12.9115 37.3281 14.5 37.3281C16.349 37.3281 18.0091 37.0286 19.4805 36.4297C20.9518 35.8177 22.1172 34.9714 22.9766 33.8906C23.8359 32.7969 24.2656 31.5208 24.2656 30.0625C24.2656 28.7344 23.8945 27.6536 23.1523 26.8203C22.4102 25.987 21.4336 25.3099 20.2227 24.7891C19.0117 24.2682 17.7031 23.8125 16.2969 23.4219L11.375 22.0156C8.25 21.1172 5.77604 19.8346 3.95312 18.168C2.13021 16.5013 1.21875 14.3203 1.21875 11.625C1.21875 9.38541 1.82422 7.43229 3.03516 5.76562C4.25911 4.08594 5.89974 2.78385 7.95703 1.85937C10.0273 0.921874 12.3385 0.453124 14.8906 0.453124C17.4688 0.453124 19.7604 0.915363 21.7656 1.83984C23.7708 2.7513 25.3594 4.0013 26.5312 5.58984C27.7161 7.17838 28.3411 8.98177 28.4063 11H23.7188ZM36.917 41V0.999999H50.4326C53.5706 0.999999 56.1357 1.5664 58.1279 2.69922C60.1331 3.81901 61.6175 5.33594 62.5811 7.25C63.5446 9.16406 64.0264 11.2995 64.0264 13.6562C64.0264 16.013 63.5446 18.1549 62.5811 20.082C61.6305 22.0091 60.1592 23.5456 58.167 24.6914C56.1748 25.8242 53.6227 26.3906 50.5107 26.3906H40.8232V22.0938H50.3545C52.5029 22.0938 54.2282 21.7227 55.5303 20.9805C56.8324 20.2383 57.7764 19.2357 58.3623 17.9727C58.9613 16.6966 59.2607 15.2578 59.2607 13.6562C59.2607 12.0547 58.9613 10.6224 58.3623 9.35937C57.7764 8.09635 56.8258 7.10677 55.5107 6.39062C54.1956 5.66146 52.4508 5.29687 50.2764 5.29687H41.7607V41H36.917ZM76.6729 0.999999V41H71.8291V0.999999H76.6729ZM86.3848 41V0.999999H91.2285V20.8437H91.6973L109.666 0.999999H115.994L99.1973 19.0469L115.994 41H110.135L96.2285 22.4062L91.2285 28.0312V41H86.3848ZM122.264 41V0.999999H146.404V5.29687H127.107V18.8125H145.154V23.1094H127.107V36.7031H146.717V41H122.264ZM170.604 41V0.999999H194.588V5.29687H175.447V18.8125H192.791V23.1094H175.447V41H170.604ZM199.529 41H194.451L209.139 0.999999H214.139L228.826 41H223.748L211.795 7.32812H211.482L199.529 41ZM201.404 25.375H221.873V29.6719H201.404V25.375ZM235.057 0.999999H240.838L254.432 34.2031H254.9L268.494 0.999999H274.275V41H269.744V10.6094H269.354L256.854 41H252.479L239.979 10.6094H239.588V41H235.057V0.999999ZM288.831 0.999999V41H283.987V0.999999H288.831ZM298.543 41V0.999999H303.387V36.7031H321.98V41H298.543ZM324.163 0.999999H329.71L340.804 19.6719H341.272L352.366 0.999999H357.913L343.46 24.5156V41H338.616V24.5156L324.163 0.999999Z"/>
</mask>
<path d="M23.7188 11L22.7257 11.1176L22.8302 12H23.7188V11ZM20.8672 6.39062L20.3185 7.22667V7.22667L20.8672 6.39062ZM10.0859 5.60937L9.68984 4.69116L9.68655 4.69259L10.0859 5.60937ZM7 7.97265L6.19623 7.37766L6.19126 7.38448L7 7.97265ZM6.66797 14.1445L5.83375 14.696L5.83917 14.7042L5.84476 14.7123L6.66797 14.1445ZM8.66016 16.0391L8.12767 16.8856L8.13759 16.8917L8.66016 16.0391ZM11.1992 17.2695L10.8541 18.2082L10.8664 18.2125L11.1992 17.2695ZM13.6406 18.0312L13.9006 17.0656L13.8951 17.0642L13.6406 18.0312ZM17.7031 19.125L17.4431 20.0906L17.4492 20.0922L17.7031 19.125ZM21.1797 20.2578L20.8265 21.1934L20.8296 21.1945L21.1797 20.2578ZM24.8711 22.2305L24.2915 23.0455L24.3019 23.0527L24.8711 22.2305ZM27.8008 25.3945L28.6598 24.8826V24.8826L27.8008 25.3945ZM27.2539 36L26.4152 35.4554L26.4123 35.4599L27.2539 36ZM22.332 40.1602L21.9023 39.2572L21.9002 39.2582L22.332 40.1602ZM7.05859 40.3164L6.65298 41.2305L6.65509 41.2314L7.05859 40.3164ZM2.13672 36.4492L1.32384 37.0317L1.32688 37.0359L2.13672 36.4492ZM0.125 30.6875V29.6875H-0.948976L-0.872459 30.7587L0.125 30.6875ZM5.125 30.6875L6.12131 30.6016L6.0425 29.6875H5.125V30.6875ZM6.64844 34.4375L5.90312 35.1044L5.91251 35.1146L6.64844 34.4375ZM10.0469 36.625L9.7145 37.5682L9.72529 37.5719L10.0469 36.625ZM19.4805 36.4297L19.8575 37.3559L19.8645 37.353L19.4805 36.4297ZM22.9766 33.8906L23.7593 34.513L23.7629 34.5084L22.9766 33.8906ZM23.1523 26.8203L23.8991 26.1552L23.1523 26.8203ZM20.2227 24.7891L19.8275 25.7077L20.2227 24.7891ZM16.2969 23.4219L16.0221 24.3834L16.0292 24.3854L16.2969 23.4219ZM11.375 22.0156L11.0987 22.9767L11.1003 22.9771L11.375 22.0156ZM3.95312 18.168L3.27836 18.906L3.27836 18.906L3.95312 18.168ZM3.03516 5.76562L2.22696 5.17671L2.22615 5.17783L3.03516 5.76562ZM7.95703 1.85937L8.36692 2.77151L8.36954 2.77033L7.95703 1.85937ZM21.7656 1.83984L21.3469 2.74799L21.3518 2.75021L21.7656 1.83984ZM26.5312 5.58984L25.7265 6.1835L25.7297 6.18774L26.5312 5.58984ZM28.4063 11V12H29.439L29.4057 10.9678L28.4063 11ZM24.7118 10.8824C24.4427 8.60978 23.3294 6.81036 21.4158 5.55458L20.3185 7.22667C21.7383 8.15839 22.5261 9.43189 22.7257 11.1176L24.7118 10.8824ZM21.4158 5.55458C19.5541 4.33281 17.3089 3.75 14.7344 3.75V5.75C17.0036 5.75 18.8469 6.26094 20.3185 7.22667L21.4158 5.55458ZM14.7344 3.75C12.8571 3.75 11.1678 4.05363 9.68985 4.69116L10.482 6.52758C11.6604 6.01929 13.07 5.75 14.7344 5.75V3.75ZM9.68655 4.69259C8.23522 5.32486 7.05749 6.21426 6.19626 7.37768L7.80374 8.56763C8.42689 7.72584 9.30645 7.03972 10.4853 6.52616L9.68655 4.69259ZM6.19126 7.38448C5.33395 8.56329 4.90625 9.90987 4.90625 11.3906H6.90625C6.90625 10.3193 7.20772 9.38722 7.80874 8.56083L6.19126 7.38448ZM4.90625 11.3906C4.90625 12.6224 5.2014 13.7393 5.83375 14.696L7.50219 13.5931C7.11891 13.0133 6.90625 12.2943 6.90625 11.3906H4.90625ZM5.84476 14.7123C6.44566 15.5836 7.21024 16.3084 8.12771 16.8855L9.19261 15.1926C8.49549 14.7541 7.93195 14.2159 7.49118 13.5768L5.84476 14.7123ZM8.13759 16.8917C9.00086 17.4208 9.90665 17.8598 10.8542 18.2081L11.5443 16.331C10.721 16.0283 9.93403 15.6469 9.18272 15.1865L8.13759 16.8917ZM10.8664 18.2125C11.7721 18.5322 12.6125 18.7947 13.3861 18.9983L13.8951 17.0642C13.1844 16.8771 12.3971 16.6319 11.532 16.3265L10.8664 18.2125ZM13.3807 18.9969L17.4432 20.0906L17.9631 18.1594L13.9006 17.0656L13.3807 18.9969ZM17.4492 20.0922C18.4498 20.3549 19.5748 20.7208 20.8265 21.1934L21.5329 19.3223C20.2324 18.8313 19.0398 18.442 17.957 18.1578L17.4492 20.0922ZM20.8296 21.1945C22.0336 21.6445 23.1874 22.2602 24.2916 23.0454L25.4506 21.4155C24.2111 20.5341 22.9039 19.8346 21.5298 19.3211L20.8296 21.1945ZM24.3019 23.0527C25.3642 23.7881 26.2437 24.7352 26.9418 25.9065L28.6598 24.8826C27.8214 23.4758 26.7478 22.3134 25.4403 21.4083L24.3019 23.0527ZM26.9418 25.9065C27.5973 27.0065 27.9531 28.4013 27.9531 30.1406H29.9531C29.9531 28.13 29.5407 26.3607 28.6598 24.8826L26.9418 25.9065ZM27.9531 30.1406C27.9531 32.1168 27.4385 33.8793 26.4152 35.4555L28.0926 36.5445C29.335 34.6311 29.9531 32.4874 29.9531 30.1406H27.9531ZM26.4123 35.4599C25.4081 37.0246 23.9219 38.2961 21.9023 39.2572L22.7618 41.0631C25.0651 39.9669 26.8602 38.4649 28.0955 36.5401L26.4123 35.4599ZM21.9002 39.2582C19.9198 40.2064 17.4652 40.7031 14.5 40.7031V42.7031C17.6806 42.7031 20.4474 42.1712 22.7639 41.0621L21.9002 39.2582ZM14.5 40.7031C11.7407 40.7031 9.40373 40.2577 7.46209 39.4014L6.65509 41.2314C8.90617 42.2241 11.5302 42.7031 14.5 42.7031V40.7031ZM7.4642 39.4024C5.52295 38.5409 4.02932 37.3572 2.94656 35.8626L1.32688 37.0359C2.63995 38.8485 4.42757 40.2429 6.65299 41.2305L7.4642 39.4024ZM2.94959 35.8668C1.88063 34.3749 1.26662 32.6345 1.12246 30.6163L-0.872459 30.7587C-0.704119 33.1155 0.0230145 35.2162 1.32385 37.0317L2.94959 35.8668ZM0.125 31.6875H5.125V29.6875H0.125V31.6875ZM4.1287 30.7734C4.27475 32.4676 4.85342 33.931 5.9032 35.1043L7.39368 33.7707C6.67262 32.9648 6.23567 31.9282 6.12131 30.6016L4.1287 30.7734ZM5.91251 35.1146C6.93169 36.2224 8.20764 37.0372 9.71453 37.5682L10.3792 35.6818C9.15173 35.2493 8.16206 34.6058 7.38437 33.7604L5.91251 35.1146ZM9.72529 37.5719C11.218 38.0788 12.8119 38.3281 14.5 38.3281V36.3281C13.011 36.3281 11.6362 36.1087 10.3685 35.6781L9.72529 37.5719ZM14.5 38.3281C16.4573 38.3281 18.2485 38.0109 19.8575 37.3559L19.1034 35.5035C17.7698 36.0464 16.2406 36.3281 14.5 36.3281V38.3281ZM19.8645 37.353C21.4678 36.6862 22.7794 35.7453 23.7593 34.513L22.1939 33.2682C21.455 34.1974 20.4359 34.9493 19.0964 35.5064L19.8645 37.353ZM23.7629 34.5084C24.7677 33.2295 25.2656 31.7332 25.2656 30.0625H23.2656C23.2656 31.3084 22.9041 32.3642 22.1902 33.2728L23.7629 34.5084ZM25.2656 30.0625C25.2656 28.5383 24.8344 27.2054 23.8991 26.1552L22.4056 27.4854C22.9547 28.1019 23.2656 28.9304 23.2656 30.0625H25.2656ZM23.8991 26.1552C23.0436 25.1946 21.9389 24.4387 20.6178 23.8704L19.8275 25.7077C20.9282 26.1811 21.7767 26.7793 22.4056 27.4854L23.8991 26.1552ZM20.6178 23.8704C19.3613 23.33 18.0097 22.8598 16.5645 22.4584L16.0292 24.3854C17.3966 24.7652 18.6622 25.2065 19.8275 25.7077L20.6178 23.8704ZM16.5716 22.4604L11.6497 21.0541L11.1003 22.9771L16.0222 24.3834L16.5716 22.4604ZM11.6513 21.0546C8.62953 20.1858 6.30682 18.965 4.62789 17.4299L3.27836 18.906C5.24527 20.7043 7.87047 22.0486 11.0987 22.9767L11.6513 21.0546ZM4.62789 17.4299C3.0324 15.9712 2.21875 14.0682 2.21875 11.625H0.21875C0.21875 14.5725 1.22801 17.0314 3.27836 18.906L4.62789 17.4299ZM2.21875 11.625C2.21875 9.57719 2.7683 7.83418 3.84417 6.35342L2.22615 5.17783C0.880136 7.0304 0.21875 9.19364 0.21875 11.625H2.21875ZM3.84335 6.35454C4.95627 4.82724 6.45431 3.63097 8.36692 2.77151L7.54715 0.947236C5.34517 1.93673 3.56196 3.34464 2.22696 5.17671L3.84335 6.35454ZM8.36954 2.77033C10.2952 1.89834 12.4633 1.45312 14.8906 1.45312V-0.546877C12.2138 -0.546877 9.75952 -0.0545979 7.54452 0.94842L8.36954 2.77033ZM14.8906 1.45312C17.3482 1.45312 19.4932 1.89334 21.3469 2.74797L22.1843 0.93171C20.0276 -0.0626144 17.5893 -0.546877 14.8906 -0.546877V1.45312ZM21.3518 2.75021C23.2202 3.59947 24.6672 4.74745 25.7265 6.18349L27.336 4.99619C26.0516 3.25515 24.3215 1.90313 22.1794 0.929475L21.3518 2.75021ZM25.7297 6.18774C26.7899 7.60911 27.3481 9.21423 27.4068 11.0322L29.4057 10.9678C29.3342 8.74931 28.6424 6.74766 27.3328 4.99195L25.7297 6.18774ZM28.4063 10H23.7188V12H28.4063V10ZM36.917 41H35.917V42H36.917V41ZM36.917 0.999999V-9.53674e-07H35.917V0.999999H36.917ZM58.1279 2.69922L57.6336 3.56853L57.6404 3.5723L58.1279 2.69922ZM62.5811 7.25L61.6878 7.69964L62.5811 7.25ZM62.5811 20.082L61.6866 19.6348L61.6842 19.6397L62.5811 20.082ZM58.167 24.6914L58.6613 25.5607L58.6656 25.5583L58.167 24.6914ZM40.8232 26.3906H39.8232V27.3906H40.8232V26.3906ZM40.8232 22.0938V21.0938H39.8232V22.0938H40.8232ZM55.5303 20.9805L55.0351 20.1117L55.5303 20.9805ZM58.3623 17.9727L57.4571 17.5477L57.4552 17.5518L58.3623 17.9727ZM58.3623 9.35937L57.4551 9.78023L57.4588 9.78786L58.3623 9.35937ZM55.5107 6.39062L55.0258 7.26521L55.0325 7.26885L55.5107 6.39062ZM41.7607 5.29687V4.29687H40.7607V5.29687H41.7607ZM41.7607 41V42H42.7607V41H41.7607ZM37.917 41V0.999999H35.917V41H37.917ZM36.917 2H50.4326V-9.53674e-07H36.917V2ZM50.4326 2C53.4585 2 55.8376 2.54725 57.6336 3.56851L58.6222 1.82993C56.4339 0.585561 53.6827 -9.53674e-07 50.4326 -9.53674e-07V2ZM57.6404 3.5723C59.4842 4.602 60.8207 5.97709 61.6878 7.69964L63.4743 6.80036C62.4143 4.69478 60.782 3.03602 58.6155 1.82613L57.6404 3.5723ZM61.6878 7.69964C62.5744 9.46073 63.0264 11.4398 63.0264 13.6562H65.0264C65.0264 11.1592 64.5148 8.86739 63.4743 6.80036L61.6878 7.69964ZM63.0264 13.6562C63.0264 15.8726 62.5744 17.8593 61.6866 19.6348L63.4755 20.5292C64.5148 18.4506 65.0264 16.1534 65.0264 13.6562H63.0264ZM61.6842 19.6397C60.8276 21.3763 59.5013 22.7704 57.6684 23.8246L58.6656 25.5583C60.8171 24.3208 62.4334 22.6419 63.4779 20.5244L61.6842 19.6397ZM57.6727 23.8221C55.8756 24.844 53.5089 25.3906 50.5107 25.3906V27.3906C53.7365 27.3906 56.474 26.8044 58.6613 25.5607L57.6727 23.8221ZM50.5107 25.3906H40.8232V27.3906H50.5107V25.3906ZM41.8232 26.3906V22.0938H39.8232V26.3906H41.8232ZM40.8232 23.0938H50.3545V21.0938H40.8232V23.0938ZM50.3545 23.0938C52.6058 23.0938 54.521 22.7068 56.0255 21.8492L55.0351 20.1117C53.9353 20.7385 52.4001 21.0938 50.3545 21.0938V23.0938ZM56.0255 21.8492C57.4935 21.0125 58.5893 19.8596 59.2694 18.3935L57.4552 17.5518C56.9635 18.6117 56.1712 19.4641 55.0351 20.1117L56.0255 21.8492ZM59.2675 18.3976C59.9369 16.9715 60.2607 15.3847 60.2607 13.6562H58.2607C58.2607 15.131 57.9856 16.4217 57.4571 17.5477L59.2675 18.3976ZM60.2607 13.6562C60.2607 11.9281 59.937 10.3461 59.2659 8.93089L57.4588 9.78786C57.9856 10.8987 58.2607 12.1813 58.2607 13.6562H60.2607ZM59.2694 8.93854C58.5863 7.466 57.4773 6.32287 55.989 5.5124L55.0325 7.26885C56.1744 7.89067 56.9664 8.72671 57.4552 9.78021L59.2694 8.93854ZM55.9957 5.51606C54.4806 4.67602 52.5497 4.29687 50.2764 4.29687V6.29687C52.352 6.29687 53.9107 6.64689 55.0258 7.26519L55.9957 5.51606ZM50.2764 4.29687H41.7607V6.29687H50.2764V4.29687ZM40.7607 5.29687V41H42.7607V5.29687H40.7607ZM41.7607 40H36.917V42H41.7607V40ZM76.6729 0.999999H77.6729V-9.53674e-07H76.6729V0.999999ZM76.6729 41V42H77.6729V41H76.6729ZM71.8291 41H70.8291V42H71.8291V41ZM71.8291 0.999999V-9.53674e-07H70.8291V0.999999H71.8291ZM75.6729 0.999999V41H77.6729V0.999999H75.6729ZM76.6729 40H71.8291V42H76.6729V40ZM72.8291 41V0.999999H70.8291V41H72.8291ZM71.8291 2H76.6729V-9.53674e-07H71.8291V2ZM86.3848 41H85.3848V42H86.3848V41ZM86.3848 0.999999V-9.53674e-07H85.3848V0.999999H86.3848ZM91.2285 0.999999H92.2285V-9.53674e-07H91.2285V0.999999ZM91.2285 20.8438H90.2285V21.8438H91.2285V20.8438ZM91.6973 20.8438V21.8438H92.1408L92.4385 21.515L91.6973 20.8438ZM109.666 0.999999V-9.53674e-07H109.222L108.925 0.32878L109.666 0.999999ZM115.994 0.999999L116.726 1.6813L118.291 -9.53674e-07H115.994V0.999999ZM99.1973 19.0469L98.4653 18.3656L97.8899 18.9838L98.4031 19.6545L99.1973 19.0469ZM115.994 41V42H118.018L116.788 40.3923L115.994 41ZM110.135 41L109.334 41.5989L109.634 42H110.135V41ZM96.2285 22.4062L97.0293 21.8073L96.2953 20.8259L95.4811 21.7419L96.2285 22.4062ZM91.2285 28.0312L90.4811 27.3669L90.2285 27.6511V28.0312H91.2285ZM91.2285 41V42H92.2285V41H91.2285ZM87.3848 41V0.999999H85.3848V41H87.3848ZM86.3848 2H91.2285V-9.53674e-07H86.3848V2ZM90.2285 0.999999V20.8438H92.2285V0.999999H90.2285ZM91.2285 21.8438H91.6973V19.8438H91.2285V21.8438ZM92.4385 21.515L110.407 1.67122L108.925 0.32878L90.956 20.1725L92.4385 21.515ZM109.666 2H115.994V-9.53674e-07H109.666V2ZM115.262 0.318697L98.4653 18.3656L99.9293 19.7282L116.726 1.6813L115.262 0.318697ZM98.4031 19.6545L115.2 41.6077L116.788 40.3923L99.9915 18.4392L98.4031 19.6545ZM115.994 40H110.135V42H115.994V40ZM110.936 40.4011L97.0293 21.8073L95.4277 23.0052L109.334 41.5989L110.936 40.4011ZM95.4811 21.7419L90.4811 27.3669L91.9759 28.6956L96.9759 23.0706L95.4811 21.7419ZM90.2285 28.0312V41H92.2285V28.0312H90.2285ZM91.2285 40H86.3848V42H91.2285V40ZM122.264 41H121.264V42H122.264V41ZM122.264 0.999999V-9.53674e-07H121.264V0.999999H122.264ZM146.404 0.999999H147.404V-9.53674e-07H146.404V0.999999ZM146.404 5.29687V6.29687H147.404V5.29687H146.404ZM127.107 5.29687V4.29687H126.107V5.29687H127.107ZM127.107 18.8125H126.107V19.8125H127.107V18.8125ZM145.154 18.8125H146.154V17.8125H145.154V18.8125ZM145.154 23.1094V24.1094H146.154V23.1094H145.154ZM127.107 23.1094V22.1094H126.107V23.1094H127.107ZM127.107 36.7031H126.107V37.7031H127.107V36.7031ZM146.717 36.7031H147.717V35.7031H146.717V36.7031ZM146.717 41V42H147.717V41H146.717ZM123.264 41V0.999999H121.264V41H123.264ZM122.264 2H146.404V-9.53674e-07H122.264V2ZM145.404 0.999999V5.29687H147.404V0.999999H145.404ZM146.404 4.29687H127.107V6.29687H146.404V4.29687ZM126.107 5.29687V18.8125H128.107V5.29687H126.107ZM127.107 19.8125H145.154V17.8125H127.107V19.8125ZM144.154 18.8125V23.1094H146.154V18.8125H144.154ZM145.154 22.1094H127.107V24.1094H145.154V22.1094ZM126.107 23.1094V36.7031H128.107V23.1094H126.107ZM127.107 37.7031H146.717V35.7031H127.107V37.7031ZM145.717 36.7031V41H147.717V36.7031H145.717ZM146.717 40H122.264V42H146.717V40ZM170.604 41H169.604V42H170.604V41ZM170.604 0.999999V-9.53674e-07H169.604V0.999999H170.604ZM194.588 0.999999H195.588V-9.53674e-07H194.588V0.999999ZM194.588 5.29687V6.29687H195.588V5.29687H194.588ZM175.447 5.29687V4.29687H174.447V5.29687H175.447ZM175.447 18.8125H174.447V19.8125H175.447V18.8125ZM192.791 18.8125H193.791V17.8125H192.791V18.8125ZM192.791 23.1094V24.1094H193.791V23.1094H192.791ZM175.447 23.1094V22.1094H174.447V23.1094H175.447ZM175.447 41V42H176.447V41H175.447ZM171.604 41V0.999999H169.604V41H171.604ZM170.604 2H194.588V-9.53674e-07H170.604V2ZM193.588 0.999999V5.29687H195.588V0.999999H193.588ZM194.588 4.29687H175.447V6.29687H194.588V4.29687ZM174.447 5.29687V18.8125H176.447V5.29687H174.447ZM175.447 19.8125H192.791V17.8125H175.447V19.8125ZM191.791 18.8125V23.1094H193.791V18.8125H191.791ZM192.791 22.1094H175.447V24.1094H192.791V22.1094ZM174.447 23.1094V41H176.447V23.1094H174.447ZM175.447 40H170.604V42H175.447V40ZM199.529 41V42H200.235L200.472 41.3345L199.529 41ZM194.451 41L193.512 40.6553L193.019 42H194.451V41ZM209.139 0.999999V-9.53674e-07H208.441L208.2 0.655313L209.139 0.999999ZM214.139 0.999999L215.077 0.655313L214.837 -9.53674e-07H214.139V0.999999ZM228.826 41V42H230.259L229.765 40.6553L228.826 41ZM223.748 41L222.806 41.3345L223.042 42H223.748V41ZM211.795 7.32812L212.737 6.99359L212.501 6.32812H211.795V7.32812ZM211.482 7.32812V6.32812H210.776L210.54 6.99359L211.482 7.32812ZM201.404 25.375V24.375H200.404V25.375H201.404ZM221.873 25.375H222.873V24.375H221.873V25.375ZM221.873 29.6719V30.6719H222.873V29.6719H221.873ZM201.404 29.6719H200.404V30.6719H201.404V29.6719ZM199.529 40H194.451V42H199.529V40ZM195.39 41.3447L210.077 1.34468L208.2 0.655313L193.512 40.6553L195.39 41.3447ZM209.139 2H214.139V-9.53674e-07H209.139V2ZM213.2 1.34468L227.887 41.3447L229.765 40.6553L215.077 0.655313L213.2 1.34468ZM228.826 40H223.748V42H228.826V40ZM224.69 40.6655L212.737 6.99359L210.853 7.66266L222.806 41.3345L224.69 40.6655ZM211.795 6.32812H211.482V8.32812H211.795V6.32812ZM210.54 6.99359L198.587 40.6655L200.472 41.3345L212.425 7.66266L210.54 6.99359ZM201.404 26.375H221.873V24.375H201.404V26.375ZM220.873 25.375V29.6719H222.873V25.375H220.873ZM221.873 28.6719H201.404V30.6719H221.873V28.6719ZM202.404 29.6719V25.375H200.404V29.6719H202.404ZM235.057 0.999999V-9.53674e-07H234.057V0.999999H235.057ZM240.838 0.999999L241.763 0.621112L241.509 -9.53674e-07H240.838V0.999999ZM254.432 34.2031L253.506 34.582L253.76 35.2031H254.432V34.2031ZM254.9 34.2031V35.2031H255.572L255.826 34.582L254.9 34.2031ZM268.494 0.999999V-9.53674e-07H267.823L267.569 0.621112L268.494 0.999999ZM274.275 0.999999H275.275V-9.53674e-07H274.275V0.999999ZM274.275 41V42H275.275V41H274.275ZM269.744 41H268.744V42H269.744V41ZM269.744 10.6094H270.744V9.60938H269.744V10.6094ZM269.354 10.6094V9.60938H268.684L268.429 10.229L269.354 10.6094ZM256.854 41V42H257.523L257.778 41.3804L256.854 41ZM252.479 41L251.554 41.3804L251.809 42H252.479V41ZM239.979 10.6094L240.903 10.229L240.648 9.60938H239.979V10.6094ZM239.588 10.6094V9.60938H238.588V10.6094H239.588ZM239.588 41V42H240.588V41H239.588ZM235.057 41H234.057V42H235.057V41ZM235.057 2H240.838V-9.53674e-07H235.057V2ZM239.912 1.37889L253.506 34.582L255.357 33.8242L241.763 0.621112L239.912 1.37889ZM254.432 35.2031H254.9V33.2031H254.432V35.2031ZM255.826 34.582L269.42 1.37889L267.569 0.621112L253.975 33.8242L255.826 34.582ZM268.494 2H274.275V-9.53674e-07H268.494V2ZM273.275 0.999999V41H275.275V0.999999H273.275ZM274.275 40H269.744V42H274.275V40ZM270.744 41V10.6094H268.744V41H270.744ZM269.744 9.60938H269.354V11.6094H269.744V9.60938ZM268.429 10.229L255.929 40.6196L257.778 41.3804L270.278 10.9898L268.429 10.229ZM256.854 40H252.479V42H256.854V40ZM253.403 40.6196L240.903 10.229L239.054 10.9898L251.554 41.3804L253.403 40.6196ZM239.979 9.60938H239.588V11.6094H239.979V9.60938ZM238.588 10.6094V41H240.588V10.6094H238.588ZM239.588 40H235.057V42H239.588V40ZM236.057 41V0.999999H234.057V41H236.057ZM288.831 0.999999H289.831V-9.53674e-07H288.831V0.999999ZM288.831 41V42H289.831V41H288.831ZM283.987 41H282.987V42H283.987V41ZM283.987 0.999999V-9.53674e-07H282.987V0.999999H283.987ZM287.831 0.999999V41H289.831V0.999999H287.831ZM288.831 40H283.987V42H288.831V40ZM284.987 41V0.999999H282.987V41H284.987ZM283.987 2H288.831V-9.53674e-07H283.987V2ZM298.543 41H297.543V42H298.543V41ZM298.543 0.999999V-9.53674e-07H297.543V0.999999H298.543ZM303.387 0.999999H304.387V-9.53674e-07H303.387V0.999999ZM303.387 36.7031H302.387V37.7031H303.387V36.7031ZM321.98 36.7031H322.98V35.7031H321.98V36.7031ZM321.98 41V42H322.98V41H321.98ZM299.543 41V0.999999H297.543V41H299.543ZM298.543 2H303.387V-9.53674e-07H298.543V2ZM302.387 0.999999V36.7031H304.387V0.999999H302.387ZM303.387 37.7031H321.98V35.7031H303.387V37.7031ZM320.98 36.7031V41H322.98V36.7031H320.98ZM321.98 40H298.543V42H321.98V40ZM324.163 0.999999V-9.53674e-07H322.375L323.311 1.52362L324.163 0.999999ZM329.71 0.999999L330.57 0.489211L330.279 -9.53674e-07H329.71V0.999999ZM340.804 19.6719L339.944 20.1827L340.235 20.6719H340.804V19.6719ZM341.272 19.6719V20.6719H341.842L342.132 20.1827L341.272 19.6719ZM352.366 0.999999V-9.53674e-07H351.797L351.507 0.489211L352.366 0.999999ZM357.913 0.999999L358.765 1.52362L359.701 -9.53674e-07H357.913V0.999999ZM343.46 24.5156L342.608 23.992L342.46 24.2329V24.5156H343.46ZM343.46 41V42H344.46V41H343.46ZM338.616 41H337.616V42H338.616V41ZM338.616 24.5156H339.616V24.2329L339.468 23.992L338.616 24.5156ZM324.163 2H329.71V-9.53674e-07H324.163V2ZM328.85 1.51079L339.944 20.1827L341.663 19.1611L330.57 0.489211L328.85 1.51079ZM340.804 20.6719H341.272V18.6719H340.804V20.6719ZM342.132 20.1827L353.226 1.51079L351.507 0.489211L340.413 19.1611L342.132 20.1827ZM352.366 2H357.913V-9.53674e-07H352.366V2ZM357.061 0.476376L342.608 23.992L344.312 25.0392L358.765 1.52362L357.061 0.476376ZM342.46 24.5156V41H344.46V24.5156H342.46ZM343.46 40H338.616V42H343.46V40ZM339.616 41V24.5156H337.616V41H339.616ZM339.468 23.992L325.015 0.476376L323.311 1.52362L337.764 25.0392L339.468 23.992Z" fill="#212529" fill-opacity="0.2" mask="url(#path-1-outside-1_25_1536)"/>
</svg>
