<svg width="28" height="20" viewBox="0 0 28 20" fill="none" xmlns="http://www.w3.org/2000/svg">
<path d="M16.3326 10.9487C15.401 10.9487 14.6126 10.6261 13.9673 9.9808C13.322 9.33551 12.9993 8.54705 12.9993 7.61543C12.9993 6.68383 13.322 5.89539 13.9673 5.2501C14.6126 4.60481 15.401 4.28216 16.3326 4.28216C17.2642 4.28216 18.0527 4.60481 18.698 5.2501C19.3433 5.89539 19.6659 6.68383 19.6659 7.61543C19.6659 8.54705 19.3433 9.33551 18.698 9.9808C18.0527 10.6261 17.2642 10.9487 16.3326 10.9487ZM7.53777 15.0769C6.87497 15.0769 6.30756 14.8409 5.83554 14.3689C5.36354 13.8969 5.12754 13.3295 5.12754 12.6667V2.56416C5.12754 1.90136 5.36354 1.33395 5.83554 0.86193C6.30756 0.38993 6.87497 0.153931 7.53777 0.153931H25.1274C25.7903 0.153931 26.3577 0.38993 26.8297 0.86193C27.3017 1.33395 27.5377 1.90136 27.5377 2.56416V12.6667C27.5377 13.3295 27.3017 13.8969 26.8297 14.3689C26.3577 14.8409 25.7903 15.0769 25.1274 15.0769H7.53777ZM9.53774 13.077H23.1275C23.1275 12.412 23.3635 11.8441 23.8355 11.3732C24.3075 10.9022 24.8749 10.6667 25.5377 10.6667V4.56413C24.8728 4.56413 24.3048 4.32813 23.8339 3.85613C23.363 3.38411 23.1275 2.8167 23.1275 2.1539H9.53774C9.53774 2.81885 9.30174 3.3868 8.82974 3.85773C8.35772 4.32866 7.7903 4.56413 7.1275 4.56413V10.6667C7.79246 10.6667 8.3604 10.9027 8.83134 11.3748C9.30227 11.8468 9.53774 12.4142 9.53774 13.077ZM23.5633 19.7436H2.87117C2.20835 19.7436 1.64094 19.5076 1.16894 19.0355C0.696937 18.5635 0.460938 17.9961 0.460938 17.3333V4.1283H2.46087V17.3333C2.46087 17.4359 2.50362 17.5299 2.5891 17.6154C2.67457 17.7009 2.76859 17.7436 2.87117 17.7436H23.5633V19.7436ZM7.53777 13.077H7.1275V2.1539H7.53777C7.42666 2.1539 7.3305 2.1945 7.2493 2.2757C7.1681 2.3569 7.1275 2.45305 7.1275 2.56416V12.6667C7.1275 12.7778 7.1681 12.874 7.2493 12.9552C7.3305 13.0364 7.42666 13.077 7.53777 13.077Z" fill="black"/>
</svg>
