<svg width="19" height="19" viewBox="0 0 19 19" fill="none" xmlns="http://www.w3.org/2000/svg">
<path d="M17.7935 17.3402C17.0147 18.2403 15.9015 18.75 14.7229 18.75C14.6859 18.75 14.649 18.75 14.612 18.7491C7.04417 18.5435 0.955194 12.4545 0.751502 4.88765C0.718343 3.65888 1.23563 2.49451 2.16978 1.69112C3.05749 0.926573 4.21333 0.607388 5.34264 0.809183C5.51601 0.840447 5.66475 0.88014 5.7917 0.921825C6.29193 1.08762 6.65574 1.52075 6.73911 2.0494L7.37391 6.08045C7.4535 6.58541 7.25642 7.09713 6.86135 7.41735C6.78177 7.48177 6.69932 7.54323 6.61311 7.60008C6.39331 7.74976 6.30994 8.00463 6.40847 8.23106C7.35777 10.4148 9.08208 12.139 11.2649 13.0883C11.4923 13.1878 11.7471 13.1026 11.9006 12.8781C11.9451 12.8136 11.9915 12.7502 12.0389 12.6895C12.3572 12.2841 12.8793 12.0888 13.3947 12.1712L17.4988 12.8545C18.0407 12.9454 18.4813 13.3291 18.6224 13.8331C18.648 13.925 18.6727 14.0292 18.6935 14.1476C18.8915 15.2855 18.5637 16.4478 17.7935 17.3402Z" fill="#005396"/>
</svg>
