<svg width="30" height="34" viewBox="0 0 30 34" fill="none" xmlns="http://www.w3.org/2000/svg">
<path d="M15.6097 17.5272H11.3488V18.9142C11.3488 19.5014 11.2032 19.6506 10.5997 19.6506H1.41465C0.854595 19.6506 0.697266 19.4967 0.697266 18.9459C0.697266 18.0369 0.697266 17.1267 0.697266 16.2176C0.699983 15.5786 0.953533 14.9662 1.4033 14.5123C1.85306 14.0585 2.46304 13.7995 3.10185 13.7912C3.55388 13.7842 3.94956 13.6597 4.27596 13.2944L4.02705 13.0877C3.24274 12.43 2.80949 11.5997 2.8365 10.5661C2.85294 9.91665 2.82241 9.24368 2.97974 8.62239C3.36485 7.10499 4.9182 6.12548 6.43985 6.34511C7.2051 6.44728 7.90771 6.8225 8.41835 7.40171C8.929 7.98091 9.21331 8.72512 9.21898 9.49736C9.21898 10.0188 9.25538 10.5462 9.18846 11.0594C9.07105 11.999 8.56265 12.726 7.74664 13.2967L8.26326 13.6749C8.31961 13.6467 8.34779 13.642 8.35601 13.6268C8.86792 12.6731 9.64753 12.1775 10.7465 12.1798C10.9388 12.18 11.1284 12.1351 11.3003 12.0489C11.4722 11.9626 11.6215 11.8373 11.7363 11.683C10.9719 11.1463 10.4224 10.4405 10.3379 9.51146C10.2663 8.73514 10.2452 7.92241 10.3931 7.16253C10.6972 5.60167 12.2552 4.5658 13.8473 4.74079C14.6245 4.83261 15.3412 5.20586 15.8621 5.79008C16.3829 6.37429 16.672 7.12904 16.6746 7.91184C16.6746 8.4333 16.7063 8.96064 16.6394 9.47388C16.522 10.4134 16.003 11.1346 15.2304 11.6772C15.3403 11.8285 15.484 11.952 15.6502 12.0377C15.8164 12.1233 16.0004 12.1688 16.1873 12.1704C17.311 12.1704 18.1117 12.6661 18.6459 13.6972L19.233 13.3061C18.5567 12.8234 18.0589 12.2491 17.8781 11.474C17.6376 10.5121 17.6465 9.50472 17.9039 8.54722C18.3289 7.07797 19.8788 6.12313 21.364 6.34393C22.1293 6.44681 22.8316 6.82307 23.3412 7.40328C23.8509 7.98349 24.1337 8.72851 24.1373 9.50089C24.1373 10.0223 24.1725 10.5497 24.1056 11.0629C23.9823 12.0025 23.4762 12.7283 22.6966 13.2768C22.821 13.4423 22.9841 13.5747 23.1717 13.6623C23.3592 13.75 23.5654 13.7902 23.7721 13.7795C25.1036 13.7325 26.3481 14.8975 26.2812 16.3856C26.2425 17.2606 26.2753 18.1379 26.273 19.014C26.273 19.458 26.091 19.6447 25.6531 19.6447H16.2355C15.814 19.6447 15.6273 19.458 15.6249 19.0387C15.6073 18.5466 15.6097 18.051 15.6097 17.5272ZM17.7008 16.4396C17.716 16.4044 17.7325 16.3856 17.7325 16.3668C17.7325 15.8124 17.7466 15.2581 17.7325 14.7038C17.7196 13.857 17.1302 13.2838 16.2766 13.2556C16.1534 13.2403 16.0283 13.2525 15.9104 13.2913C15.7924 13.3301 15.6845 13.3945 15.5944 13.48C14.3722 14.6368 12.5417 14.6121 11.3019 13.4471C11.2394 13.3708 11.1623 13.3078 11.0753 13.2615C10.4131 13.0419 9.42328 13.5375 9.30469 14.2422C9.18611 14.9469 9.21781 15.7067 9.18728 16.4396H17.7008ZM8.15406 15.1078C8.07305 15.1641 8.03665 15.1853 8.0073 15.2099C6.58897 16.2529 5.08845 16.1718 3.78049 14.9821C3.72998 14.9255 3.66682 14.8816 3.59615 14.8541C2.80128 14.665 1.95239 15.1865 1.8068 15.9957C1.73636 16.3938 1.76688 16.8119 1.76101 17.2206C1.75397 17.6704 1.76101 18.1203 1.76101 18.5595H10.2639V17.5201C9.76142 17.5201 9.27534 17.5201 8.79043 17.5201C8.33018 17.5201 8.15406 17.3392 8.15171 16.8742C8.15289 16.3022 8.15406 15.7302 8.15406 15.1078ZM16.6899 18.563H25.1916C25.1916 17.755 25.2139 16.9693 25.1834 16.1836C25.1852 15.9307 25.1105 15.6832 24.969 15.4735C24.8276 15.2639 24.626 15.102 24.3909 15.0091C23.8978 14.8095 23.4246 14.7143 22.9362 15.1759C22.5956 15.5056 22.1749 15.7406 21.7157 15.8578C21.2565 15.9751 20.7747 15.9703 20.3179 15.8442C19.7977 15.7138 19.3152 15.4366 18.8103 15.224C18.8103 15.7455 18.8103 16.3292 18.8103 16.9129C18.8103 17.331 18.6201 17.5154 18.1998 17.5189C17.7043 17.5189 17.2077 17.5189 16.6969 17.5189L16.6899 18.563ZM8.16815 10.0552H8.15289C8.15289 9.87789 8.15289 9.7029 8.15289 9.5232C8.14389 8.98132 7.931 8.46274 7.55669 8.0709C7.18239 7.67907 6.67417 7.44278 6.13341 7.40917C5.08258 7.334 4.11981 8.1068 3.94252 9.21667C3.89076 9.65585 3.87545 10.0986 3.89673 10.5403C3.90847 11.7312 4.755 12.6414 5.9162 12.726C6.97291 12.8035 7.92628 12.0213 8.11883 10.8868C8.15083 10.6107 8.1673 10.3331 8.16815 10.0552ZM18.7892 10.0552H18.8056C18.8056 10.2326 18.8056 10.4076 18.8056 10.5861C18.8112 11.1292 19.0217 11.6502 19.3948 12.0447C19.7679 12.4393 20.2763 12.6784 20.8181 12.7142C21.8642 12.7964 22.8375 12.0225 23.0136 10.9149C23.0679 10.4649 23.084 10.0112 23.0618 9.55844C23.0665 9.00957 22.8607 8.47977 22.4868 8.07802C22.1129 7.67628 21.5993 7.43313 21.0517 7.3986C19.995 7.31639 19.0369 8.10328 18.842 9.22841C18.8102 9.50447 18.7933 9.78205 18.7915 10.0599L18.7892 10.0552ZM11.3617 8.45914H11.35C11.35 8.63648 11.35 8.81148 11.35 8.99C11.3556 9.53299 11.5661 10.0538 11.9393 10.4482C12.3124 10.8426 12.8207 11.0814 13.3624 11.1169C14.4097 11.1992 15.3819 10.424 15.5592 9.31767C15.6119 8.87856 15.6276 8.4358 15.6062 7.99405C15.5956 6.78671 14.7279 5.8624 13.562 5.79898C12.4713 5.74026 11.5144 6.57413 11.3664 7.72862C11.3494 7.97335 11.3478 8.21891 11.3617 8.46384V8.45914ZM19.6827 14.3538C20.2169 14.9727 21.7139 14.941 22.1812 14.3538C22.0286 14.1776 21.8853 14.0014 21.7209 13.8347C21.6507 13.7774 21.5627 13.7463 21.472 13.7466C21.1116 13.7372 20.75 13.736 20.3895 13.7466C20.2987 13.7494 20.2116 13.7834 20.1429 13.8429C19.9797 14.0038 19.8353 14.1846 19.6827 14.3585V14.3538ZM12.2165 12.76C12.8646 13.4118 14.324 13.3097 14.7244 12.753C14.5577 12.5592 14.425 12.2914 14.2148 12.1951C14.0047 12.0988 13.717 12.2374 13.4834 12.1822C12.9527 12.0553 12.5863 12.2515 12.2952 12.6696C12.2729 12.6966 12.2482 12.7189 12.2165 12.76ZM7.28522 14.3667C7.12906 14.1846 6.97995 13.992 6.8097 13.8229C6.7345 13.7707 6.644 13.745 6.55257 13.7501C6.20034 13.7423 5.8481 13.7423 5.49587 13.7501C5.41303 13.7424 5.33006 13.7635 5.26105 13.81C5.0861 13.9873 4.93112 14.1835 4.76909 14.3726C5.47708 14.968 6.60188 14.9645 7.27817 14.3667H7.28522Z" fill="#2C2753"/>
<path d="M5.49203 31.3695C5.49203 31.487 5.49203 31.5621 5.49203 31.6373C5.48616 32.3244 5.37462 32.4359 4.67015 32.4359H2.29609C2.29609 32.5792 2.29609 32.7072 2.29609 32.8353C2.29609 33.325 2.1235 33.5 1.64211 33.5C0.300489 33.5 -1.04152 33.5 -2.38392 33.5C-2.85357 33.5 -3.02734 33.3227 -3.02734 32.8599C-3.02734 31.4286 -3.02734 29.9974 -3.02734 28.5661V21.4089C-3.02734 20.8781 -2.86649 20.7172 -2.33461 20.7172H4.68659C5.37462 20.7172 5.48733 20.8346 5.4932 21.5287V21.7871H5.84544C7.63126 21.7871 9.41709 21.7871 11.2029 21.7871C11.3237 21.7827 11.444 21.8046 11.5555 21.8512C11.667 21.8978 11.767 21.9681 11.8487 22.0572C13.1097 23.3374 14.3766 24.6117 15.6493 25.8801C15.7139 25.9447 15.8841 25.9447 15.9933 25.9165C18.3087 25.2917 20.6217 24.6563 22.9358 24.0268C24.2485 23.6745 25.5529 23.2822 26.8762 22.9757C28.48 22.6057 29.9782 23.8459 29.984 25.4925C29.984 26.4004 30.0885 26.411 29.0929 26.7515C23.6591 28.6095 18.2245 30.4715 12.7891 32.3373C12.5396 32.4101 12.2744 32.4101 12.0248 32.3373C11.3661 32.1505 10.7133 31.9368 10.0746 31.689C9.44474 31.4464 8.77171 31.3361 8.09739 31.3648C7.24498 31.393 6.3914 31.3695 5.49203 31.3695ZM5.51551 22.8476V30.3055C6.57221 30.3055 7.59957 30.3184 8.63044 30.3055C9.09426 30.2927 9.55644 30.366 9.99358 30.5216C10.6793 30.7694 11.3696 31.0078 12.0682 31.2133C12.2954 31.2809 12.5373 31.2809 12.7645 31.2133C16.6367 29.8956 20.5054 28.568 24.3706 27.2307C25.803 26.7375 27.2354 26.2477 28.6643 25.7439C28.7677 25.7075 28.9133 25.563 28.9086 25.4773C28.8733 24.89 28.6291 24.4108 28.0644 24.1525C27.6646 23.9791 27.2154 23.9578 26.801 24.0926C23.3147 25.047 19.8276 25.996 16.3397 26.9395C16.2547 26.9502 16.1768 26.9923 16.1212 27.0575C16.0657 27.1226 16.0364 27.2062 16.0391 27.2918C15.9463 28.1515 15.499 28.7611 14.6736 29.0453C13.82 29.3412 13.0885 29.0946 12.4651 28.4651C11.8158 27.8121 11.1665 27.1591 10.5102 26.5143C10.3071 26.3146 10.0769 26.142 9.88322 25.9776L10.664 25.1472C10.7556 25.2353 10.8378 25.3081 10.9153 25.3821C11.698 26.1651 12.4807 26.9481 13.2635 27.731C13.6909 28.155 14.3049 28.1762 14.6889 27.7921C15.0728 27.4081 15.0528 26.7927 14.629 26.3663C13.5097 25.2412 12.3876 24.1196 11.2628 23.0015C11.191 22.9222 11.0939 22.8703 10.9881 22.8547C9.17523 22.8441 7.3577 22.8441 5.51551 22.8441V22.8476ZM1.20886 32.4207V21.8082H-1.94716V32.4207H1.20886ZM4.4048 31.3554V21.8082H2.31253V31.3554H4.4048Z" fill="#2C2753"/>
<path d="M10.8242 0.680875L11.9168 0.532959C11.952 0.907447 11.9849 1.24437 12.0189 1.60594L10.9991 1.73977C10.9404 1.38407 10.8864 1.05889 10.8242 0.680875Z" fill="#2C2753"/>
<path d="M29.894 18.8274C29.8412 19.2113 29.7954 19.547 29.7449 19.9203L28.6816 19.7278C28.7321 19.3756 28.7767 19.0657 28.8272 18.7123L29.894 18.8274Z" fill="#2C2753"/>
<path d="M19.3869 1.54883L20.4009 1.97615L19.9514 2.95404L19.002 2.55725C19.1275 2.22737 19.2472 1.91275 19.3869 1.54883Z" fill="#2C2753"/>
<path d="M28.1855 21.6999C28.2841 21.3594 28.3757 21.0471 28.4719 20.7137L29.5105 20.972C29.4108 21.3242 29.3181 21.6611 29.216 22.0286L28.1855 21.6999Z" fill="#2C2753"/>
<path d="M24.1172 5.77181L24.8918 5.06744L25.6276 5.81407L24.8918 6.50083L24.1172 5.77181Z" fill="#2C2753"/>
<path d="M17.0547 1.95706L17.3094 0.911072L18.3656 1.19517C18.2576 1.54735 18.159 1.87136 18.0511 2.22237L17.0547 1.95706Z" fill="#2C2753"/>
<path d="M28.3086 12.6733L29.3437 12.3693C29.4364 12.732 29.5221 13.0666 29.6148 13.4317L28.568 13.6665L28.3086 12.6733Z" fill="#2C2753"/>
<path d="M16.0722 1.75628L15.0605 1.62245C15.0946 1.26088 15.1274 0.918086 15.1627 0.547119L16.2459 0.695037C16.1884 1.04839 16.132 1.38649 16.0722 1.75628Z" fill="#2C2753"/>
<path d="M8.70898 1.16563L9.76522 0.881531C9.84855 1.22784 9.926 1.55303 10.014 1.92282L9.02234 2.19752C8.91906 1.85708 8.82165 1.53542 8.70898 1.16563Z" fill="#2C2753"/>
<path d="M6.66992 1.92675L7.68391 1.51117C7.81183 1.84927 7.93271 2.16388 8.06533 2.51137L7.11941 2.90816L6.66992 1.92675Z" fill="#2C2753"/>
<path d="M5.32935 3.86897L4.75781 2.95329L5.70842 2.40271L6.21542 3.34774L5.32935 3.86897Z" fill="#2C2753"/>
<path d="M21.3636 2.46008L22.3119 3.02123C22.1124 3.33467 21.9281 3.62698 21.7357 3.93104L20.8496 3.40746L21.3636 2.46008Z" fill="#2C2753"/>
<path d="M22.5703 4.49512L23.2041 3.6264L24.0725 4.30142L23.3813 5.1314L22.5703 4.49512Z" fill="#2C2753"/>
<path d="M28.7402 14.657L29.8082 14.4962C29.854 14.8624 29.8962 15.2005 29.9432 15.5762L28.8764 15.6783C28.8306 15.339 28.7895 15.0268 28.7402 14.657Z" fill="#2C2753"/>
<path d="M3.86339 3.55237L4.49361 4.42461L3.67209 5.04797L2.99023 4.22621L3.86339 3.55237Z" fill="#2C2753"/>
<path d="M0.907534 8.01835L0.0332031 7.39264L0.696288 6.51923L1.53189 7.19777L0.907534 8.01835Z" fill="#2C2753"/>
<path d="M27.599 8.39825L28.1412 9.35267L27.1894 9.85747L26.6836 8.96292L27.599 8.39825Z" fill="#2C2753"/>
<path d="M1.41602 5.71072L2.18589 4.92065L2.9147 5.70837L2.15538 6.40569L1.41602 5.71072Z" fill="#2C2753"/>
<path d="M27.6211 10.7612L28.5987 10.3256L29.0118 11.3423L27.999 11.7144L27.6211 10.7612Z" fill="#2C2753"/>
<path d="M25.5039 7.29973C25.7891 7.06494 26.0461 6.86302 26.3419 6.62354L27.0073 7.4946L26.1341 8.11797C25.9264 7.84913 25.7269 7.59087 25.5039 7.29973Z" fill="#2C2753"/>
<path d="M0.348634 8.85608L-0.165402 9.74475L-1.11719 9.23996L-0.564421 8.28906L0.348634 8.85608Z" fill="#2C2753"/>
<path d="M29.9695 16.6807V17.7561L28.9355 17.7044V16.6807H29.9695Z" fill="#2C2753"/>
<path d="M14.0511 0.5V1.5272H13.0254V0.5H14.0511Z" fill="#2C2753"/>
</svg>
