<svg width="32" height="32" viewBox="0 0 32 32" fill="none" xmlns="http://www.w3.org/2000/svg">
<path d="M9.92744 10.8718C9.25926 10.8718 8.6897 10.6358 8.21877 10.1638C7.74781 9.69182 7.51234 9.12441 7.51234 8.46158V6.25648C7.51234 5.59368 7.74835 5.02627 8.22037 4.55425C8.69237 4.08225 9.25978 3.84625 9.9226 3.84625H22.0715C22.7397 3.84625 23.3092 4.08225 23.7802 4.55425C24.2511 5.02627 24.4866 5.59368 24.4866 6.25648V8.46158C24.4866 9.12441 24.2506 9.69182 23.7786 10.1638C23.3066 10.6358 22.7392 10.8718 22.0763 10.8718H9.92744ZM9.9226 8.87189H22.0763C22.2046 8.87189 22.305 8.83555 22.3777 8.76288C22.4503 8.69024 22.4866 8.58981 22.4866 8.46158V6.25648C22.4866 6.12828 22.4503 6.02785 22.3777 5.95519C22.305 5.88254 22.2046 5.84622 22.0763 5.84622H9.9226C9.79438 5.84622 9.69394 5.88254 9.62127 5.95519C9.54863 6.02785 9.5123 6.12828 9.5123 6.25648V8.46158C9.5123 8.58981 9.54863 8.69024 9.62127 8.76288C9.69394 8.83555 9.79438 8.87189 9.9226 8.87189ZM6.25594 28.1538C5.59314 28.1538 5.02573 27.9178 4.5537 27.4458C4.0817 26.9738 3.8457 26.4064 3.8457 25.7436V24.4102H28.1532V25.7436C28.1532 26.4085 27.9172 26.9765 27.4452 27.4474C26.9732 27.9183 26.4058 28.1538 25.743 28.1538H6.25594ZM3.8457 23.2307L7.97667 13.636C8.1748 13.1864 8.47575 12.8355 8.8795 12.5834C9.28324 12.3312 9.71726 12.2052 10.1816 12.2052H21.8174C22.2817 12.2052 22.7157 12.3312 23.1194 12.5834C23.5232 12.8355 23.8241 13.1864 24.0223 13.636L28.1532 23.2307H3.8457ZM11.4867 20.8205H12.82C12.9773 20.8205 13.1149 20.7615 13.2328 20.6436C13.3508 20.5256 13.4097 20.388 13.4097 20.2308C13.4097 20.0735 13.3508 19.9359 13.2328 19.818C13.1149 19.7 12.9773 19.641 12.82 19.641H11.4867C11.3294 19.641 11.1918 19.7 11.0738 19.818C10.9559 19.9359 10.8969 20.0735 10.8969 20.2308C10.8969 20.388 10.9559 20.5256 11.0738 20.6436C11.1918 20.7615 11.3294 20.8205 11.4867 20.8205ZM11.4867 18.3077H12.82C12.9773 18.3077 13.1149 18.2487 13.2328 18.1308C13.3508 18.0128 13.4097 17.8752 13.4097 17.718C13.4097 17.5607 13.3508 17.4231 13.2328 17.3051C13.1149 17.1872 12.9773 17.1282 12.82 17.1282H11.4867C11.3294 17.1282 11.1918 17.1872 11.0738 17.3051C10.9559 17.4231 10.8969 17.5607 10.8969 17.718C10.8969 17.8752 10.9559 18.0128 11.0738 18.1308C11.1918 18.2487 11.3294 18.3077 11.4867 18.3077ZM11.4867 15.7949H12.82C12.9773 15.7949 13.1149 15.7359 13.2328 15.618C13.3508 15.5 13.4097 15.3624 13.4097 15.2052C13.4097 15.0479 13.3508 14.9103 13.2328 14.7923C13.1149 14.6744 12.9773 14.6154 12.82 14.6154H11.4867C11.3294 14.6154 11.1918 14.6744 11.0738 14.7923C10.9559 14.9103 10.8969 15.0479 10.8969 15.2052C10.8969 15.3624 10.9559 15.5 11.0738 15.618C11.1918 15.7359 11.3294 15.7949 11.4867 15.7949ZM15.3328 20.8205H16.6661C16.8234 20.8205 16.961 20.7615 17.079 20.6436C17.1969 20.5256 17.2559 20.388 17.2559 20.2308C17.2559 20.0735 17.1969 19.9359 17.079 19.818C16.961 19.7 16.8234 19.641 16.6661 19.641H15.3328C15.1755 19.641 15.0379 19.7 14.92 19.818C14.802 19.9359 14.7431 20.0735 14.7431 20.2308C14.7431 20.388 14.802 20.5256 14.92 20.6436C15.0379 20.7615 15.1755 20.8205 15.3328 20.8205ZM15.3328 18.3077H16.6661C16.8234 18.3077 16.961 18.2487 17.079 18.1308C17.1969 18.0128 17.2559 17.8752 17.2559 17.718C17.2559 17.5607 17.1969 17.4231 17.079 17.3051C16.961 17.1872 16.8234 17.1282 16.6661 17.1282H15.3328C15.1755 17.1282 15.0379 17.1872 14.92 17.3051C14.802 17.4231 14.7431 17.5607 14.7431 17.718C14.7431 17.8752 14.802 18.0128 14.92 18.1308C15.0379 18.2487 15.1755 18.3077 15.3328 18.3077ZM15.3328 15.7949H16.6661C16.8234 15.7949 16.961 15.7359 17.079 15.618C17.1969 15.5 17.2559 15.3624 17.2559 15.2052C17.2559 15.0479 17.1969 14.9103 17.079 14.7923C16.961 14.6744 16.8234 14.6154 16.6661 14.6154H15.3328C15.1755 14.6154 15.0379 14.6744 14.92 14.7923C14.802 14.9103 14.7431 15.0479 14.7431 15.2052C14.7431 15.3624 14.802 15.5 14.92 15.618C15.0379 15.7359 15.1755 15.7949 15.3328 15.7949ZM19.1789 20.8205H20.5123C20.6695 20.8205 20.8071 20.7615 20.9251 20.6436C21.043 20.5256 21.102 20.388 21.102 20.2308C21.102 20.0735 21.043 19.9359 20.9251 19.818C20.8071 19.7 20.6695 19.641 20.5123 19.641H19.1789C19.0217 19.641 18.8841 19.7 18.7661 19.818C18.6482 19.9359 18.5892 20.0735 18.5892 20.2308C18.5892 20.388 18.6482 20.5256 18.7661 20.6436C18.8841 20.7615 19.0217 20.8205 19.1789 20.8205ZM19.1789 18.3077H20.5123C20.6695 18.3077 20.8071 18.2487 20.9251 18.1308C21.043 18.0128 21.102 17.8752 21.102 17.718C21.102 17.5607 21.043 17.4231 20.9251 17.3051C20.8071 17.1872 20.6695 17.1282 20.5123 17.1282H19.1789C19.0217 17.1282 18.8841 17.1872 18.7661 17.3051C18.6482 17.4231 18.5892 17.5607 18.5892 17.718C18.5892 17.8752 18.6482 18.0128 18.7661 18.1308C18.8841 18.2487 19.0217 18.3077 19.1789 18.3077ZM19.1789 15.7949H20.5123C20.6695 15.7949 20.8071 15.7359 20.9251 15.618C21.043 15.5 21.102 15.3624 21.102 15.2052C21.102 15.0479 21.043 14.9103 20.9251 14.7923C20.8071 14.6744 20.6695 14.6154 20.5123 14.6154H19.1789C19.0217 14.6154 18.8841 14.6744 18.7661 14.7923C18.6482 14.9103 18.5892 15.0479 18.5892 15.2052C18.5892 15.3624 18.6482 15.5 18.7661 15.618C18.8841 15.7359 19.0217 15.7949 19.1789 15.7949Z" fill="black"/>
</svg>
