<svg width="1416" height="161" viewBox="0 0 1416 161" fill="none" xmlns="http://www.w3.org/2000/svg">
<g style="mix-blend-mode:multiply" opacity="0.15">
<mask id="path-1-outside-1_448_856" maskUnits="userSpaceOnUse" x="-1" y="0" width="1418" height="162" fill="black">
<rect fill="white" x="-1" width="1418" height="162"/>
<path d="M88.2999 51.7862C87.8938 46.7098 85.9901 42.7502 82.5889 39.9074C79.2385 37.0646 74.1367 35.6432 67.2836 35.6432C62.9179 35.6432 59.339 36.1762 56.547 37.2422C53.8057 38.2575 51.7751 39.6535 50.4553 41.4303C49.1354 43.207 48.4501 45.2376 48.3993 47.522C48.2978 49.4003 48.6278 51.1009 49.3892 52.6238C50.2014 54.0959 51.4705 55.4412 53.1965 56.6595C54.9225 57.8271 57.1307 58.8931 59.8212 59.8577C62.5117 60.8222 65.7099 61.6852 69.4157 62.4466L82.2082 65.1879C90.8381 67.0154 98.2243 69.4267 104.367 72.4218C110.509 75.4169 115.535 78.945 119.444 83.0061C123.353 87.0165 126.221 91.5345 128.048 96.5601C129.926 101.586 130.891 107.068 130.942 113.008C130.891 123.262 128.327 131.943 123.251 139.05C118.175 146.157 110.915 151.563 101.473 155.269C92.0818 158.975 80.7868 160.828 67.5882 160.828C54.0341 160.828 42.2061 158.822 32.104 154.812C22.0527 150.802 14.2351 144.634 8.651 136.308C3.11771 127.932 0.325687 117.221 0.274923 104.175H40.4801C40.7339 108.947 41.9269 112.957 44.059 116.206C46.1911 119.455 49.1862 121.917 53.0442 123.592C56.9531 125.267 61.598 126.105 66.979 126.105C71.497 126.105 75.2789 125.546 78.3248 124.43C81.3706 123.313 83.6804 121.765 85.2541 119.785C86.8278 117.805 87.64 115.546 87.6907 113.008C87.64 110.622 86.8531 108.54 85.3302 106.764C83.8581 104.936 81.4214 103.312 78.0202 101.89C74.619 100.418 70.0248 99.0476 64.2377 97.7785L48.7039 94.428C34.8961 91.4329 24.0072 86.4327 16.0372 79.4272C8.11798 72.371 4.18376 62.7512 4.23452 50.5678C4.18376 40.6688 6.82349 32.0135 12.1537 24.602C17.5347 17.1397 24.9717 11.3272 34.4646 7.1645C44.0082 3.00184 54.9479 0.920513 67.2836 0.920513C79.8731 0.920513 90.762 3.02722 99.9503 7.24065C109.139 11.4541 116.22 17.3935 121.195 25.0589C126.221 32.6735 128.759 41.5826 128.81 51.7862H88.2999ZM142.758 159V3.05261H210.071C221.646 3.05261 231.773 5.33699 240.454 9.90577C249.134 14.4745 255.886 20.8962 260.709 29.1708C265.531 37.4453 267.942 47.1159 267.942 58.1824C267.942 69.3506 265.455 79.0211 260.48 87.1941C255.556 95.3672 248.627 101.662 239.692 106.078C230.809 110.495 220.427 112.703 208.548 112.703H168.343V79.808H200.02C204.995 79.808 209.234 78.945 212.736 77.219C216.29 75.4423 219.006 72.9294 220.884 69.6805C222.813 66.4316 223.778 62.5989 223.778 58.1824C223.778 53.7152 222.813 49.9079 220.884 46.7605C219.006 43.5624 216.29 41.1257 212.736 39.4505C209.234 37.7245 204.995 36.8615 200.02 36.8615H185.095V159H142.758ZM321.525 3.05261V159H279.188V3.05261H321.525ZM337.301 159V3.05261H379.638V66.1016H381.77L428.676 3.05261H478.019L425.326 72.4979L479.237 159H428.676L393.649 100.52L379.638 118.795V159H337.301ZM486.295 159V3.05261H598.686V37.1661H528.632V63.9696H592.899V98.0831H528.632V124.887H598.382V159H486.295ZM653.825 159V3.05261H763.475V37.1661H696.162V63.9696H756.774V98.0831H696.162V159H653.825ZM795.794 159H750.106L801.581 3.05261H859.452L910.927 159H865.239L831.126 45.9991H829.907L795.794 159ZM787.266 97.4739H873.158V129.151H787.266V97.4739ZM921.658 3.05261H974.351L1010.6 91.3822H1012.42L1048.67 3.05261H1101.36V159H1059.94V68.8429H1058.72L1024 157.782H999.023L964.3 68.2337H963.082V159H921.658V3.05261ZM1159.48 3.05261V159H1117.14V3.05261H1159.48ZM1175.25 159V3.05261H1217.59V124.887H1280.64V159H1175.25ZM1258.8 3.05261H1306.01L1336.47 66.4062H1337.69L1368.14 3.05261H1415.36L1358.09 109.962V159H1316.06V109.962L1258.8 3.05261Z"/>
</mask>
<path d="M88.2999 51.7862L87.4563 51.8537L87.5186 52.6325H88.2999V51.7862ZM82.589 39.9074L82.0414 40.5527L82.0462 40.5567L82.589 39.9074ZM56.547 37.2422L56.8409 38.0359L56.8488 38.0329L56.547 37.2422ZM50.4553 41.4303L49.7759 40.9256L50.4553 41.4303ZM48.3993 47.522L49.2444 47.5677L49.2451 47.5542L49.2454 47.5408L48.3993 47.522ZM49.3892 52.6238L48.6322 53.0023L48.6399 53.0176L48.6482 53.0326L49.3892 52.6238ZM53.1965 56.6595L52.7085 57.3509L52.7153 57.3558L52.7223 57.3605L53.1965 56.6595ZM59.8212 59.8577L59.5356 60.6543L59.8212 59.8577ZM69.4157 62.4466L69.593 61.6191L69.586 61.6176L69.4157 62.4466ZM82.2082 65.1879L82.0309 66.0154L82.0329 66.0159L82.2082 65.1879ZM104.367 72.4218L103.996 73.1825L104.367 72.4218ZM119.444 83.0061L118.834 83.593L118.838 83.5968L119.444 83.0061ZM128.048 96.5601L127.253 96.8494L127.255 96.8564L128.048 96.5601ZM130.942 113.008L131.788 113.012L131.788 113L130.942 113.008ZM123.251 139.05L123.94 139.542L123.251 139.05ZM101.473 155.269L101.164 154.481L101.163 154.482L101.473 155.269ZM32.104 154.812L31.7904 155.598L31.7918 155.599L32.104 154.812ZM8.651 136.308L7.94484 136.775L7.94815 136.78L8.651 136.308ZM0.274922 104.175V103.328H-0.574695L-0.571389 104.178L0.274922 104.175ZM40.4801 104.175L41.3252 104.13L41.2826 103.328H40.4801V104.175ZM44.059 116.206L43.3514 116.67L44.059 116.206ZM53.0442 123.592L52.7071 124.368L52.7108 124.37L53.0442 123.592ZM78.3248 124.43L78.6161 125.224L78.3248 124.43ZM85.2541 119.785L85.9166 120.311L85.2541 119.785ZM87.6908 113.008L88.5369 113.025L88.5372 113.007L88.5369 112.99L87.6908 113.008ZM85.3302 106.764L84.6711 107.295L84.6792 107.305L84.6876 107.314L85.3302 106.764ZM78.0202 101.89L77.684 102.667L77.6938 102.671L78.0202 101.89ZM64.2377 97.7785L64.419 96.9518L64.4162 96.9512L64.2377 97.7785ZM48.7039 94.428L48.5245 95.2551L48.5255 95.2553L48.7039 94.428ZM16.0372 79.4272L15.4742 80.0591L15.4784 80.0629L16.0372 79.4272ZM4.23452 50.5678L5.08087 50.5714L5.08083 50.5635L4.23452 50.5678ZM12.1537 24.602L11.4673 24.107L11.4666 24.1078L12.1537 24.602ZM34.4646 7.1645L34.1262 6.38876L34.1247 6.38942L34.4646 7.1645ZM99.9503 7.24065L99.5975 8.00994L99.9503 7.24065ZM121.195 25.0589L120.485 25.5196L120.489 25.5251L121.195 25.0589ZM128.81 51.7862V52.6325H129.66L129.656 51.782L128.81 51.7862ZM89.1435 51.7187C88.7222 46.4525 86.7336 42.2685 83.1317 39.258L82.0462 40.5567C85.2467 43.2318 87.0654 46.967 87.4563 51.8537L89.1435 51.7187ZM83.1365 39.262C79.5678 36.2341 74.2306 34.7969 67.2836 34.7969V36.4895C74.0428 36.4895 78.9092 37.8951 82.0414 40.5527L83.1365 39.262ZM67.2836 34.7969C62.858 34.7969 59.167 35.3359 56.2451 36.4516L56.8488 38.0329C59.5109 37.0164 62.9777 36.4895 67.2836 36.4895V34.7969ZM56.253 36.4486C53.4064 37.5029 51.2203 38.9812 49.7759 40.9256L51.1346 41.935C52.3299 40.3259 54.205 39.0121 56.8409 38.0359L56.253 36.4486ZM49.7759 40.9256C48.3479 42.8479 47.6077 45.0495 47.5532 47.5032L49.2454 47.5408C49.2924 45.4257 49.9229 43.5662 51.1346 41.935L49.7759 40.9256ZM47.5542 47.4763C47.4456 49.4855 47.7984 51.3346 48.6322 53.0023L50.1462 52.2453C49.4571 50.8671 49.1499 49.315 49.2444 47.5677L47.5542 47.4763ZM48.6482 53.0326C49.5361 54.6419 50.904 56.0772 52.7085 57.3509L53.6846 55.9681C52.0371 54.8052 50.8668 53.55 50.1302 52.2149L48.6482 53.0326ZM52.7223 57.3605C54.524 58.5793 56.8013 59.6741 59.5356 60.6543L60.1068 59.061C57.4602 58.1122 55.321 57.0749 53.6707 55.9585L52.7223 57.3605ZM59.5356 60.6543C62.2735 61.6358 65.5121 62.5085 69.2453 63.2756L69.586 61.6176C65.9077 60.8618 62.75 60.0085 60.1068 59.061L59.5356 60.6543ZM69.2383 63.2742L82.0309 66.0154L82.3856 64.3604L69.593 61.6191L69.2383 63.2742ZM82.0329 66.0159C90.6136 67.8329 97.9305 70.225 103.996 73.1825L104.738 71.6611C98.5181 68.6284 91.0627 66.1979 82.3836 64.3599L82.0329 66.0159ZM103.996 73.1825C110.067 76.143 115.007 79.6167 118.834 83.593L120.053 82.4192C116.063 78.2732 110.951 74.6907 104.738 71.6611L103.996 73.1825ZM118.838 83.5968C122.667 87.5254 125.468 91.9418 127.253 96.8493L128.844 96.2709C126.973 91.1272 124.038 86.5075 120.05 82.4154L118.838 83.5968ZM127.255 96.8564C129.096 101.78 130.045 107.164 130.095 113.015L131.788 113C131.737 106.973 130.757 101.391 128.841 96.2638L127.255 96.8564ZM130.095 113.004C130.045 123.114 127.52 131.617 122.562 138.558L123.94 139.542C129.135 132.269 131.737 123.41 131.788 113.012L130.095 113.004ZM122.562 138.558C117.596 145.511 110.479 150.825 101.164 154.481L101.782 156.057C111.352 152.301 118.754 146.802 123.94 139.542L122.562 138.558ZM101.163 154.482C91.8954 158.138 80.7115 159.981 67.5882 159.981V161.674C80.8621 161.674 92.2683 159.811 101.784 156.056L101.163 154.482ZM67.5882 159.981C54.1156 159.981 42.3978 157.988 32.4163 154.025L31.7918 155.599C42.0144 159.657 53.9527 161.674 67.5882 161.674V159.981ZM32.4177 154.026C22.5116 150.073 14.8352 144.009 9.35386 135.837L7.94815 136.78C13.6349 145.258 21.5938 151.53 31.7904 155.598L32.4177 154.026ZM9.35715 135.842C3.93824 127.639 1.17155 117.102 1.12123 104.171L-0.571389 104.178C-0.520174 117.34 2.29718 128.226 7.94486 136.775L9.35715 135.842ZM0.274922 105.021H40.4801V103.328H0.274922V105.021ZM39.635 104.22C39.8949 109.107 41.1203 113.27 43.3514 116.67L44.7665 115.742C42.7335 112.644 41.5729 108.786 41.3252 104.13L39.635 104.22ZM43.3514 116.67C45.5815 120.068 48.7108 122.633 52.7072 124.368L53.3813 122.816C49.6615 121.201 46.8007 118.841 44.7665 115.742L43.3514 116.67ZM52.7108 124.37C56.749 126.101 61.5127 126.951 66.979 126.951V125.259C61.6833 125.259 57.1571 124.434 53.3776 122.814L52.7108 124.37ZM66.979 126.951C71.5603 126.951 75.4482 126.386 78.6161 125.224L78.0334 123.635C75.1097 124.707 71.4337 125.259 66.979 125.259V126.951ZM78.6161 125.224C81.7673 124.069 84.2224 122.443 85.9166 120.311L84.5916 119.258C83.1384 121.086 80.9739 122.557 78.0334 123.635L78.6161 125.224ZM85.9166 120.311C87.6062 118.186 88.4824 115.747 88.5369 113.025L86.8446 112.991C86.7975 115.344 86.0494 117.424 84.5916 119.258L85.9166 120.311ZM88.5369 112.99C88.482 110.412 87.6259 108.142 85.9728 106.213L84.6876 107.314C86.0804 108.939 86.7979 110.831 86.8446 113.026L88.5369 112.99ZM85.9893 106.233C84.3922 104.25 81.8106 102.557 78.3465 101.109L77.6938 102.671C81.0322 104.066 83.3239 105.622 84.6711 107.295L85.9893 106.233ZM78.3564 101.114C74.8848 99.6111 70.2318 98.2265 64.419 96.9518L64.0564 98.6051C69.8179 99.8686 74.3532 101.225 77.684 102.667L78.3564 101.114ZM64.4162 96.9512L48.8823 93.6007L48.5255 95.2553L64.0593 98.6058L64.4162 96.9512ZM48.8833 93.601C35.1712 90.6266 24.4278 85.6757 16.5959 78.7916L15.4784 80.0629C23.5865 87.1897 34.6209 92.2393 48.5245 95.2551L48.8833 93.601ZM16.6002 78.7954C8.88996 71.9253 5.03092 62.5521 5.08083 50.5714L3.38821 50.5643C3.33661 62.9504 7.346 72.8167 15.4742 80.0591L16.6002 78.7954ZM5.08083 50.5635C5.0309 40.8274 7.62391 32.3501 12.8408 25.0961L11.4666 24.1078C6.02308 31.677 3.33662 40.5103 3.38822 50.5722L5.08083 50.5635ZM12.8402 25.097C18.122 17.7723 25.4321 12.0494 34.8044 7.93958L34.1247 6.38942C24.5113 10.6049 16.9475 16.507 11.4673 24.107L12.8402 25.097ZM34.8029 7.94024C44.222 3.83192 55.0431 1.76683 67.2836 1.76683V0.0741959C54.8526 0.0741959 43.7944 2.17177 34.1262 6.38876L34.8029 7.94024ZM67.2836 1.76683C79.7804 1.76683 90.5436 3.85813 99.5975 8.00994L100.303 6.47136C90.9804 2.19632 79.9658 0.0741959 67.2836 0.0741959V1.76683ZM99.5975 8.00994C108.656 12.1638 115.607 18.0029 120.485 25.5196L121.905 24.5981C116.834 16.784 109.621 10.7443 100.303 6.47136L99.5975 8.00994ZM120.489 25.5251C125.413 32.9866 127.913 41.731 127.963 51.7904L129.656 51.782C129.605 41.4342 127.028 32.3603 121.901 24.5927L120.489 25.5251ZM128.81 50.9398H88.2999V52.6325H128.81V50.9398ZM142.758 159H141.912V159.846H142.758V159ZM142.758 3.05261V2.20629H141.912V3.05261H142.758ZM240.454 9.90577L240.06 10.6547L240.454 9.90577ZM260.709 29.1708L261.44 28.7446L260.709 29.1708ZM260.48 87.1941L259.757 86.7541L259.755 86.7574L260.48 87.1941ZM239.692 106.078L239.317 105.32L239.315 105.321L239.692 106.078ZM168.343 112.703H167.497V113.549H168.343V112.703ZM168.343 79.808V78.9616H167.497V79.808H168.343ZM212.736 77.219L213.111 77.9782L213.115 77.976L212.736 77.219ZM220.884 69.6805L220.156 69.2484L220.151 69.2569L220.884 69.6805ZM220.884 46.7605L220.154 47.1891L220.158 47.196L220.163 47.2028L220.884 46.7605ZM212.736 39.4505L212.362 40.2096L212.369 40.2129L212.376 40.216L212.736 39.4505ZM185.095 36.8615V36.0152H184.249V36.8615H185.095ZM185.095 159V159.846H185.942V159H185.095ZM143.604 159V3.05261H141.912V159H143.604ZM142.758 3.89893H210.071V2.20629H142.758V3.89893ZM210.071 3.89893C221.533 3.89893 231.52 6.16047 240.06 10.6547L240.848 9.15685C232.026 4.51352 221.758 2.20629 210.071 2.20629V3.89893ZM240.06 10.6547C248.603 15.1515 255.237 21.4629 259.977 29.5969L261.44 28.7446C256.535 20.3295 249.665 13.7976 240.848 9.15685L240.06 10.6547ZM259.977 29.5969C264.714 37.7231 267.096 47.242 267.096 58.1824H268.789C268.789 46.9897 266.349 37.1675 261.44 28.7446L259.977 29.5969ZM267.096 58.1824C267.096 69.2217 264.639 78.7345 259.757 86.7541L261.203 87.6342C266.271 79.3078 268.789 69.4794 268.789 58.1824H267.096ZM259.755 86.7574C254.918 94.7855 248.113 100.972 239.317 105.32L240.067 106.837C249.14 102.352 256.194 95.9488 261.205 87.6309L259.755 86.7574ZM239.315 105.321C230.57 109.668 220.322 111.857 208.548 111.857V113.549C220.532 113.549 231.047 111.321 240.069 106.836L239.315 105.321ZM208.548 111.857H168.343V113.549H208.548V111.857ZM169.19 112.703V79.808H167.497V112.703H169.19ZM168.343 80.6543H200.02V78.9616H168.343V80.6543ZM200.02 80.6543C205.09 80.6543 209.464 79.775 213.111 77.9781L212.362 76.4598C209.003 78.115 204.9 78.9616 200.02 78.9616V80.6543ZM213.115 77.976C216.807 76.1297 219.651 73.505 221.617 70.1041L220.151 69.2569C218.361 72.3539 215.772 74.7548 212.358 76.462L213.115 77.976ZM221.612 70.1126C223.631 66.7123 224.624 62.725 224.624 58.1824H222.931C222.931 62.4728 221.996 66.151 220.156 69.2484L221.612 70.1126ZM224.624 58.1824C224.624 53.592 223.632 49.6243 221.606 46.3183L220.163 47.2028C221.994 50.1915 222.931 53.8384 222.931 58.1824H224.624ZM221.614 46.3319C219.644 42.978 216.795 40.4283 213.097 38.685L212.376 40.216C215.785 41.8231 218.368 44.1468 220.154 47.1891L221.614 46.3319ZM213.111 38.6913C209.464 36.8945 205.09 36.0152 200.02 36.0152V37.7078C204.9 37.7078 209.003 38.5545 212.362 40.2096L213.111 38.6913ZM200.02 36.0152H185.095V37.7078H200.02V36.0152ZM184.249 36.8615V159H185.942V36.8615H184.249ZM185.095 158.154H142.758V159.846H185.095V158.154ZM321.525 3.05261H322.371V2.20629H321.525V3.05261ZM321.525 159V159.846H322.371V159H321.525ZM279.188 159H278.341V159.846H279.188V159ZM279.188 3.05261V2.20629H278.341V3.05261H279.188ZM320.679 3.05261V159H322.371V3.05261H320.679ZM321.525 158.154H279.188V159.846H321.525V158.154ZM280.034 159V3.05261H278.341V159H280.034ZM279.188 3.89893H321.525V2.20629H279.188V3.89893ZM337.301 159H336.455V159.846H337.301V159ZM337.301 3.05261V2.20629H336.455V3.05261H337.301ZM379.638 3.05261H380.485V2.20629H379.638V3.05261ZM379.638 66.1016H378.792V66.948H379.638V66.1016ZM381.77 66.1016V66.948H382.196L382.449 66.6068L381.77 66.1016ZM428.676 3.05261V2.20629H428.251L427.997 2.54744L428.676 3.05261ZM478.019 3.05261L478.693 3.56417L479.724 2.20629H478.019V3.05261ZM425.326 72.4979L424.652 71.9864L424.299 72.4508L424.608 72.9456L425.326 72.4979ZM479.237 159V159.846H480.762L479.956 158.552L479.237 159ZM428.676 159L427.95 159.435L428.197 159.846H428.676V159ZM393.649 100.52L394.375 100.085L393.735 99.0164L392.978 100.005L393.649 100.52ZM379.638 118.795L378.967 118.28L378.792 118.508V118.795H379.638ZM379.638 159V159.846H380.485V159H379.638ZM338.147 159V3.05261H336.455V159H338.147ZM337.301 3.89893H379.638V2.20629H337.301V3.89893ZM378.792 3.05261V66.1016H380.485V3.05261H378.792ZM379.638 66.948H381.77V65.2553H379.638V66.948ZM382.449 66.6068L429.355 3.55777L427.997 2.54744L381.091 65.5965L382.449 66.6068ZM428.676 3.89893H478.019V2.20629H428.676V3.89893ZM477.345 2.54104L424.652 71.9864L426 73.0095L478.693 3.56417L477.345 2.54104ZM424.608 72.9456L478.519 159.448L479.956 158.552L426.044 72.0503L424.608 72.9456ZM479.237 158.154H428.676V159.846H479.237V158.154ZM429.402 158.565L394.375 100.085L392.923 100.955L427.95 159.435L429.402 158.565ZM392.978 100.005L378.967 118.28L380.31 119.31L394.321 101.035L392.978 100.005ZM378.792 118.795V159H380.485V118.795H378.792ZM379.638 158.154H337.301V159.846H379.638V158.154ZM486.295 159H485.448V159.846H486.295V159ZM486.295 3.05261V2.20629H485.448V3.05261H486.295ZM598.686 3.05261H599.533V2.20629H598.686V3.05261ZM598.686 37.1661V38.0124H599.533V37.1661H598.686ZM528.632 37.1661V36.3198H527.786V37.1661H528.632ZM528.632 63.9696H527.786V64.8159H528.632V63.9696ZM592.899 63.9696H593.746V63.1232H592.899V63.9696ZM592.899 98.0831V98.9294H593.746V98.0831H592.899ZM528.632 98.0831V97.2367H527.786V98.0831H528.632ZM528.632 124.887H527.786V125.733H528.632V124.887ZM598.382 124.887H599.228V124.04H598.382V124.887ZM598.382 159V159.846H599.228V159H598.382ZM487.141 159V3.05261H485.448V159H487.141ZM486.295 3.89893H598.686V2.20629H486.295V3.89893ZM597.84 3.05261V37.1661H599.533V3.05261H597.84ZM598.686 36.3198H528.632V38.0124H598.686V36.3198ZM527.786 37.1661V63.9696H529.478V37.1661H527.786ZM528.632 64.8159H592.899V63.1232H528.632V64.8159ZM592.053 63.9696V98.0831H593.746V63.9696H592.053ZM592.899 97.2367H528.632V98.9294H592.899V97.2367ZM527.786 98.0831V124.887H529.478V98.0831H527.786ZM528.632 125.733H598.382V124.04H528.632V125.733ZM597.536 124.887V159H599.228V124.887H597.536ZM598.382 158.154H486.295V159.846H598.382V158.154ZM653.825 159H652.978V159.846H653.825V159ZM653.825 3.05261V2.20629H652.978V3.05261H653.825ZM763.475 3.05261H764.321V2.20629H763.475V3.05261ZM763.475 37.1661V38.0124H764.321V37.1661H763.475ZM696.162 37.1661V36.3198H695.316V37.1661H696.162ZM696.162 63.9696H695.316V64.8159H696.162V63.9696ZM756.774 63.9696H757.621V63.1232H756.774V63.9696ZM756.774 98.0831V98.9294H757.621V98.0831H756.774ZM696.162 98.0831V97.2367H695.316V98.0831H696.162ZM696.162 159V159.846H697.008V159H696.162ZM654.671 159V3.05261H652.978V159H654.671ZM653.825 3.89893H763.475V2.20629H653.825V3.89893ZM762.629 3.05261V37.1661H764.321V3.05261H762.629ZM763.475 36.3198H696.162V38.0124H763.475V36.3198ZM695.316 37.1661V63.9696H697.008V37.1661H695.316ZM696.162 64.8159H756.774V63.1232H696.162V64.8159ZM755.928 63.9696V98.0831H757.621V63.9696H755.928ZM756.774 97.2367H696.162V98.9294H756.774V97.2367ZM695.316 98.0831V159H697.008V98.0831H695.316ZM696.162 158.154H653.825V159.846H696.162V158.154ZM795.794 159V159.846H796.422L796.604 159.245L795.794 159ZM750.106 159L749.303 158.735L748.936 159.846H750.106V159ZM801.581 3.05261V2.20629H800.969L800.777 2.78733L801.581 3.05261ZM859.452 3.05261L860.256 2.78733L860.064 2.20629H859.452V3.05261ZM910.927 159V159.846H912.098L911.731 158.735L910.927 159ZM865.239 159L864.429 159.245L864.611 159.846H865.239V159ZM831.126 45.9991L831.936 45.7545L831.754 45.1527H831.126V45.9991ZM829.907 45.9991V45.1527H829.279L829.097 45.7545L829.907 45.9991ZM787.266 97.4739V96.6276H786.419V97.4739H787.266ZM873.158 97.4739H874.005V96.6276H873.158V97.4739ZM873.158 129.151V129.997H874.005V129.151H873.158ZM787.266 129.151H786.419V129.997H787.266V129.151ZM795.794 158.154H750.106V159.846H795.794V158.154ZM750.91 159.265L802.385 3.31788L800.777 2.78733L749.303 158.735L750.91 159.265ZM801.581 3.89893H859.452V2.20629H801.581V3.89893ZM858.648 3.31788L910.123 159.265L911.731 158.735L860.256 2.78733L858.648 3.31788ZM910.927 158.154H865.239V159.846H910.927V158.154ZM866.049 158.755L831.936 45.7545L830.316 46.2437L864.429 159.245L866.049 158.755ZM831.126 45.1527H829.907V46.8454H831.126V45.1527ZM829.097 45.7545L794.984 158.755L796.604 159.245L830.718 46.2437L829.097 45.7545ZM787.266 98.3202H873.158V96.6276H787.266V98.3202ZM872.312 97.4739V129.151H874.005V97.4739H872.312ZM873.158 128.304H787.266V129.997H873.158V128.304ZM788.112 129.151V97.4739H786.419V129.151H788.112ZM921.658 3.05261V2.20629H920.812V3.05261H921.658ZM974.351 3.05261L975.134 2.73132L974.919 2.20629H974.351V3.05261ZM1010.6 91.3822L1009.81 91.7035L1010.03 92.2285H1010.6V91.3822ZM1012.42 91.3822V92.2285H1012.99L1013.21 91.7035L1012.42 91.3822ZM1048.67 3.05261V2.20629H1048.1L1047.89 2.73132L1048.67 3.05261ZM1101.36 3.05261H1102.21V2.20629H1101.36V3.05261ZM1101.36 159V159.846H1102.21V159H1101.36ZM1059.94 159H1059.09V159.846H1059.94V159ZM1059.94 68.8429H1060.79V67.9966H1059.94V68.8429ZM1058.72 68.8429V67.9966H1058.14L1057.93 68.5351L1058.72 68.8429ZM1024 157.782V158.628H1024.58L1024.79 158.089L1024 157.782ZM999.023 157.782L998.234 158.088L998.443 158.628H999.023V157.782ZM964.3 68.2337L965.089 67.9278L964.88 67.3874H964.3V68.2337ZM963.082 68.2337V67.3874H962.235V68.2337H963.082ZM963.082 159V159.846H963.928V159H963.082ZM921.658 159H920.812V159.846H921.658V159ZM921.658 3.89893H974.351V2.20629H921.658V3.89893ZM973.568 3.37389L1009.81 91.7035L1011.38 91.0609L975.134 2.73132L973.568 3.37389ZM1010.6 92.2285H1012.42V90.5359H1010.6V92.2285ZM1013.21 91.7035L1049.45 3.37389L1047.89 2.73132L1011.64 91.0609L1013.21 91.7035ZM1048.67 3.89893H1101.36V2.20629H1048.67V3.89893ZM1100.52 3.05261V159H1102.21V3.05261H1100.52ZM1101.36 158.154H1059.94V159.846H1101.36V158.154ZM1060.79 159V68.8429H1059.09V159H1060.79ZM1059.94 67.9966H1058.72V69.6892H1059.94V67.9966ZM1057.93 68.5351L1023.21 157.474L1024.79 158.089L1059.51 69.1507L1057.93 68.5351ZM1024 156.935H999.023V158.628H1024V156.935ZM999.812 157.476L965.089 67.9278L963.511 68.5397L998.234 158.088L999.812 157.476ZM964.3 67.3874H963.082V69.0801H964.3V67.3874ZM962.235 68.2337V159H963.928V68.2337H962.235ZM963.082 158.154H921.658V159.846H963.082V158.154ZM922.505 159V3.05261H920.812V159H922.505ZM1159.48 3.05261H1160.32V2.20629H1159.48V3.05261ZM1159.48 159V159.846H1160.32V159H1159.48ZM1117.14 159H1116.29V159.846H1117.14V159ZM1117.14 3.05261V2.20629H1116.29V3.05261H1117.14ZM1158.63 3.05261V159H1160.32V3.05261H1158.63ZM1159.48 158.154H1117.14V159.846H1159.48V158.154ZM1117.99 159V3.05261H1116.29V159H1117.99ZM1117.14 3.89893H1159.48V2.20629H1117.14V3.89893ZM1175.25 159H1174.41V159.846H1175.25V159ZM1175.25 3.05261V2.20629H1174.41V3.05261H1175.25ZM1217.59 3.05261H1218.44V2.20629H1217.59V3.05261ZM1217.59 124.887H1216.74V125.733H1217.59V124.887ZM1280.64 124.887H1281.49V124.04H1280.64V124.887ZM1280.64 159V159.846H1281.49V159H1280.64ZM1176.1 159V3.05261H1174.41V159H1176.1ZM1175.25 3.89893H1217.59V2.20629H1175.25V3.89893ZM1216.74 3.05261V124.887H1218.44V3.05261H1216.74ZM1217.59 125.733H1280.64V124.04H1217.59V125.733ZM1279.79 124.887V159H1281.49V124.887H1279.79ZM1280.64 158.154H1175.25V159.846H1280.64V158.154ZM1258.8 3.05261V2.20629H1257.39L1258.05 3.4522L1258.8 3.05261ZM1306.01 3.05261L1306.77 2.6859L1306.54 2.20629H1306.01V3.05261ZM1336.47 66.4062L1335.7 66.7729L1335.94 67.2526H1336.47V66.4062ZM1337.69 66.4062V67.2526H1338.22L1338.45 66.7729L1337.69 66.4062ZM1368.14 3.05261V2.20629H1367.61L1367.38 2.6859L1368.14 3.05261ZM1415.36 3.05261L1416.1 3.4522L1416.77 2.20629H1415.36V3.05261ZM1358.09 109.962L1357.35 109.562L1357.25 109.749V109.962H1358.09ZM1358.09 159V159.846H1358.94V159H1358.09ZM1316.06 159H1315.21V159.846H1316.06V159ZM1316.06 109.962H1316.91V109.749L1316.81 109.562L1316.06 109.962ZM1258.8 3.89893H1306.01V2.20629H1258.8V3.89893ZM1305.25 3.41931L1335.7 66.7729L1337.23 66.0395L1306.77 2.6859L1305.25 3.41931ZM1336.47 67.2526H1337.69V65.5599H1336.47V67.2526ZM1338.45 66.7729L1368.91 3.41931L1367.38 2.6859L1336.92 66.0395L1338.45 66.7729ZM1368.14 3.89893H1415.36V2.20629H1368.14V3.89893ZM1414.61 2.65302L1357.35 109.562L1358.84 110.361L1416.1 3.4522L1414.61 2.65302ZM1357.25 109.962V159H1358.94V109.962H1357.25ZM1358.09 158.154H1316.06V159.846H1358.09V158.154ZM1316.91 159V109.962H1315.21V159H1316.91ZM1316.81 109.562L1259.54 2.65302L1258.05 3.4522L1315.31 110.361L1316.81 109.562Z" fill="#212121" mask="url(#path-1-outside-1_448_856)"/>
</g>
</svg>
