<svg width="193" height="74" viewBox="0 0 193 74" fill="none" xmlns="http://www.w3.org/2000/svg">
<path d="M62.6687 51.9104H55.4468V49.8531H63.6285V47.5818H52.4551V56.588H55.4468V53.9396H62.6687V51.9104Z" fill="#212121"/>
<path d="M71.5836 47.5677H68.5918V56.5768H71.5836V47.5677Z" fill="#212121"/>
<path d="M90.0996 56.574V47.5649H87.1022V53.5484L82.1432 47.5649H77.4824V56.574H80.4714V49.8446L86.3902 56.574H90.0996Z" fill="#212121"/>
<path d="M104.143 54.9022L104.923 56.5909H108.263L103.431 47.5846H99.3754L94.543 56.5909H97.8865L98.6633 54.9022H104.143ZM101.407 48.9918L103.425 53.3486H99.3754L101.407 48.9918Z" fill="#212121"/>
<path d="M125.322 56.574V47.5649H122.325V53.5484L117.369 47.5649H112.705V56.574H115.694V49.8446L121.613 56.574H125.322Z" fill="#212121"/>
<path d="M139.903 53.3429C139.315 54.4152 137.902 54.5475 136.855 54.5475C135.937 54.5475 133.511 54.4997 133.545 52.1918V51.9554C133.514 49.6504 135.85 49.6194 136.849 49.6054C137.975 49.6054 139.323 49.7461 139.903 50.8015H143.089C142.698 48.4711 140.652 47.3341 136.855 47.3256C132.6 47.3425 130.534 48.7779 130.545 51.7106V52.4311C130.545 53.6582 130.877 54.5954 131.575 55.2962C132.574 56.3009 134.35 56.8132 136.855 56.8188C140.654 56.8188 142.701 55.693 143.089 53.3429H139.903Z" fill="#212121"/>
<path d="M151.14 47.5677H148.148V56.5768H151.14V47.5677Z" fill="#212121"/>
<path d="M165.184 54.9022L165.963 56.5909H169.304L164.472 47.5846H160.411L155.578 56.5909H158.922L159.698 54.9022H165.184ZM162.445 48.9918L164.466 53.3486H160.416L162.445 48.9918Z" fill="#212121"/>
<path d="M173.746 47.5649V56.574H184.433V54.3027H176.735V47.5649H173.746Z" fill="#212121"/>
<path d="M63.7878 28.6405C69.9008 28.9501 78.4906 29.3751 78.4737 34.8661C78.4737 41.1254 71.3024 42.6087 63.6077 42.6087C55.913 42.6087 49.5579 41.663 48.7446 34.8661H57.6917C58.6712 36.5547 60.9368 37.0022 63.6021 37.0022C66.2674 37.0022 69.5125 36.5632 69.5125 34.8661C69.5125 33.9063 66.8556 33.7572 63.4163 33.5967C57.3033 33.2872 48.7136 32.8622 48.7305 27.3852C48.7305 21.1259 55.9017 19.6258 63.5936 19.6258C71.2715 19.6765 77.6434 20.5405 78.4596 27.3852H69.5125C68.533 25.6572 66.2674 25.2491 63.6021 25.2491C60.9368 25.2491 57.6917 25.6403 57.6917 27.3852C57.6917 28.3478 60.3486 28.4773 63.7878 28.6405Z" fill="url(#paint0_linear_448_882)"/>
<path d="M101.864 20.197C106.367 20.1492 110.209 23.9459 110.144 28.4772C110.146 29.5648 109.932 30.6421 109.516 31.6472C109.101 32.6523 108.491 33.5655 107.722 34.3346C106.953 35.1037 106.039 35.7136 105.034 36.1293C104.029 36.545 102.952 36.7584 101.864 36.7573H89.2977V42.1048H80.7559V20.197H101.864ZM99.7281 30.3291C99.9709 30.3332 100.212 30.2877 100.437 30.1952C100.661 30.1028 100.864 29.9654 101.034 29.7915C101.213 29.6219 101.356 29.4172 101.453 29.1901C101.55 28.963 101.599 28.7184 101.597 28.4716C101.602 28.2243 101.554 27.9787 101.457 27.7512C101.36 27.5237 101.216 27.3193 101.034 27.1516C100.868 26.9713 100.666 26.828 100.441 26.7311C100.216 26.6341 99.9731 26.5856 99.7281 26.5887H89.2977V30.3488L99.7281 30.3291Z" fill="url(#paint1_linear_448_882)"/>
<path d="M121.003 20.1661V42.0711H112.461V20.1661H121.003Z" fill="url(#paint2_linear_448_882)"/>
<path d="M134.075 34.5902V42.0711H125.533V20.1661H134.075V27.647H137.807L145.842 20.1661H157.055L145.696 31.1172L157.055 42.0711H145.842L137.807 34.5902H134.075Z" fill="url(#paint3_linear_448_882)"/>
<path d="M158.248 20.1971H183.885V25.8035H166.787V28.6179H183.885V33.684H166.787V36.4984H183.885V42.1273H158.248V20.1971Z" fill="url(#paint4_linear_448_882)"/>
<path d="M42.7045 26.7295C42.4793 26.3946 26.8 13.9237 26.8 13.9237C26.0561 13.3402 25.1308 13.0366 24.1858 13.0659C23.2408 13.0952 22.3361 13.4556 21.6298 14.0841L19.7441 29.4257L42.7045 26.7295Z" fill="url(#paint5_linear_448_882)"/>
<path d="M9.31381 29.5946C8.65577 30.4329 8.35628 31.4975 8.48074 32.5559C8.60519 33.6143 9.14348 34.5805 9.97801 35.2432L18.2778 44.6294L21.6974 14.025C21.5232 14.1773 21.3631 14.345 21.219 14.526L9.31381 29.5946Z" fill="url(#paint6_linear_448_882)"/>
<path d="M44.3247 44.421C44.983 43.5831 45.283 42.5187 45.1591 41.4603C45.0351 40.4019 44.4974 39.4356 43.6633 38.7724L22.8926 30.8469L31.9467 59.985C32.1225 59.8345 32.2836 59.6677 32.428 59.4868L44.3247 44.421Z" fill="url(#paint7_linear_448_882)"/>
<path d="M10.9375 47.2693C11.1627 47.6071 26.8448 60.0779 26.8448 60.0779C27.5886 60.6608 28.5136 60.9639 29.4581 60.934C30.4026 60.9042 31.3066 60.5434 32.0122 59.9147L27.4133 45.3358L10.9375 47.2693Z" fill="url(#paint8_linear_448_882)"/>
<defs>
<linearGradient id="paint0_linear_448_882" x1="63.2052" y1="42.0458" x2="64.1256" y2="17.1828" gradientUnits="userSpaceOnUse">
<stop offset="0.13" stop-color="#2D2753"/>
<stop offset="1" stop-color="#005396"/>
</linearGradient>
<linearGradient id="paint1_linear_448_882" x1="94.7578" y1="43.2137" x2="95.6781" y2="18.3508" gradientUnits="userSpaceOnUse">
<stop offset="0.13" stop-color="#2D2753"/>
<stop offset="1" stop-color="#005396"/>
</linearGradient>
<linearGradient id="paint2_linear_448_882" x1="116.255" y1="44.0102" x2="117.175" y2="19.1473" gradientUnits="userSpaceOnUse">
<stop offset="0.13" stop-color="#2D2753"/>
<stop offset="1" stop-color="#005396"/>
</linearGradient>
<linearGradient id="paint3_linear_448_882" x1="140.782" y1="44.9193" x2="141.705" y2="20.0564" gradientUnits="userSpaceOnUse">
<stop offset="0.13" stop-color="#2D2753"/>
<stop offset="1" stop-color="#005396"/>
</linearGradient>
<linearGradient id="paint4_linear_448_882" x1="170.516" y1="46.0197" x2="171.437" y2="21.1568" gradientUnits="userSpaceOnUse">
<stop offset="0.13" stop-color="#2D2753"/>
<stop offset="1" stop-color="#005396"/>
</linearGradient>
<linearGradient id="paint5_linear_448_882" x1="18.8356" y1="21.6193" x2="41.7985" y2="18.9218" gradientUnits="userSpaceOnUse">
<stop offset="0.13" stop-color="#2D2753"/>
<stop offset="1" stop-color="#005396"/>
</linearGradient>
<linearGradient id="paint6_linear_448_882" x1="24.7465" y1="34.0625" x2="9.07923" y2="18.4864" gradientUnits="userSpaceOnUse">
<stop offset="0.34" stop-color="#0088CB"/>
<stop offset="0.97" stop-color="#28387D"/>
</linearGradient>
<linearGradient id="paint7_linear_448_882" x1="24.0975" y1="27.6292" x2="42.4227" y2="56.3991" gradientUnits="userSpaceOnUse">
<stop offset="0.37" stop-color="#0088CB"/>
<stop offset="0.97" stop-color="#28387D"/>
</linearGradient>
<linearGradient id="paint8_linear_448_882" x1="37.6129" y1="51.682" x2="21.2566" y2="53.9775" gradientUnits="userSpaceOnUse">
<stop offset="0.42" stop-color="#2D2753"/>
<stop offset="1" stop-color="#005396"/>
</linearGradient>
</defs>
</svg>
