<svg width="32" height="32" viewBox="0 0 32 32" fill="none" xmlns="http://www.w3.org/2000/svg">
<path d="M5.74425 26C5.07074 26 4.50065 25.7666 4.03398 25.3C3.56732 24.8333 3.33398 24.2632 3.33398 23.5897V8.4103C3.33398 7.73679 3.56732 7.1667 4.03398 6.70003C4.50065 6.23336 5.07074 6.00003 5.74425 6.00003H26.257C26.9305 6.00003 27.5006 6.23336 27.9673 6.70003C28.4339 7.1667 28.6673 7.73679 28.6673 8.4103V23.5897C28.6673 24.2632 28.4339 24.8333 27.9673 25.3C27.5006 25.7666 26.9305 26 26.257 26H5.74425ZM5.74425 24H26.257C26.3596 24 26.4536 23.9573 26.5391 23.8718C26.6246 23.7863 26.6673 23.6923 26.6673 23.5897V10.6667H5.33395V23.5897C5.33395 23.6923 5.37668 23.7863 5.46215 23.8718C5.54764 23.9573 5.64167 24 5.74425 24ZM10.0006 22.1923L8.60835 20.8L12.0417 17.3333L8.57502 13.8667L10.0006 12.4744L14.8596 17.3333L10.0006 22.1923ZM16.334 22.3333V20.3334H23.6673V22.3333H16.334Z" fill="black"/>
</svg>
