<svg width="17" height="28" viewBox="0 0 17 28" fill="none" xmlns="http://www.w3.org/2000/svg">
<path d="M6.20553 27.0513V26.1282C6.20553 25.4171 6.48716 24.8376 7.05043 24.3898C7.61367 23.9419 8.26367 23.6838 9.00043 23.6154V13.6718C8.45169 13.5367 7.96835 13.2897 7.55039 12.9308C7.13246 12.5718 6.80554 12.1401 6.56963 11.6359L3.57473 12.4051C2.89439 12.5658 2.24226 12.5119 1.61833 12.2436C0.994415 11.9752 0.561093 11.5316 0.318359 10.9128L6.24656 9.42052C6.39869 8.50086 6.81023 7.74102 7.48116 7.14102C8.15211 6.54102 8.95426 6.22906 9.88759 6.20512L10.7902 2.92306C10.9867 2.2393 11.3547 1.6846 11.894 1.25896C12.4333 0.833333 13.0448 0.675223 13.7286 0.784623L12.0363 6.81026C12.6004 7.14872 13.0346 7.60043 13.3388 8.16539C13.6431 8.73034 13.7953 9.34188 13.7953 9.99999C13.7953 10.2974 13.7598 10.5893 13.6888 10.8756C13.6179 11.162 13.5337 11.4427 13.4363 11.718L15.5696 13.9436C16.0568 14.4445 16.3589 15.0325 16.476 15.7077C16.5931 16.3829 16.4449 16.9743 16.0312 17.482L11.8517 13.3025C11.7252 13.4034 11.591 13.479 11.4491 13.5295C11.3072 13.5799 11.1576 13.6273 11.0004 13.6718V23.6154C11.7371 23.6838 12.3871 23.9419 12.9504 24.3898C13.5136 24.8376 13.7953 25.4171 13.7953 26.1282V27.0513H6.20553ZM10.0004 12.2051C10.6158 12.2051 11.1372 11.9914 11.5645 11.5641C11.9918 11.1368 12.2055 10.6154 12.2055 9.99999C12.2055 9.38459 11.9918 8.86322 11.5645 8.43589C11.1372 8.00853 10.6158 7.79486 10.0004 7.79486C9.38499 7.79486 8.86363 8.00853 8.43629 8.43589C8.00894 8.86322 7.79526 9.38459 7.79526 9.99999C7.79526 10.6154 8.00894 11.1368 8.43629 11.5641C8.86363 11.9914 9.38499 12.2051 10.0004 12.2051Z" fill="#212121"/>
</svg>
